<?xml version="1.0" standalone="no"?>
<!DOCTYPE svg PUBLIC "-//W3C//DTD SVG 1.1//EN" "http://www.w3.org/Graphics/SVG/1.1/DTD/svg11.dtd" >
<svg xmlns="http://www.w3.org/2000/svg" xmlns:xlink="http://www.w3.org/1999/xlink" version="1.1">
<metadata>
Created by FontForge 20200314 at Sat Dec 28 01:25:30 2019
 By www-data
</metadata>
<defs>
<font id="GNWDXXX" horiz-adv-x="256" >
  <font-face 
    font-family="GNWDXXX"
    font-weight="400"
    font-stretch="normal"
    units-per-em="256"
    panose-1="0 0 0 0 0 0 0 0 0 0"
    ascent="204"
    descent="-52"
    x-height="137"
    cap-height="203"
    bbox="-11.2857 -59.4 249 236.125"
    underline-thickness="0"
    underline-position="0"
    unicode-range="U+0020-FFE5"
  />
<missing-glyph 
 />
    <glyph glyph-name=".notdef" 
 />
    <glyph glyph-name="space" unicode=" " horiz-adv-x="90" 
 />
    <glyph glyph-name="exclam" unicode="!" horiz-adv-x="47" 
d="M41 187q-2 -3 -3 -9q0 -4 -5 -30q-2 -10 -3 -11t-3 -14t-3 -19t-1 -19q-1 -12 -1 -13q0 -2 -3 -3q-7 -4 -10 6t1 27q1 8 2 12t3 11q1 8 3 13q1 6 3 16t3 14t1 14t3 14q2 3 9 3h4v-6q1 -5 0 -6v0zM19 6q-5 0 -8 5q-3 4 -2 8q0 5 5 6q5 2 8 -1q2 -2 1 -10t-4 -8v0z" />
    <glyph glyph-name="quotedbl" unicode="&#x22;" horiz-adv-x="56" 
d="M44 220q0 -6 2 -13q1 -6 0 -8t-3 -2q-5 1 -9 15q-3 15 0 19q2 2 3 2t4 -3l3 -3v-7v0zM24 195q-2 -4 -5 -1t-4 9q-1 4 -3 7q-4 4 -4 9q0 4 3 5q2 1 6 -3t7 -13q2 -9 0 -13v0z" />
    <glyph glyph-name="numbersign" unicode="#" horiz-adv-x="170" 
d="M111 159q0 -3 3 -3q2 -1 11 0q16 1 22 1q5 -1 6 -5q0 -2 -4 -5q-3 -4 -6 -4q-1 0 -4 -2q-4 -2 -7 -2q-3 1 -4 3q0 2 -1 3h-4q-6 0 -7 -2t0 -11q1 -26 0 -35q-1 -4 1 -5t11 2q11 2 12 4q4 4 12 1q8 -2 8 -8q0 -2 -3 -4q-2 -2 -4 -1t-20 -4t-18 -7l-1 -13q-1 -12 0 -20
q1 -9 -2 -12t-8 2q-3 2 -3 5v21v11q0 4 -3 3q-1 0 -12 -4t-13 -6q-1 -2 -1 -16q0 -13 -1 -16q-2 -3 -7 -3q-4 0 -5 2q-1 3 -1 14q-1 10 -2 12q-1 1 -6 -1q-4 -3 -8 -4t-7 -3t-4 -2t-2 3q-3 4 0 7t12 7q17 7 18 12q5 24 7 43q0 9 1 13q1 5 0 6t-5 1q-21 -3 -36 -3
q-16 0 -17 4q-2 5 2 6q5 2 21 3q18 0 27 1l10 2l1 4q1 7 2 8q2 2 5 2q7 0 6 -7q-1 -4 1 -6q1 -1 7 0q7 1 8 3q1 1 1 7q-1 9 2 11q2 2 6 -6q3 -5 3 -7v0zM81 135q0 -3 -2 -14t-3 -23q-1 -11 -2 -16q-1 -7 5 -4q3 1 13 5q10 3 10 4q2 1 2 24t-1 28q0 2 -3 3q-2 0 -10 -1
q-6 -1 -7 -2q-2 -1 -2 -4v0z" />
    <glyph glyph-name="dollar" unicode="$" horiz-adv-x="117" 
d="M80 190q0 -12 1 -13q0 -2 6 -3q10 -2 11 -11q1 -3 -3 -4q-3 -1 -4 2q0 2 -3 2q-2 0 -2 1q-1 2 -4 1q-3 0 -4 -2q-1 -4 -3 -23q-2 -18 -2 -29v-4l6 -1q6 -1 9 -3q4 -2 6 -2q6 -2 11 -9t5 -14q0 -5 -7 -14q-6 -9 -10 -9q-3 0 -5 -2q-7 -5 -16 -6q-6 0 -7 -1q-1 0 -1 -3
q0 -2 -2 -5q-1 -3 -1 -16v-12l-4 -4q-3 -3 -7 -3l-3 1l-1 11q0 10 2 17q3 10 2 13t-7 2q-9 -3 -20 -3q-10 -1 -11 1q-2 2 1 5q2 2 6 2t11 2q7 1 14 1q6 1 7 2t3 11q2 21 3 23q0 7 -2 8h-7t-10 1q-3 2 -6 2q-2 0 -3 2q-2 2 -5 2q-7 0 -8 10q0 9 7 21q8 17 15 24q8 7 20 11
q5 2 7 4q1 3 2 14q1 9 1 10q1 2 3 4q5 2 7 0q1 -2 2 -14v0zM56 160q-2 0 -5 -4q-3 -3 -8 -7q-8 -6 -8 -10q0 -1 -1 -4q-3 -6 -5 -15q0 -4 13 -10q14 -5 16 -1q1 1 3 14q1 13 2 23q1 13 2 15q1 6 -5 1q-3 -2 -4 -2v0zM68 88q-1 -8 -1 -24v-6h4q10 0 20 9q9 9 8 16
q-2 6 -15 12q-13 5 -14 0q-1 -1 -2 -7v0z" />
    <glyph glyph-name="percent" unicode="%" horiz-adv-x="120" 
d="M75 189q-2 -2 -2 -8q-1 -5 -3 -7q-1 -3 -1 -4q0 -3 -6 -6t-9 -2q-7 2 -10 5q-4 3 -5 9t-3 7q-2 3 1 8q1 3 1 5q0 4 5 4q3 0 5 2q1 2 4 2t7 2q7 3 12 -1q3 -2 4 -8q2 -5 0 -8v0zM50 183q0 -8 5 -9q5 0 8 7q5 9 3 12q-1 3 -9 0q-5 -3 -6 -5q-1 -1 -1 -5v0zM108 164
q-3 -4 -8 -12q-6 -9 -7 -11q0 -1 -1 -3q-3 -3 -13 -23q-2 -4 -4 -7t-4 -7t-7 -12q-4 -7 -7 -13q-4 -6 -5 -9l-2 -4q-2 -3 -7 -15l-6 -12q-2 -1 -3 -5q-1 -3 -3 -5l-5 -10t-5 -11q-1 -6 -6 -3t-5 9q0 5 4 11q3 6 5 9q3 6 8 12q2 3 2 4t3 6t3 6q0 2 3 7q2 5 2 6t2 2q1 2 10 19
q1 3 5 8l6 10q2 6 5 9l4 8t3 5q1 2 5 8q3 7 5 10t5 9q7 11 12 15q6 4 9 0q2 -3 2 -5q-1 -2 -5 -6v0zM97 36q-1 -2 -1 -4q0 -3 -1 -4q-2 -1 -6 -9q-2 -4 -3 -4t-2 -2q-1 -4 -7 -8t-9 -3q-6 1 -9 7q-3 7 -1 15q4 23 12 30q8 8 21 2t6 -20v0zM75 42q0 -1 -2 -4q-3 -3 -3 -11
q-1 -8 1 -9q2 -2 9 6t8 15q2 6 -4 9t-8 -3q-1 -2 -1 -3v0z" />
    <glyph glyph-name="ampersand" unicode="&#x26;" horiz-adv-x="156" 
d="M76 199q0 -2 2 -5q5 -5 5 -18q0 -14 -5 -23q-2 -4 -2 -5t-2 -5q-3 -3 -4 -8q-4 -8 -11 -17q-2 -3 -2 -5q1 -3 4 -8q3 -3 6 -9q2 -5 2 -7t3 -5q2 -2 6 -11q5 -10 8 -13q2 -2 4 2l2 8q2 5 3 9t6 9q4 6 6 5q1 -1 1 -4q0 -2 -1 -5q-2 -2 -2 -11q-1 -9 -4 -14q-3 -4 -5 -9
l-1 -4l4 -4q5 -4 11 -8t8 -4q1 0 5 -2q4 -3 5 -3q4 -2 10 -6q5 -4 7 -7q2 -4 -1 -6q-2 -2 -7 1q-4 2 -7 2q-4 0 -13 4q-9 5 -14 9q-4 3 -5 3t-3 3q-2 2 -4 2q-1 0 -2 2q-1 1 -3 1t-3 -2q-3 -5 -14 -12q-12 -7 -17 -7q-16 -1 -21 2q-6 2 -13 12q-10 13 -10 30q0 16 9 30
q13 17 19 23q6 8 3 11q-1 1 -2 6q-3 14 -4 19q-1 4 -1 8t-2 16q-3 16 -2 29q2 12 7 14q3 1 5 2q7 4 19 1q6 -2 12 -7q5 -5 5 -9v0zM37 194q1 -1 3 -2q1 -1 2 -7q1 -5 1 -11t2 -10q1 -3 1 -4q-1 -1 1 -14q3 -13 4 -13t5 4q3 5 4 8q1 4 2 5t2 5t2 6q5 11 2 21q-2 10 -9 15
q-8 6 -17 3q-4 -2 -6 -4q-1 -1 1 -2v0zM29 80q0 -1 -3 -7t-4 -7q-1 -2 0 -7q1 -4 2 -11q1 -6 3 -11q2 -4 2 -5t5 -3t11 -2q11 -2 22 6q12 9 9 15q-2 3 -2 4t-3 5q-3 5 -4 8q-1 4 -3 7q-3 3 -6 9q-3 7 -5 10q-1 3 -3 6q-2 4 -4 3q-1 -1 -8 -9q-9 -10 -9 -11v0z" />
    <glyph glyph-name="quotesingle" unicode="'" horiz-adv-x="39" 
d="M28 185q-3 0 -7 12q-3 14 -8 25q-3 6 1 11t10 2q4 -1 6 -26q2 -24 -2 -24v0z" />
    <glyph glyph-name="parenleft" unicode="(" horiz-adv-x="93" 
d="M52 175q-2 0 -3 -1t-3 -4q-2 -4 -6 -9q-3 -4 -4 -8t-2 -7q-3 -5 -6 -21l-3 -12t-2 -14v-14q2 -21 5 -25q1 -3 1 -4q0 -8 15 -19q15 -12 31 -16q7 -2 8 -3q2 -1 0 -3q0 -1 -9 -1t-10 1t-4 1q-2 0 -5 2q-2 2 -5 2q-2 1 -7 4q-4 3 -6 4t-10 9t-9 10l-2 6l-2 6q-4 13 -4 33
q-1 20 4 34q3 9 3 12q0 2 3 12q4 9 6 13q3 5 5 8q4 10 11 13q7 4 13 1q5 -2 4 -6t-7 -4v0z" />
    <glyph glyph-name="parenright" unicode=")" horiz-adv-x="64" 
d="M32 164q1 -3 5 -8q7 -8 7 -13q0 -1 1 -4q5 -11 8 -28q2 -17 1 -26q-2 -14 -4 -20q-1 -3 -2 -7q-1 -5 -5 -12q-3 -7 -4 -7t-1 -2q0 -1 -3 -5l-4 -8t-7 -9t-6 -5q-2 1 -1 3q0 3 3 10q4 9 7 14l3 9q2 3 2 4q0 2 2 6q5 17 6 23q2 26 -4 45q-2 7 -3 11t-3 8q-1 4 -1 5t-10 14
q-9 11 -10 15t5 4q4 -1 5 -1q2 0 7 -7q6 -7 6 -9v0z" />
    <glyph glyph-name="asterisk" unicode="*" horiz-adv-x="71" 
d="M42 196q-1 -6 3 -8q3 -2 7 2t9 0q6 -6 -2 -10q-12 -5 -12 -6t2 -4q1 -3 2 -3q1 -1 1 -7q0 -5 -2 -7t-5 -2t-5 3q-2 5 -3 5q-1 1 -4 0q-4 -1 -7 -3q-6 -6 -10 -4q-3 3 2 9q3 3 2 5v8q0 6 -2 7q-2 2 -3 5q0 2 2 4q2 3 10 0q2 0 2 1v5q-1 8 3 11q4 2 8 -3q2 -4 2 -8v0z" />
    <glyph glyph-name="plus" unicode="+" horiz-adv-x="117" 
d="M82 141q0 -7 1 -8q2 -1 10 -2t11 -2q3 0 5 -2q4 -4 1 -6t-15 -2q-10 1 -12 -1q-1 -1 -2 -10t-1 -10q-1 -1 -1 -14q-1 -10 -1 -13q-1 -3 -4 -3q-3 1 -4 6t-2 22v16q-1 4 -3 4q-1 0 -10 -2q-8 -2 -13 -3q-7 -1 -21 -5q-7 -2 -8 4q0 5 5 7q6 3 22 7q9 2 12 3q4 1 9 2
q5 0 6 2q1 1 1 6q0 10 3 14t8 0q1 -2 2 -3q0 -2 1 -7v0z" />
    <glyph glyph-name="comma" unicode="," horiz-adv-x="53" 
d="M45 42q-6 -6 -6 -8t-3 -6q-4 -3 -6 -7t-5 -7q-2 -3 -2 -5q0 -1 -3 -5t-5 -8q-2 -5 -6 -7q-3 -2 -3 1q0 2 2 9l3 9l2 3q0 1 3 7q2 6 5 11q9 20 12 22q2 1 2 3q0 4 4 5q3 1 7 -1q4 -3 4 -7q0 -3 -5 -9v0z" />
    <glyph glyph-name="hyphen" unicode="-" horiz-adv-x="96" 
d="M84 112q-7 0 -12 -1q-4 -1 -11 -1q-7 -1 -15 -2q-15 -2 -22 1q-8 2 -5 7q1 4 7 6q7 3 9 0q2 -1 12 0q33 3 42 -1q6 -2 4 -6q-2 -3 -9 -3v0z" />
    <glyph glyph-name="period" unicode="." horiz-adv-x="62" 
d="M33 35q1 -1 5 -3q10 -5 14 -11q4 -5 1 -9q-1 -3 -3 -3q-3 0 -4 2t-6 5q-4 2 -7 5q-2 2 -8 4q-9 2 -11 8q-3 5 5 6q6 1 10 -1t4 -3v0z" />
    <glyph glyph-name="slash" unicode="/" horiz-adv-x="90" 
d="M69 182q-1 -1 -3 -14q-5 -21 -8 -30q-2 -6 -5 -18q-2 -11 -5 -20q-2 -8 -2 -14q-1 -9 -4 -20t-5 -13q-1 -2 0 -2q0 -1 -2 -11q-1 -9 -2 -12q-2 -2 -3 -7q-1 -9 -5 -7q-4 1 -4 12v11q-1 3 1 9q3 7 3 8q0 3 2 6q1 5 1 8q0 7 8 37q4 11 6 24q2 5 3 7q1 3 1 5q0 4 1 5
q1 0 1 3q0 4 1 5q1 0 3 9q1 10 2 11t1 8q2 28 13 18q2 -3 3 -8q0 -7 -2 -10v0z" />
    <glyph glyph-name="zero" unicode="0" horiz-adv-x="116" 
d="M104 179q0 -2 1 -4q3 -4 4 -14q0 -8 1 -20q2 -21 0 -28q-1 -4 0 -5q0 -1 -2 -5q-3 -8 -4 -15q-1 -3 -4 -6q-3 -4 -3 -6q0 -3 -2 -5q-2 -1 -2 -3q0 -1 -3 -6q-3 -3 -3 -4t-3 -5l-7 -7q-7 -13 -22 -18q-16 -5 -29 1q-13 7 -17 18q-5 10 -5 36q0 20 1 30q1 12 5 23q1 4 1 6
q0 3 2 7q2 3 2 6q0 1 1 2t1 3q0 4 9 17q9 14 12 16q2 2 8 3q5 0 6 1q3 2 13 4q6 1 7 2q1 2 7 -1q6 -1 8 -3q4 -2 10 -10t7 -10v0zM29 159q0 -2 -2 -7q-4 -10 -4 -15q0 -2 -2 -5q-4 -4 -5 -36t3 -38q1 -2 2 -7q6 -14 30 -10q9 2 21 13q11 12 15 24q2 5 6 12q3 6 4 10t2 6
q1 3 2 11q1 10 1 15q-1 8 -1 19q-1 17 -6 23q-1 3 -1 4l-4 5q-4 4 -6 5q-1 2 -7 2q-5 0 -10 -1q-16 -4 -27 -14q-11 -9 -11 -16v0zM59 130q1 -2 2 -2l5 1q7 4 11 0q5 -3 0 -10q-2 -3 -4 -7q-4 -8 -6 -8t-5 -1q-3 -2 -7 1q-4 4 -6 12q0 2 -2 4t-2 8q0 7 2 8l2 1q1 0 4 -1
q4 -1 6 -6v0z" />
    <glyph glyph-name="one" unicode="1" horiz-adv-x="110" 
d="M66 189q-1 -2 -1 -7q-1 -13 -2 -51q-1 -14 -2 -18q-1 -8 -3 -48q0 -27 -2 -34q-1 -6 -6 -6q-4 0 -5 4q-1 6 0 16q2 11 2 17q0 9 1 11q0 5 1 18q0 14 1 21q1 11 3 40q0 14 1 26q0 13 -1 14q-3 5 2 11q6 4 9 0q2 -3 2 -7q1 -4 0 -7v0z" />
    <glyph glyph-name="two" unicode="2" horiz-adv-x="110" 
d="M83 210q-3 -1 -3 -4v-5q2 -2 9 2q5 3 9 1q4 -3 5 -9q1 -8 -1 -11q-3 -4 -14 -9q-8 -2 -8 -5v1q-3 1 -3 -3v-5q2 -16 1 -25q-2 -10 -8 -23q-3 -10 -3 -12q0 -1 -2 -4q-10 -15 -18 -28q-2 -3 -11 -12q-7 -9 -7 -12q1 -3 10 -3q27 2 28 1q2 -2 9 -2q5 2 6 4q1 1 5 -1
q5 -3 6 -9l1 -3l-1 -2q-1 -1 -2 -1q-2 -1 -11 1q-14 1 -20 0q-4 0 -10 1q-5 1 -8 0q-2 -1 -7 -2q-15 0 -19 -3q-3 -2 -6 1q-4 3 -3 7l8 12l8 9q3 0 5 5q3 4 6 7q4 3 4 5q0 1 1 2q2 4 10 18q9 14 8 15l5 12q7 17 7 35t-8 29q-3 1 -10 1q-8 2 -12 -1q-1 -1 -2 0q-3 0 -9 -6
q-5 -5 -5 -11q0 -2 -1 -3q-1 0 -2 2q-6 7 1 17q6 8 18 13q13 4 21 -1q5 -3 7 -1t1 10q-1 10 0 14t7 4q3 1 3 0q2 -1 2 -3q3 -8 3 -10v0z" />
    <glyph glyph-name="three" unicode="3" horiz-adv-x="109" 
d="M81 163q-2 -2 -2 -4t-4 -7q-3 -5 -4 -8q-2 -1 -2 -2q-1 -2 -5 -6q-5 -3 -13 -10q-6 -9 -11 -11q-4 -4 -3 -5t12 -2q14 -1 24 -3q10 -4 21 -11q2 0 7 -7q3 -5 4 -8v-8q-1 -6 -2 -6t-1 -3t-11 -14t-15 -10q-2 0 -4 -2q-1 -3 -2 -3h-3q-2 -3 -32 -7q-6 -1 -10 2t-4 8l-1 3
l12 -1q16 -2 27 1q11 4 22 14q6 6 7 8q2 3 5 10q1 4 0 9t-5 7l-6 3q-5 4 -18 6t-19 2q-6 -1 -10 0q-5 -1 -7 -2q-6 -2 -13 -2q-6 -1 -8 1q-4 4 -1 7q2 2 12 9q7 4 16 11q10 8 10 10l6 7q7 5 9 9q1 3 5 9q8 13 7 22q-2 9 -12 12q-5 1 -11 0q-8 -1 -11 -4q-11 -7 -13 -8
q-4 -2 -6 -1q-4 3 -3 6t8 8q10 8 22 11t22 -2q9 -3 15 -15q3 -13 -1 -23v0z" />
    <glyph glyph-name="four" unicode="4" horiz-adv-x="146" 
d="M74 193q-10 -3 -26 -29q-6 -6 -11 -14q-3 -6 -8 -14l-4 -8q0 -1 -5 -9q-5 -10 -7 -22q-2 -13 1 -17q2 -1 6 -2q5 -1 6 0q0 1 3 1q5 1 22 7q16 6 18 8q1 1 2 12q1 10 0 19q-1 10 0 19q1 8 2 12q3 7 5 1q3 -6 2 -19v-12v-14q1 -10 2 -12t4 0q1 2 9 6q7 4 9 6t6 4q7 3 4 8
t-3 13q0 7 2 9q2 3 7 1q4 -2 4 -6q0 -1 2 -2q2 -2 1 -7q-1 -11 4 -4q5 9 12 9q8 0 8 -8q0 -5 -3 -9q-3 -3 -10 -7q-5 -2 -9 -6q-3 -2 -5 -3h-6q-7 -1 -8 -2q-2 -1 -4 0q-1 0 -4 -3t-8 -7q-7 -3 -8 -3q-3 0 -5 -3q-2 -4 -2 -8v-26l-1 -20l-2 -4q-4 -4 -7 -1q-3 6 -3 19
q0 7 1 9q2 3 3 13q0 12 -2 11q-2 0 -15 -5q-12 -4 -16 -6q-17 -9 -26 -3q-10 6 -9 25q0 11 2 20q3 7 10 18q2 6 5 10q2 3 5 9q2 5 7 13q6 8 7 11q2 3 9 12q6 7 8 12q9 14 20 7q4 -2 4 -5t-5 -4v0z" />
    <glyph glyph-name="five" unicode="5" horiz-adv-x="110" 
d="M29 190q-1 -5 0 -9q1 -3 8 -1q5 3 13 5q9 1 14 2q10 3 14 0q5 -2 -1 -9q-1 -3 -3 -4h-9q-11 0 -12 -2q-4 -1 -8 -1q-3 0 -4 -1t-5 -2q-7 -3 -8 -5q-2 -5 -1 -23q0 -12 1 -15q0 -2 4 -3t10 -5q6 -2 10 -3q5 0 6 -1q2 -2 13 -6q11 -2 20 -5q9 -5 10 -8q5 -8 6 -22
q0 -13 -3 -18q-2 -1 -2 -5l-8 -8q-6 -6 -9 -7q-2 0 -5 -2q-2 -3 -3 -3t-4 -2q-2 -2 -6 -1q-3 1 -36 -1q-7 0 -12 2q-4 2 -5 2q-2 0 -6 6q-4 5 -4 8t-1 4q-2 1 3 1q3 1 5 -1l6 -6q2 -2 4 -2q3 0 5 -1q3 -2 11 -1q9 1 21 1q13 2 15 3l4 2q7 5 12 14q6 11 4 16q-1 4 -1 9
q0 6 -6 9q-1 1 -12 4t-13 3q-1 0 -4 2t-4 2q-2 -1 -14 3q-8 2 -14 4q-7 2 -8 3q-2 1 -2 12t1 22q1 8 2 32q-1 10 -1 16t3 11q5 4 8 1q2 -4 1 -16v0z" />
    <glyph glyph-name="six" unicode="6" horiz-adv-x="98" 
d="M51 195q-2 -3 -3 -6t-2 -3q-1 -2 -15 -42q-2 -6 -5 -11q-2 -5 2 -5q4 -1 12 1q4 1 10 1q17 0 27 -7q10 -6 15 -20q2 -6 3 -13q1 -8 -1 -9q-1 -1 -1 -4q0 -6 -4 -11q-3 -4 -3 -5t-5 -6q-6 -5 -7 -8q-2 -5 -12 -12q-7 -5 -20 -8q-14 -2 -21 0l-8 4q-4 4 -4 5l-2 4
q-2 3 -3 8q-1 6 0 21t2 15q0 1 2 9q1 7 1 8v5v5q0 2 1 5q2 4 6 15t5 16q0 4 1 8q15 32 15 34t3 7q4 5 6 7q8 6 7 -2q0 -4 -2 -6v0zM40 119q-5 -1 -9 -2q-6 0 -7 -2q-2 -1 -3 -14q-1 -5 -2 -8q-3 -9 -4 -11q-1 -5 -1 -14q-1 -16 0 -19t7 -7q2 -3 8 -5q4 -1 5 0q2 1 8 2
q8 1 15 6q5 3 8 4q2 1 4 5q4 4 4 5l4 4q11 16 10 29q-1 9 -7 17q-5 8 -11 8h-2l-5 2q-4 2 -5 2l-7 -1q-6 -1 -10 -1v0zM45 85q1 -3 2 -3h5q7 5 12 5q3 0 5 -5q4 -3 -8 -15q-6 -6 -6 -7t-2 -1q-1 1 -6 0q-9 0 -10 12q-1 4 -2 7q-3 7 -2 12q2 3 9 0q2 -2 3 -5v0z" />
    <glyph glyph-name="seven" unicode="7" horiz-adv-x="93" 
d="M18.5 201.5q14.5 2.5 30.5 3.5q15 -1 23 -4q4 -2 5 -2t5 -2q3 0 4 -2q2 -1 3 -5q0 -4 -2 -6q-2 -6 -4 -14q-3 -7 -4 -8q-2 -3 -6 -15q-2 -10 -2 -15q-2 -6 -2 -10q-2 -3 -2 -4t-1 -6q-3 -6 -2 -9q-1 -3 -4 -14q-4 -16 -6 -23q0 -6 -4 -15q-1 -3 -1 -4q1 -2 0 -6t0 -7
q0 -4 -4 -7q-3 -2 -6 -2q-3 1 -3 8q-1 6 1 9q1 3 1 6q1 6 3 12q2 7 3 11q-1 3 2 9q7 27 8 35q1 4 2 5q1 0 0 3q0 3 1 4q1 0 4 11q3 9 3 12q0 1 1 3q1 4 1 5q-1 5 4 16q2 9 2 10q0 2 -6 4q-20 9 -42 3.5t-21 1t15.5 9z" />
    <glyph glyph-name="eight" unicode="8" horiz-adv-x="104" 
d="M91 202q-1 -1 -1 -3t-2 -5q-1 -5 0 -5q1 -2 6 -2q6 -1 8 -3t1 -6t-2 -4q-2 -1 -6 -4q-2 -2 -6 -4q-5 -2 -7 -2q-1 0 -2 -1l-1 -2q-1 0 -3 1l-4 1q-1 -1 -3 -10q-3 -9 -6 -13q-2 -2 -2 -3t-2 -3q-1 -1 -5 -6l-5 -6l3 -2q8 -7 13 -16q5 -10 9 -25.5t-3 -31.5q-1 -3 -8 -11
q-8 -8 -10 -8h-2q-1 -1 -5 -2q-4 0 -5 -1q-1 -2 -9 1q-9 3 -14 10q-6 6 -10 19q-4 14 -1 22q2 5 2 6q0 3 2 7q8 12 11 15q7 7 6 12q0 4 -8 10q-8 3 -11 13q-2 3 -3 6q0 2 2 9l2 8q0 6 2 9v2q0 3 5 9t8 9q5 3 5 5h3h2q5 7 18 7q12 0 16 -6q4 -5 5 0q1 7 10 10q3 1 6 -2t1 -4
v0zM45 194q-1 0 -4 -2q-1 -3 -5 -3q-7 -3 -12 -15q-5 -10 -7 -24q0 -5 2 -9q3 -4 5 -4q1 0 5 -4q6 -5 9 -5q2 0 6 3q2 5 5 9q4 3 5 4q0 2 2 6q2 1 2 6q1 4 2 6q1 1 -1 3q-2 1 -2 5q0 3 1 4q2 3 4 7q1 4 1 5q4 3 -3 7q-6 4 -12 2q-2 -2 -3 -1v0zM35 105l-2 -3q-3 -5 -8 -12
q-7 -9 -7 -22q-1 -11 5 -20q5 -10 14 -12q7 0 15 5q7 5 11 11q4 7 -1 22.5t-6 19.5q-1 3 -1 4q0 2 -4 6q-3 1 -3 3q0 1 -2 2q-3 2 -5 2q-1 0 -3 -3l-3 -3v0z" />
    <glyph glyph-name="nine" unicode="9" horiz-adv-x="88" 
d="M65 176q-2 0 -3 3t1 4v5t-1 5q-3 4 -9 3t-10 -6q-3 -2 -4 -2t-5 -4q-5 -4 -5 -5t-2 -4q-4 -2 -6 -9q-3 -6 -4 -7v-1q0 -2 -1 -4q-5 -7 -3 -14q2 -6 9 -7q5 -1 7 0q1 1 3 1t4 2q3 1 5 2q4 1 12 10q10 9 10 11q0 1 1 4q2 2 4 5q2 2 3 5q3 5 6 8q5 3 7 -1q3 -4 -1 -12
q-5 -8 -7 -20q-1 -5 -2 -6q0 -1 -1 -5t-2 -9q-5 -16 -6 -23q-1 -4 -2 -12q-1 -9 -1 -11q0 -4 -1 -5q-2 -1 -2 -7q-1 -7 -4 -22q-3 -14 -2 -15q0 -1 -2 -3q-3 -4 -4 -4q-2 0 -4 2q-2 3 -2 4t-1 4q-3 6 1 9q3 3 5 15q1 8 4 18q2 11 2 16q0 6 6 24q5 22 5 23q-1 1 -5 -1l-5 -5
q-1 -6 -13 -9q-11 -5 -18 -4q-7 2 -12 4q-4 2 -6 9l-3 5l1 7q2 9 4 13q3 4 5 8t3 5l2 1q0 2 2 4q3 2 3 4q0 3 10 11q10 7 16 10q13 5 19 -3q7 -6 7 -15q-1 -9 -8 -9v0zM46 173q5 3 8 1q4 -1 3 -6q-1 -4 0 -5l-4 -5q-4 -3 -6 -3t-3 -2q-6 -6 -9 5q-1 5 -3 6q-2 2 -1 5
q1 5 2 6q2 0 6 -1l3 -3q1 0 4 2v0z" />
    <glyph glyph-name="colon" unicode=":" horiz-adv-x="61" 
d="M49 147q7 -7 3 -10q-3 -3 -13 2q-6 4 -8 4t-3 2q-1 1 -4 1t-5 2q-2 1 -2 4q0 4 3 4q2 1 14 -2q7 -1 9 -2t6 -5v0zM35 90q1 -1 3 -1t4 -1l6 -3q6 -2 5 -6q-1 -3 -8 -2q-4 0 -8 1q-9 0 -17 4q-8 3 -8 7q0 9 17 4q4 -1 6 -3v0z" />
    <glyph glyph-name="semicolon" unicode=";" horiz-adv-x="54" 
d="M45 149q-1 -3 -2 -3q-2 -1 -6 1q-4 1 -7 1t-7 3q-3 3 -3 5q0 7 4 5h7q6 -1 11 -5q5 -3 3 -7v0zM38 65q-3 -4 -3 -5q0 -4 -9 -13q-9 -10 -13 -10q-6 0 -1 6q7 7 12 19q2 6 3 7q4 8 -1 18q-3 5 -2 9q0 4 3 4l3 -1q9 -3 12 -14q2 -10 -4 -20v0z" />
    <glyph glyph-name="less" unicode="&#x3c;" horiz-adv-x="99" 
d="M62 155q-6 -6 -11 -13q-4 -7 -15 -18q-9 -11 -11 -14q-1 -4 5 -7q3 -1 6 -4q3 -2 11 -6t9 -4q4 0 16 -7q13 -8 15 -11q2 -5 0 -8q-3 -3 -8 0q-9 6 -19 10q-6 2 -10 5q-4 2 -5 2q-2 0 -9 5q-7 4 -9 4q-1 0 -5 3q-3 3 -5 3q-8 0 -9 6t7 13q5 5 7 8q1 3 7 12q7 8 11 12
q4 5 7 10q7 11 14 16t10 2q5 -5 -9 -19v0z" />
    <glyph glyph-name="equal" unicode="=" horiz-adv-x="108" 
d="M101 131q-1 -2 -4 -2t-6 2q-1 1 -10 0q-8 0 -20 -1q-25 -1 -36 0q-11 2 -11 8q0 1 1 2t8 1q4 0 24 1q31 0 31 1q1 1 8 0t10 -2q8 -4 5 -10v0zM101 96q3 -8 -7 -5q-8 3 -25 0q-16 -2 -34 -2l-16 -1l-3 2q-3 4 0 8t9 3q3 -1 23 1t25 2q6 0 7 1q3 2 13 -2q5 -3 7 -3
q1 -1 1 -4v0z" />
    <glyph glyph-name="greater" unicode="&#x3e;" horiz-adv-x="97" 
d="M23 180q3 -2 5 -4q2 -1 11 -8q20 -15 23 -15q2 -1 10 -7q14 -11 16 -14q3 -4 0 -6q-2 -3 -11 -14q-9 -10 -17 -19q-9 -8 -11 -11q-6 -7 -17 -17t-12 -10q-9 0 -6 6t19 22q15 15 18 19t7 10q5 6 5 8q0 1 4 4q4 4 2 7q-2 4 -11 9l-8 6q-3 3 -9 6t-9 6q-2 3 -4 3t-3 1
q0 1 -3 3q-4 3 -8 7q-3 5 -2 7q0 4 1 4q0 1 2 1q1 -1 3 -1t5 -3v0z" />
    <glyph glyph-name="question" unicode="?" horiz-adv-x="96" 
d="M87 176q4 -6 3 -13t-7 -22q-4 -10 -6 -14q-1 -4 -3 -6q-1 -2 -1 -3t-5 -8t-8 -12q-2 -4 -6 -9q-3 -5 -3 -6q0 -3 -4 -7q-5 -4 -8 -5q-8 -2 -9 3q-2 6 5 11q9 6 15 18q3 7 7 11q5 8 11 23t8 23q1 8 -4 17t-12 11q-2 1 -3 2q-2 1 -9 1q-8 -1 -10 -2q-1 -2 -6 -2
q-4 -1 -5 -2l-4 -4q-3 -5 -7 -6q-4 0 -4 5q0 2 5 7q5 6 7 7q3 0 6 3q3 2 4 2q2 0 3 2q3 3 12 3q8 -1 16 -5q12 -6 22 -23v0zM52 23q-2 0 -3 1q-1 0 -4 3q-4 4 -4 9q1 4 7 5l5 -4q6 -5 5 -9q0 -3 -6 -5v0z" />
    <glyph glyph-name="at" unicode="@" horiz-adv-x="166" 
d="M85 199q7 0 21 -3l10 -2q9 -1 17 -9q5 -4 10 -9q17 -15 8 -59q-3 -12 -2 -13q0 -2 -4 -12q-5 -11 -5 -14q-1 -3 -5 -7q-3 -4 -3 -6t-8 -12q-9 -9 -10 -9t-5 -3q-4 -2 -7 -2q-2 1 -5 0q-6 -4 -20 -6q-13 -2 -14 0q-1 1 -3 0q-3 0 -5 1t-9 2q-6 0 -11 3q-4 3 -6 4
q-3 1 -7 6q-5 6 -7 10q-3 5 -3 28q-1 24 1 28q1 2 1 4q0 3 1 4q1 0 1 4q0 3 1 8q1 6 2 7q2 2 3 6q1 5 3 8t2 5t5 10t9 12q9 9 22 15q12 5 15 2q1 0 7 -1v0zM73 185q-5 -1 -8 -3q-2 -2 -5 -2q-2 -1 -5 -3q-2 -3 -5 -3q-1 -1 -5 -6q-3 -5 -5 -9q-1 -3 -3 -8q-2 -4 -3 -8
q0 -3 -2 -6q-1 -3 -1 -5t-2 -8q-2 -5 -2 -17v-12l3 -5q3 -4 3 -6t-3 -4t-3 -9q0 -6 4 -11q3 -3 3 -4t7 -4t11 -3q15 -2 31 -1q16 2 21 6q2 2 6 4q6 3 9 9t-3 4q-7 -2 -9 15q-1 18 -7 10q-4 -7 -15 -16q-12 -10 -14 -9q-5 1 -11 5q-6 5 -6 7q0 1 -2 3q-1 2 -1 13q0 10 1 16
q2 5 3 9q0 4 4 9q3 5 3 6t8 8t12 9q8 5 16 4q7 -1 10 -8t2 -8q-1 -2 0 -2q1 -1 3 0q7 4 8 -2q2 -6 -1 -22q-2 -7 -1 -18t2 -13q2 -1 6 -1q4 -1 4 0q1 2 3 8q9 29 9 50q-1 21 -11 29q-5 4 -15 8q-11 4 -13 3q-1 -1 -4 1q-3 1 -11 1q-9 1 -9 0q-1 0 -7 -1v0zM63 99
q-1 -10 5 -10q6 -1 15 7q10 8 19 23q6 8 1 12l-3 3v6q2 13 -9 8q-12 -6 -20 -19q-8 -14 -8 -30v0z" />
    <glyph glyph-name="A" unicode="A" horiz-adv-x="147" 
d="M124 192q0 -3 5 -1q8 5 11 4q4 -1 6 -9q1 -4 -2 -7q-4 -3 -12 -5q-4 0 -8 -3q-3 -7 -7 -5q-4 3 -4 9q-1 5 -3 11q-3 8 -4 11q0 2 3 5q1 2 5 2q4 -1 6 -2q1 -1 2 -5q2 -4 2 -5v0zM58 196q0 -2 2 -2q5 0 16 -13q11 -12 13 -21q1 -4 2 -5t3 -7q1 -6 2 -8q1 -1 2 -9
q1 -6 3 -9t3 -4q0 -1 -1 -3q-2 -3 -1 -11q1 -9 2 -11t1 -12q1 -9 2 -11q1 -4 1 -13q0 -11 1 -11q3 -5 1 -13q-3 -8 -8 -8q-3 1 -4 5q-1 6 -1 18q-1 15 -2 23q-1 6 -1 7q1 2 0 9q-2 7 -3 10t-2 5h-3q-7 0 -3 4q2 3 1 4q-1 0 -6 -1q-16 -3 -37 -4h-11l-1 -6q-1 -4 -1 -7
q0 -4 -3 -10q-2 -6 -4 -18q-4 -17 -4 -24q-1 -8 -3 -11q-6 -6 -9 -1q-3 6 0 17q1 3 3 14q2 15 5 23q3 5 3 7t2 10q1 8 2 9q1 0 1 4q0 3 1 4q1 0 2 3q0 4 2 11l6 30l2 8l2 6q1 2 3 8q2 12 2 15t3 3q4 0 5 1q3 2 6 -1t3 -4v0zM49 173q-4 -12 -5 -13t-2 -7t-2 -11
q-6 -22 -6 -24q1 -1 19 0q16 1 28 3l6 2l-1 4q0 11 -2 13q-1 2 -1 3t-3 9q-4 7 -4 8q0 2 -1 4l-4 8q-1 2 -7 7q-4 7 -5 7l-4 -1q-2 0 -3 -3q0 -2 -3 -9v0z" />
    <glyph glyph-name="B" unicode="B" horiz-adv-x="122" 
d="M45 194q9 -5 11 -7q3 -2 7 -4t7 -7q2 -3 3 -3q2 0 4 -8q3 -8 3 -11t-3 -9q-2 -6 -4 -9q-2 -4 -7 -11q-4 -8 -8 -11q-3 -4 -2 -5q1 0 10 -1q9 0 14 -1q5 -2 12 -5q9 -5 11 -7q2 -1 3 -1q1 -2 3 -2q1 0 3 -3q2 -2 2 -4t3 -4q4 -3 1 -14q-5 -11 -12 -17l-3 -2q0 -1 -3 -3
q-2 -1 -7 -5q-4 -2 -5 -2t-1 -2q-1 -1 -3 -1t-5 -3q-2 -3 -7 -4q-5 0 -7 -1q-1 -1 -14 -1q-8 1 -11 2q-2 2 -2 7q0 2 1 3q2 1 9 0q18 -3 30 4q23 17 27 25q5 9 -5 18q-2 3 -7 6t-6 3l-4 2q-6 2 -8 1q-3 -1 -6 0q-2 1 -8 0t-10 -3t-5 -2t-4 -2q-2 -1 -3 -3q-2 -3 -6 -2
q-3 2 -4 8l-2 3l2 2l6 4q6 3 12 15q3 3 5 7q10 13 13 24q5 9 1 14q-2 1 -2 4q-2 4 -5 6q-2 2 -6 4q-4 4 -11 7q-4 3 -7 4q-10 5 -12 4q0 -1 -2 -14q-1 -13 0 -17t0 -10q-2 -11 -2 -48q-1 -22 -1 -31v-12q1 -2 2 -11v-10l-3 -2q-8 -8 -11 -1q-2 5 1 94q3 43 1 57q-2 9 7 15
q8 7 14 1q4 -3 16 -8v0z" />
    <glyph glyph-name="C" unicode="C" horiz-adv-x="137" 
d="M27 167l-2 -3l-5 4q-4 2 -8 5q-4 1 -8 5t-4 6t5 3t8 -1h6q1 0 2 4q1 9 6 13q6 4 10 -3q5 -5 2 -17q-3 -11 -12 -16v0zM101 185q0 -6 -1 -7q-2 0 -4 2t-2 5q0 2 -4 6q-5 4 -8 5q-7 1 -16 -9q-9 -8 -9 -14q0 -1 -3 -5t-3 -5q0 -2 -3 -8q-8 -18 -11 -38q-2 -17 -3 -20
q-1 0 0 -15q1 -14 2 -22q3 -7 8 -12q1 0 4 -3t4 -3t4 -2t7 -2q5 0 6 2q1 1 3 1q3 0 8 2q5 4 5 5h3t17 16q15 15 15 17q0 1 5 2q4 1 7 -1q5 -3 -5 -11q-6 -5 -6 -6t-3 -4q-1 -2 -3 -2q-2 -1 -2 -2t-4 -6q-4 -4 -7 -6q-2 -2 -8 -7q-4 -3 -5 -3t-3 -2q-2 -3 -4 -3t-7 -3
q-4 -2 -11 -2t-10 1q-2 2 -4 2t-4 3l-4 3q-1 0 -6 5q-6 7 -7 9q-7 15 -5 49q1 35 12 55q2 5 4 11q1 5 5 11q3 8 5 12q2 2 2 3q1 2 7 6q5 4 11 7q5 3 9 3q3 0 9 -3q7 -4 9 -6q3 -3 4 -11v0z" />
    <glyph glyph-name="D" unicode="D" horiz-adv-x="110" 
d="M24 202l4 -3q2 -2 10 -4q7 -3 8 -3q3 0 11 -4q3 -2 4 -2q2 0 20 -14q15 -9 19 -21q2 -5 3 -8q3 -4 1 -15t-5 -17q-2 -3 -3 -6q0 -3 -6 -13q-3 -6 -3 -7t-2 -5q-2 -6 -4 -8q-4 -2 -4 -3q0 -2 -2 -3t-2 -2q0 -2 -5 -7q-4 -6 -5 -6q-2 0 -4 -3q-3 -3 -11 -12q-7 -8 -9 -8
t-3 -1t-3 0q-15 -3 -19 1l-6 5v6q-1 9 -1 33v20q0 12 2 16q0 5 -1 9t-1 16v14v6q0 6 -2 20l-2 13l1 2q3 4 9 1l4 -3l1 -26q1 -28 2 -29q-1 -1 -1 -10v-17q-1 -16 0 -42q0 -6 1 -10q2 -4 1 -6q-2 -2 0 -7q0 -3 3 -3q2 0 8 2l4 2q2 0 14 13q13 13 14 16q1 2 6 7q10 15 14 28
q1 1 3 8q3 5 4 7q3 8 1 18q-1 11 -5 14q0 2 -4 6q-2 4 -7 8q-7 5 -9 5q-1 0 -2 2q-2 4 -7 4q-2 0 -3 2q-2 4 -17 8q-6 1 -12 3q-5 4 -10 6q-9 4 -7 8q1 2 5 3q3 0 5 -2q4 -3 5 -2v0z" />
    <glyph glyph-name="E" unicode="E" horiz-adv-x="127" 
d="M66 165q-2 -2 -2 -6q-1 -4 -4 -11q-2 -8 -2 -10q1 -3 -1 -6q-4 -6 0 -8q3 -1 20 3q7 2 9 1q2 0 4 -1q3 -3 2 -6q-2 -4 -6 -4q-2 1 -5 0q-4 -2 -10 -2h-10q-6 -1 -8 -2q-1 -2 -3 -2q-2 -1 -2 -4q-5 -10 -7 -13q-1 -1 -1 -3t-3 -4q-2 -2 -2 -4q0 -1 -1 -3q-6 -10 -6 -12
q0 -1 -2 -3q-1 -2 -2 -7q-2 -6 -4 -13q-2 -6 -2 -7q1 -1 5 0q14 2 20 2q2 1 3 0q1 1 4 2q4 0 8 1q4 2 14 3q11 2 14 2q4 0 12 1q7 2 8 2t0 2q0 5 9 2q8 -4 9 -8q1 -5 -8 -4q-5 0 -9 -1q-3 -1 -11 -2q-14 0 -27 -4q-11 -4 -21 -5q-4 1 -10 -2q-4 -1 -8 -1t-4 -1q-1 -1 -2 0
q-1 0 -5 -2q-5 -1 -10 1q-6 4 -6 9q0 4 6 15q4 7 5 9q0 3 3 9q3 7 6 12q2 4 4 10q5 10 8 18q1 3 2 4v3q0 1 1 2q2 3 5 10q2 7 4 11l2 8q0 4 2 10q10 31 -2 32q-3 0 -5 3q-2 1 -4 0q-3 -1 -12 0q-10 0 -13 2q-2 2 -3 4q-1 3 1 6q1 1 14 -1q15 -2 24 -4q13 -1 17 -11
q3 -8 -2 -22v0z" />
    <glyph glyph-name="F" unicode="F" horiz-adv-x="106" 
d="M52 197h18q4 0 5 -5q1 -3 1 -4t-5 -2q-7 -1 -17 -22l-4 -8q-1 -1 -1 -3q0 -1 -1 -2q-2 -4 -5 -13l-2 -8q0 -3 -1 -7q-4 -8 -2 -11q0 -2 5 -1t11 2q7 1 10 3q3 1 7 1q4 1 13 3q8 2 12 2q3 0 5 -2q3 -3 3 -5q-2 -2 -6 -4h-13q-9 -1 -9 -2l-12 -3q-11 -3 -17 -4q-3 0 -6 -2
q-3 -1 -5 -1q-3 0 -4 -1q-1 -2 -3 -12q-3 -11 -3 -14q0 -1 -1 -7q-1 -5 -3 -6q-1 -1 -1 -5q0 -3 -1 -6q-2 -4 -1 -12q0 -7 -3 -11q-4 -3 -7 0q-2 2 -2 10q-1 7 0 9t2 6q1 5 4 10q2 7 2 11q0 2 1 2q1 1 0 5q1 4 2 9q1 7 2 10q3 10 6 18l2 6q0 4 2 8q1 5 3 11q1 5 2 6
q1 2 4 11t5 10q1 1 1 3q0 1 5 8l3 8l-10 1q-24 3 -25 2q0 -1 -2 0q-1 1 -5 1q-5 2 -8 6q-2 4 2 7q2 2 4 2t8 -3q16 -5 35 -5v0z" />
    <glyph glyph-name="G" unicode="G" horiz-adv-x="132" 
d="M76 175q-1 -5 -4 -3q-4 2 -2 8q1 2 1 3q-1 2 -3 4q-5 8 -10 7q-5 -2 -16 -14q-3 -3 -3 -4t-2 -6q-4 -4 -4 -6q0 -1 -1 -2q-2 -2 -3 -9q-1 -5 -3 -9q-1 -5 -6 -21q-3 -17 -3 -18v-4q-1 -3 0 -18q0 -13 2 -22q0 -4 3 -10t3 -7q0 -2 4 -5t8 -3q8 -1 17 6q10 6 18 17q3 3 7 9
q5 5 7 9q2 5 8 12q7 8 5 11q-1 3 -13 2q-10 0 -10 4q0 3 4 4q3 1 13 2q11 1 12 2q2 1 10 6t15 2q6 -3 7 -9q0 -1 -4 -3q-4 -4 -5 -4q-2 0 -7 -2q-5 -4 -5 -9q-2 -5 -2 -21q1 -11 0 -12q0 -1 2 -13v-17l-1 -3q-6 -4 -10 2q-3 6 -1 15q1 3 0 12q0 15 -1 22q-1 8 -5 2
q0 -3 -7 -11q-5 -8 -5 -9q0 -2 -1 -3q-3 0 -8 -7q-4 -7 -7 -8q-2 -1 -3 -4q-1 -2 -3 -3t-5 -5q-4 -3 -5 -3t-3 -3q-4 -1 -11 -1q-6 0 -10 1q-24 10 -24 57q-1 13 0 24q0 12 2 14q1 2 1 6q1 3 3 6q1 4 1 5t4 10q2 11 3 11q1 1 1 4q0 1 3 10q5 7 7 10q3 5 8 10q3 6 6 7
q4 1 6 3q5 4 12 1q8 -1 12 -12q5 -11 1 -17v0z" />
    <glyph glyph-name="H" unicode="H" horiz-adv-x="138" 
d="M113 207q0 -3 1 -3q1 -1 3 2q1 2 6 5q6 3 8 3q7 0 8 -5q0 -5 -4 -11q-25 -24 -25 -28q-1 -13 1 -24q0 -6 -1 -7q-1 -2 -2 -15v-53q0 -26 -2 -33q0 -10 -1 -12q-1 -1 -4 -1q-5 0 -9 4q-7 6 -7 8q0 9 5 2q3 -3 3 -2q1 0 1 7q1 4 1 18q0 26 1 43q1 16 0 19q0 3 -2 1
q-4 -3 -27 -2q-10 0 -12 -1t-8 -1q-3 0 -9 -1q-8 -2 -14 -2q-3 0 -5 -15q-3 -15 -1 -54q1 -15 -1 -19q-4 -4 -7 -3q-6 2 -6 7q-1 10 1 54q4 30 0 32q-1 0 0 2q3 6 3 35v33q0 8 2 10q1 3 4 3q5 0 7 -6q1 -8 0 -34v-23v-13q1 0 5 1t9 1q7 0 12 2q5 1 25 2q21 2 23 0q3 0 3 26
q0 18 -3 25q0 2 1 5q2 2 1 3q0 1 -1 5q-6 10 -1 18q6 8 14 3q2 -1 4 -5q1 -4 0 -6v0z" />
    <glyph glyph-name="I" unicode="I" horiz-adv-x="30" 
d="M22 186q0 -24 1 -35q0 -6 -4 -97q-1 -4 1 -13l2 -10l-2 -3q-3 -3 -6 -1q-2 2 -7 12q-1 2 -1 13l5 96q0 36 -1 38q-1 0 0 2t1 7q0 6 2 8q3 3 7 -1q2 -2 2 -5v-11v0z" />
    <glyph glyph-name="J" unicode="J" horiz-adv-x="88" 
d="M82 191q-5 -1 -4 -2q-1 -1 -4 0q-4 3 -4 -8q3 -43 3 -51q-1 -3 0 -15q1 -17 -1 -32q-2 -11 -2 -17q-1 -10 -3 -17q-1 -1 -1 -4t-6 -9q-4 -8 -25 -11q-16 2 -28 20q-8 13 6 3q25 -15 34 -8q9 8 9 13q1 4 2 6q1 4 3 20q0 5 2 12q2 28 -4 91q-1 9 -3 12q-1 1 -6 0h-12
q-10 0 -17 -2q-4 -2 -12 0q-7 1 -9 4q0 2 2 2q2 3 5 2q3 0 13 2l12 2q24 1 33 0q8 -2 13 -2q3 1 6 0l2 -2q2 -3 1 -6q-2 -1 -5 -3v0z" />
    <glyph glyph-name="K" unicode="K" horiz-adv-x="98" 
d="M21 198q-1 -3 -1 -4q1 -1 1 -6q-1 -4 1 -16q1 -21 1 -43q-1 -3 0 -3q1 -1 4 2q2 5 7 12q5 3 9 11q5 7 7 11q0 2 8 10l12 9q9 4 11 0q1 -5 -7 -10q-9 -5 -13 -11q-6 -8 -8 -10t-2 -5q0 -2 -4 -6q-5 -4 -7 -9q-4 -5 -10 -13l-5 -7q0 -1 -3 -5q-2 -5 -2 -7t3 -3l6 -3
q3 -2 11 -6q8 -3 9 -4l3 -2t4 -2t4 -1q2 -2 11 -5q11 -2 14 -3q3 0 6 -4q3 -3 1 -6q-2 0 -5 -1q-2 0 -4 1q-2 2 -4 2q-2 -1 -8 2q-6 2 -7 2t-6 2t-8 3l-10 5q-5 2 -9 3q-10 4 -11 4q-2 0 -2 -9q-1 -13 0 -15q0 -3 1 1q3 4 4 0q2 -1 1 -6q-2 -3 -1 -5q0 -1 -1 -4q-2 -3 -2 -8
t-3 -9l-3 -4l-4 2l-4 1v8q-1 8 0 30q1 7 2 18q-1 12 -1 13q-1 2 1 5q1 2 2 15q2 13 1 20q1 6 0 22q-1 31 0 39q0 6 5 8l2 2l2 -2q2 -3 1 -6v0z" />
    <glyph glyph-name="L" unicode="L" horiz-adv-x="116" 
d="M24 193q-2 -4 -2 -15q-1 -11 -2 -21q-2 -10 -2 -40q0 -10 -1 -19q-2 -34 -1 -44q0 -11 6 -13q8 -3 21 -4q12 0 16 3q2 2 2 1q1 0 9 3t9 4q2 1 2 11q0 9 1 12t5 3q2 0 4 -3q3 -5 3 -8q0 -5 4 -2q2 2 7 3t7 0q3 -3 2 -6q-1 -5 -5 -9q-4 -3 -6 -7q-5 -8 -10 -11q-4 -2 -6 3
q-2 2 -4 2h-5l-6 -3q-2 -2 -3 -2q-2 0 -4 -1q-2 -2 -9 -3q-6 -1 -13 -2h-11q-8 1 -15 3q-5 2 -8 3q-2 1 -3 9t0 31q1 17 1 44q2 46 2 48q1 4 1 17q0 11 1 14t4 6q2 3 5 4q2 1 4 -1q1 -3 0 -10v0z" />
    <glyph glyph-name="M" unicode="M" horiz-adv-x="169" 
d="M40 198q0 -1 2 -6t5 -13q15 -42 15 -48q1 -4 2 -10q2 -5 2 -7q1 -1 4 -11q2 -9 4 -13q0 -4 1 -9q0 -8 3 -11l2 1q1 2 1 3q0 2 24.5 60t26.5 60q1 3 1 4q1 2 4 3q2 0 4 -1q3 -2 4 -10q3 -6 5 -23q0 -5 1 -6q0 -1 3 -30l8 -71q-1 -10 2 -15q5 -13 -1 -18l-3 -2l-4 4l-3 4
l-2 17q-1 18 -3 29q-5 32 -6 48q-1 24 -4 39q-2 14 -7 1q1 -7 -18.5 -50t-23.5 -51q1 -3 -3 -10q-4 -8 -7 -8q-4 0 -7 8q-3 6 -6 15q-1 10 -4 23q-4 12 -8 25q-3 14 -4 19q-3 4 -8 22t-7 19l-2 -12q-3 -12 -5 -23q-1 -22 -4 -30q-1 -6 -1 -12l-2 -12t0 -10q0 -4 -1 -4
q-2 -2 -3 -21q0 -18 -1 -22q-2 -3 -2 -4q0 -4 -4 -4t-5 1q-2 3 -2 7t3 17v9q0 1 2 16t2 21q2 9 6 32q3 17 4 34q0 5 1 6q0 1 1 8q4 34 15 26q3 -2 3 -4v0z" />
    <glyph glyph-name="N" unicode="N" horiz-adv-x="151" 
d="M47 198q-3 -6 -2 -9q0 -3 -2 -3q-4 0 -5 -1v-3q0 -3 1 -2q1 0 34.5 -56.5t35.5 -58.5q3 -2 4 3q0 2 3 7v7l11 47.5t12 51.5v7q-2 9 4 9q9 1 5 -16q-2 -10 -18 -98q-2 -3 -1 -4q0 -1 -1 -4q-3 -9 -5 -18q-3 -15 -12 -11q-7 2 -75 121l-6 5l-1 -3q0 -3 -1 -9q0 -6 -1 -104
q2 -16 2 -20q1 -7 -1 -9q-1 -1 -4 -2q-5 0 -7 2q-2 3 -2 12q-1 10 -2 29q3 89 4 104q0 12 -1 14t-7 9q-6 4 -5 10q1 4 6 5q4 2 10 -1l4 -4l6 8q6 7 8 8t7 -1q7 -6 2 -22v0z" />
    <glyph glyph-name="O" unicode="O" horiz-adv-x="154" 
d="M133 184q0 -2 2 -5q7 -6 4 -27q-3 -15 -3 -18q-2 -3 -5 -12q-1 -5 -2 -5q-1 -1 0 -7q-1 -5 -2 -6t-2 -6q0 -5 -3 -9q-2 -4 -8.5 -13.5t-6.5 -10.5l-5 -5q-3 -4 -6 -6q-2 -1 -11 -9q-13 -13 -17 -13q-1 0 -3 -1q-3 -2 -7 -2q-3 -1 -13 -3l-8 -1l-5 3q-12 5 -18 19
q-5 12 -8 30q-2 19 -1 27.5t3 19.5q1 10 2 12q6 16 14 33q20 30 66 35q14 2 21 -1q4 -2 14 -9q8 -8 8 -10v0zM94 197q-8 -1 -10 -2q-3 0 -5 -2t-16 -9t-20 -14t-9 -7q-1 0 -5.5 -8.5t-4.5 -12.5q-1 -2 -3 -7q-2 -4 -2 -14q-2 -10 -3 -24q1 -10 2 -14t1 -7q1 -7 2 -16
q2 -7 3 -8l1 -2q1 -2 4 -5t5 -4q8 -4 22 1q14 4 24 12q9 8 19 20q11 12 13 17l4 8q6 20 8 24q1 5 1 6v3q5 8 6 23q2 17 -1 19q-2 2 -5 7q-1 5 -10 11q-5 5 -6 5h-2h-13v0zM135 64q1 -6 5 -2q3 4 6 4q2 -1 5 -3l5 -4q0 -4 -5 -10q-5 -5 -9 -7t-5 -5q-1 -1 -4 -3q-4 -3 -6 -3
q-3 -1 -7 9q-2 9 -1 18q0 6 6 10l8 1q2 -1 2 -5v0z" />
    <glyph glyph-name="P" unicode="P" horiz-adv-x="104" 
d="M98 146l-3 -6q0 -1 -2 -2q-2 -3 -2 -4q0 -4 -13 -17t-18 -15q-6 -2 -11 -8q-3 -2 -6 -3t-9 -4q-7 -5 -11 -5q-3 0 -3 -1q-1 -2 2 -43q-1 -13 -6 -13q-2 -1 -6 1t-3 5q0 2 -0.5 29t-0.5 39q2 27 0 63v22q0 4 2 6q9 18 45 14q15 -1 28 -10t17 -22q5 -14 0 -26v0zM22 185
q1 -4 0 -8q-2 -13 -2 -32q1 -30 -1 -33q-1 -1 0 -7q0 -3 1 -4t1 -4q1 -3 2 -3t8 3t10 6q3 2 9 4q4 3 7 6q5 4 7 4q9 7 21 33q3 8 2 17q-1 8 -8 14q-4 3 -4 5l-4 2q-4 3 -6 3h-2q-2 2 -15 4q-13 1 -16 -1q-7 -3 -8 -5q-2 -1 -2 -4v0zM66 140q-4 -6 -8 -6l-6 -4q-2 -2 -6 -1
q-3 2 -5 10q-1 7 -2 8t-1 4q0 6 4 5q6 1 8 -4l2 -3q1 0 2 2q3 5 8 7q3 3 6 2q7 -3 7 -7q-1 -3 -9 -13v0z" />
    <glyph glyph-name="Q" unicode="Q" horiz-adv-x="123" 
d="M116 165q0 -8 -1 -20q0 -12 -1 -13v-4v-6q-1 -3 -1 -8q-1 -5 -4 -11q-1 -7 -3 -16q-3 -10 -4 -13q-1 -2 3 -6q8 -2 13 -5q6 -3 7 -4q2 -7 -2 -9q-7 -1 -20 6q-6 3 -8 3t-9 -11q-10 -12 -13 -12q-3 -1 -5 -3q-5 -6 -17 -7q-13 -1 -22 0q-11 4 -12 10q-1 0 -3 2q-4 3 -7 17
q-3 13 -3 28q1 7 1 14q0 8 1 15l4 16q0 7 3 20q4 15 7 26.5t11.5 17t13.5 6t16 3.5q10 3 15 3q4 1 9 0q13 -4 21 -14q9 -10 10 -25v0zM50 185q-6 -4 -11 -7l-5 -4q0 -1 -2 -6q-3 -5 -3 -6t-2 -17q-4 -14 -5 -19v-8q-1 -8 -3 -22v-25q1 -11 2 -14q-1 -2 0 -2q1 -1 1 -4t3 -4
l4 -4q0 -3 5 -5t10 -2t15 6q10 4 13 7q3 2 8 8q5 5 4 7q1 2 -3 5q-5 4 -14 17q-2 6 -5 8q-12 7 -10 11q3 4 15 -2q13 -6 13 -11q0 -1 5 -8l6 -6l4 7q3 7 3 8q-1 2 2 9q3 9 4 24q1 4 1 10q4 16 0 30q-2 9 -4 14q-3 2 -10 7l-9 8l-8 -2q-7 -1 -12 -3q-4 -3 -12 -5v0z" />
    <glyph glyph-name="R" unicode="R" horiz-adv-x="124" 
d="M31 199q8 4 26 6q17 1 27 -2q12 -2 21 -9q10 -8 12 -15q0 -5 1 -6q1 0 1 -12q1 -12 0 -15t-1 -6q0 -2 -3 -9q-4 -5 -6 -8q-1 -1 -1 -2q0 -2 -2 -5q-3 -3 -3 -4t-5 -7q-3 -6 -5 -7t-5 -4q-3 -1 -7 -7q-5 -5 -7 -5q-1 0 -3 -1q-1 -3 -4 -4q-2 0 -8 -4q-5 -4 -8 -4
q-8 -3 -3 -7q2 -2 7 -3q5 -3 8 -3q3 -1 24 -9q10 -4 21 -5q8 0 11 -4q3 -2 0 -7q-4 -2 -10 -2t-9 2l-4 2q-1 0 -3 1q-1 1 -14 5.5t-24 7.5q-5 1 -9 2q-15 6 -24 4l-4 -1l-1 -11q1 -10 -1 -13q0 -3 -5 -5q-6 -2 -7 5q-1 8 0 26q3 30 4 64q0 13 1 29q2 15 3 20q-1 6 0 7t1 8
q-1 11 3 16q3 7 9 2q2 -1 2 -2q1 0 4 1v0zM46 193q-7 -1 -8 -2q-1 -2 -7 -2q-4 -1 -5 -2q-1 -2 -2 -12q-2 -42 -3 -60q-1 -11 0 -14q0 -2 -1 -6q-2 -8 -2 -20q1 -4 5 -6q5 -2 10 1q5 1 13 6q6 4 7 5q0 1 7 4q7 5 17 13q9 8 14 15q10 15 10 17t2 4q2 3 2 5t1 3t2 9v12
q0 5 -3 13q-4 10 -6 10q-1 -1 -5 3q-8 5 -26 6q-13 0 -14 -1q-1 0 -8 -1v0zM82 134l-2 -6q0 -1 -6 -8q-6 -6 -6 -7q0 -2 -2 -4t-4 -2q-3 0 -9 5t-6 7q-1 1 -2 4q-6 8 -5 16q-1 5 4 4q5 0 11 -8q4 -5 6 -5q1 0 2 6q3 4 7 8q3 2 5 2q1 1 4 -1q4 -2 5 -5q0 -2 -2 -6v0z" />
    <glyph glyph-name="S" unicode="S" horiz-adv-x="98" 
d="M47 201q-3 -5 -2 -5q2 -1 7 -1q21 2 32 -12q9 -14 4 -20q-3 -5 -6 -4q-2 2 -2 7q0 4 -4 9q-4 8 -7 11h-11h-10q-2 -2 -10 -5q-5 -4 -12 -10q-6 -7 -8 -11q0 -3 -1 -3q-1 -1 -1 -3t-1 -4q-4 -13 19 -29q14 -8 26 -14q12 -4 21 -12q8 -8 11 -14q1 -3 2 -4q1 0 1 -5
q1 -9 -11 -24q-12 -16 -23 -19q-4 0 -6 -2q-3 -2 -9 -2q-7 0 -8 2l-3 2q-1 0 -7 3q-5 4 -8 5q-4 1 -6 3q-4 3 -6 5q-4 1 -4 3h7q5 -1 8 -2q4 -1 10 -4q8 -5 14 -5t15 4q4 1 8 5q6 3 6 5q1 1 2 1q2 0 4 3q1 3 1 4t3 5q2 7 -4 18q-7 12 -17 14q-2 2 -4 3t-6 0q-2 1 -16 9
t-15 9q0 2 -5 5q-9 8 -11 21q-1 13 7 25q3 4 2 5q0 1 5 5q5 6 4 7q0 1 -7 4q-8 4 -9 7q-2 2 0 4q2 3 7 5q4 2 6 1q3 0 4 1q0 1 3 5q1 7 2 8t4 1q3 1 7 1q6 -1 8 -7q2 -7 0 -14v0z" />
    <glyph glyph-name="T" unicode="T" horiz-adv-x="128" 
d="M110 191q-5 0 -11 1q-13 2 -18 2q-6 0 -7 -1q-2 -2 -2 -39q1 -19 0 -30q0 -49 -1 -52v-22l-1 -20l-3 -3q-11 -8 -8 15q1 11 1 24t1 19v49q1 13 0 37v16l1 6l-10 -1q-9 0 -23 -1l-15 -1l-4 3q-4 3 -2 5q1 3 6 4q4 2 10 0q2 -1 3 0q1 0 19 1q21 1 39 0.5t19 0.5t9 0
q7 -2 9 -4q4 -3 -1 -7q-3 -3 -11 -2v0z" />
    <glyph glyph-name="U" unicode="U" horiz-adv-x="141" 
d="M115 213q1 -3 2 -5q0 -1 5 3q3 5 7 5q5 2 9 -3q2 -2 2 -5l1 -3q-1 -1 -1 -4q0 -1 -3 -8q-5 -9 -9 -14q-5 -6 -7 -13q0 -6 4 -16q1 -4 -10 -63q0 -3 -7 -23q-1 -5 -4 -7q-1 -1 -6 -7q-6 -6 -7 -6t-5 -5q-5 -4 -6 -4l-3 -2q-8 -5 -20 -7q-12 -1 -18 0q-5 3 -13 12
q-8 10 -9 15q0 3 -1 6q-3 4 -4 12q-2 7 -4 10q-1 3 -1 18q-1 15 -1 25q1 11 1 19q-1 10 0 20q0 16 1 19q0 21 6 21q8 1 7 -21q-3 -28 -2 -51v-15q-1 -16 3 -36q4 -21 11 -29q1 -3 2 -5q3 -7 19 -6q15 1 24 8l7 7q5 2 9 9q6 7 7 12q2 6 2 8q2 4 12 66q-1 8 -1 15q0 6 -3 11
q-1 5 -3 7q-1 0 -1 3t-2 6q-4 5 -6 11q-3 6 -1 7q1 1 1 4q1 6 4 7q4 1 8 -1q3 -2 4 -7v0z" />
    <glyph glyph-name="V" unicode="V" horiz-adv-x="148" 
d="M142 190q-1 -4 -4 -14q-1 -8 -4 -10q-3 10 -6 10q-2 0 -24 -59q-1 -5 -1 -7q0 -1 -1 -2q-2 -1 -3 -5q-1 -6 -2 -9q-2 -2 -5 -14l-3 -9q-1 -1 -1 -4q0 -2 -1 -6q-2 -3 -3 -11q-2 -5 -2 -7q-2 -2 -2 -7q-2 -7 -3 -9t-5 -2q-3 0 -5 3q-3 2 -3 8q-1 4 -2 6q-1 3 -2 7
q-2 5 -3 10t-2 8q-1 4 -4 9l-2 12q-3 22 -6 27q-2 4 -18 59q0 2 -5 11q-5 8 -8 11q-1 1 -3 1q-3 3 -2 5q1 1 3 2q2 0 4 -1q1 0 6 -2q1 -2 4 -4q2 -3 2 -4l1 -1q2 -2 4 -5q2 -2 3 -5q0 -1 1 -5q3 -2 10.5 -32.5t9.5 -33.5q1 -1 1 -4q1 -2 1 -8q2 -3 2 -5q0 -6 6 -21
q1 -2 1 -4q0 -1 1 -3q1 -1 2 -5q0 -6 3 -6q1 0 1 6l1 3q2 2 4 10q7 23 9 24q1 2 1 7q0 1 3 7q1 5 2 5t2 3q0 2 4 12q22 50 26 54q5 8 5 9q0 3 6 5q4 3 6 1q1 -2 1 -4q0 -3 -1 -7v0z" />
    <glyph glyph-name="W" unicode="W" horiz-adv-x="177" 
d="M168 163q-3 -9 -5 -21q-2 -8 -2 -9t-2 -9q-1 -7 -2 -9q-2 -2 -1 -5q0 -2 -1 -3q-2 -1 -2 -6l-3 -9q-4 -13 -5 -21q0 -2 -1 -4q-2 -1 -2 -3q-11 -32 -11 -33t-4 -3q-2 -3 -4 -2q-3 1 -6 6l-7 26q-2 4 -3 7q-2 6 -3 16q0 5 -2 6q-1 2 -1 7q-1 4 -1 7q-2 2 -2 4q1 1 0 3
q-3 7 -3 8t-2 6q-1 6 -1 7q-1 5 -3 4t-2 -5q-1 -6 -2 -9q-2 -2 -3 -9t-1 -8v-4q-1 -2 0 -4q-1 -3 -1 -4q-2 -3 -5 -18q-5 -19 -7 -26q-4 -13 -7 -17l-2 -4l-3 1q-6 0 -7 3q-1 2 -1 7v7q-2 1 -3 7q-1 5 -2 8q0 4 -2 6q-1 4 -1 7q0 6 -1 9q-1 2 -3 12q-1 14 -3 19q-1 3 -1 5
q0 1 -1 3q-1 4 -2 9t-2 7q-2 2 -3 7q-1 7 -1 8l-1 2q1 2 0 3q-2 1 -1 4q-1 4 -2 7q-2 4 -2 6q1 2 0 3q-1 0 -3 6q-5 13 -7 15q-3 1 -2 2q0 2 1 5q2 4 6 2q3 -4 7 -11q1 -2 2 -2q1 -1 3 -8q4 -9 4 -13q1 -5 1 -6q1 -1 3 -4v-5q0 -2 1 -3t1 -5q0 -5 3 -12l2 -5q0 -1 1 -4
q3 -3 3 -8q1 -2 2 -7q2 -8 1 -18l2 -2v-5q1 -2 1 -5q1 -2 2 -8q2 -14 5 -18q2 -3 3 3q1 5 2 7q2 3 3 10q0 6 2 8q2 4 3 12q2 10 3 11q2 5 4 16q0 6 1 9q2 3 2 6q1 6 6 10q6 4 9 1q1 0 5 -9q3 -8 3 -10q0 -1 2 -2q1 -5 1 -8t3 -9q4 -7 7 -29q0 -5 1 -7q2 -3 3 -10q3 -8 6 -9
q1 0 4 8q5 10 7 18q5 18 7 23q1 1 2 6q2 5 2 6q1 0 1 1q1 2 2 5v6q3 7 2 9q1 1 2 3q2 2 3 10t3 10q1 2 1 13q3 12 4 13q1 2 2 9q1 8 2 10q1 1 4 -1v-19q-2 -15 -5 -23v0z" />
    <glyph glyph-name="X" unicode="X" horiz-adv-x="158" 
d="M125 207q0 -10 3 -5q2 4 8 7q3 1 8 1q4 1 8 -4t0 -9q-10 -11 -12 -11q-3 0 -8 -6l-7 -7q-2 0 -3 -2q-1 -3 0 -7q0 -1 -2 -1t-5 2l-3 3l-2 -3q-1 -2 -5 -8l-7 -13q-4 -6 -10 -16q-7 -8 -9 -11v-6q5 -7 8 -16q3 -8 11 -21q2 -5 3 -6q0 -3 16 -19q10 -10 10 -11l2 -2
q1 0 1 -1q-1 -1 -4 -5l-3 -5l-4 5q-4 4 -12 10q-7 8 -8 9q0 1 -5 8q-5 5 -5 7t-4 8q-9 17 -9 21q0 1 -1 1q-3 1 -3 3q0 6 -5 1q-5 -4 -11 -15q-5 -6 -9 -11q-6 -8 -13 -24q-2 -7 -10 -14q-6 -7 -12 -8q-3 0 -6 3q-2 5 1 7q3 3 18 26q13 19 21 31q10 12 13 16l4 6l-1 5
q-3 5 -5 8q-3 4 -22 40q-2 7 -6 11q-8 7 -10 15q-3 7 2 8q2 0 11 -9t12 -16q24 -48 27 -49q2 0 6 6q4 5 6 10q3 7 8 14q6 11 8 16q2 4 6 7q6 5 2 14q-5 10 -1 17q4 8 11 6q7 -4 8 -11v0z" />
    <glyph glyph-name="Y" unicode="Y" horiz-adv-x="130" 
d="M111 176q-5 -5 -7 -9q-7 -10 -14 -14q-4 -2 -4 -3q0 -3 -6 -9q-5 -5 -7 -5q-3 -1 -5 -6q-3 -3 -5 -3q-1 0 -4 -4q-4 -3 -4 -4q0 -2 -1 -2q-1 -1 -1 -38q0 -36 1 -43q0 -6 -4 -9q-4 -2 -8 1l-3 3v26q0 46 -1 52q-1 3 -2 9q-1 7 -3 10q-6 14 -8 23q0 3 -4 11t-5 12
q-1 3 -3 4q-1 2 -1 4q0 3 -2 5q-1 4 -3 6q-2 4 -1 8q2 3 7 3q6 0 13 -22q1 -6 2 -8q1 -1 1 -4q0 -4 3 -6q2 -1 4 -8l3 -9q0 -2 3 -8q2 -6 4 -10l3 -1l1 1q3 3 10 9q8 6 14 14q9 9 14 12q5 5 5 7q1 3 18 25q3 3 3 5q0 3 5 5q4 2 6 0q3 -3 -1 -12q-5 -8 -13 -18v0z" />
    <glyph glyph-name="Z" unicode="Z" horiz-adv-x="150" 
d="M119 214q0 -7 5 -7q3 -1 9 4l2 1q1 -1 4 0q2 1 5 -1t5 -5l2 -5l-4 -4q-4 -5 -10 -6q-5 -1 -8 -4l-1 -1q-4 0 -8 -5t-3 -8q1 -5 1 -9q-1 -3 -6 -13q-11 -22 -18 -27q-7 -7 -17 -22q-2 -5 -10 -12q-5 -7 -7 -10q-1 -4 -8 -13q-9 -8 -11 -10t-5 -6t-3 -6t24 1q10 1 17 2h9
q1 1 13 4q12 1 16 2q2 0 5 -3q5 -3 5 -4q0 -2 -4 -4q-2 -2 -6 -2q-5 1 -25 -4q-11 -1 -16 -1t-16 -2q-9 -3 -16 -4t-16 -2q-9 -2 -13 -2q-1 0 -2 5q-2 5 6 14q25 21 29 29l4 4q3 2 3 4l6 8q7 9 12 18q7 9 10 14q4 5 10 13q11 16 14 23q5 9 1 13q-2 3 -13 6q-8 3 -10 4
q-2 2 -4 2q-1 -1 -21 2q-9 1 -23 1q-11 0 -13 1q-3 2 -3 7q1 3 7 3q9 0 35 -2q26 -5 34 -6q6 -2 7 -2q3 -1 2 24v6l4 3q8 4 11 0q2 -1 4 -7z" />
    <glyph glyph-name="bracketleft" unicode="[" horiz-adv-x="82" 
d="M59 211h10l3 -3q2 -2 2 -3t-1 -3q-3 -5 -13 -7t-14 1q-2 2 -7 3t-5 -1q0 -1 2 -4q4 -8 0 -32q-2 -8 -3 -23t-2 -17q-1 -3 -1 -53v-21q0 -6 2 -7q1 -1 5 0q11 2 18 1q6 -2 4 -5q-3 -4 -13 -7q-17 -5 -18 -7q-2 -1 -4 -1q-3 1 -5 3l-2 2l-1 36q0 36 2 50q1 13 2 23
q0 11 1 13t0 4q0 3 2 8q1 5 2 18v12q1 2 3 4l2 3l-2 1q-3 1 -10 1q-5 0 -7 1q-1 0 -1 3q-1 3 1 3q1 0 4 2q2 2 3 2h7q8 -1 16 -1q9 0 18 1v0z" />
    <glyph glyph-name="backslash" unicode="\" horiz-adv-x="88" 
d="M24 163q0 -1 5 -8q6 -8 19 -38q3 -5 5 -10q2 -4 5 -13q2 -8 3 -9t1 -3q0 -1 1 -4q2 -3 5 -12q2 -8 6 -15q3 -5 3 -8t-3 -5q-8 -8 -12 6q-4 11 -6 12q-1 1 -1 5q-3 12 -5 15q-1 0 -1 4q0 3 -2 8q-3 6 -4 12q-1 5 -9 22q-8 16 -11 19q-2 3 -7 13q-1 3 -5 7q-5 7 -3 12
q1 4 7 1q2 0 5 -5q4 -5 4 -6v0z" />
    <glyph glyph-name="bracketright" unicode="]" horiz-adv-x="78" 
d="M49 205q5 0 7 -3q1 -1 4 -1q5 0 8 -4q3 -5 0 -9q-1 -1 -4 -27q-2 -10 -3 -16q-1 -5 -2 -13q-1 -7 -2 -16q-1 -7 -2 -19q0 -12 -1 -13v-10q0 -5 -1 -18q-2 -13 -2 -15q-1 -2 0 -4q2 -4 -4 -8t-9 -2q-1 1 -2 1q-1 -1 -13 -1q-11 -1 -12 0q-1 3 6 6q19 10 20 11q2 5 3 25
q1 13 2 21l2 18q0 17 3 32q5 21 5 38q1 11 0 13t-10 3q-7 0 -8 1q0 1 -5 1q-3 0 -8 3q-5 2 -5 4q0 5 3 5q3 1 15 -1q11 -1 15 -2v0z" />
    <glyph glyph-name="asciicircum" unicode="^" horiz-adv-x="92" 
d="M56 219q0 -3 6 -12q5 -9 12 -18q2 -3 5 -9t3 -10q2 -5 -3 -4q-4 1 -6 6q-5 9 -11 14q-2 2 -7 8q-6 8 -7 8t-6 -7q-5 -8 -6 -9q-2 -1 -2 -2q0 -2 -5 -9t-5 -8t-2 -2t-4 -5t-6 -4q-3 1 -3 6q0 3 4 10q5 8 7 12q3 5 5 8q3 4 3 5t4 5q3 4 3 5q0 2 3 5q3 4 3 5q0 3 5 6
q5 2 8 0q2 -1 2 -4v0z" />
    <glyph glyph-name="underscore" unicode="_" horiz-adv-x="94" 
d="M48 35q5 0 6 -1q2 -1 10 -1q16 -2 21 -7l4 -3l-3 -2q-2 -2 -3 -2q-1 -1 -3 0q-4 1 -23 2q-20 1 -33 3q-8 1 -10 3q-2 3 0 9q0 1 8 1t15 -1t11 -1v0z" />
    <glyph glyph-name="grave" unicode="`" horiz-adv-x="59" 
d="M21 206q2 0 8 -5q5 -4 6 -4t3 -3q3 -2 5 -4q3 -1 6 -5q2 -3 1 -4q-1 -2 -5 -2q-3 0 -5 3q-2 2 -4 2t-3 2q0 1 -4 3q-3 1 -6 3q-2 1 -5 3q-8 3 -9 9q0 5 1 7q2 1 5 -2q3 -2 6 -3v0z" />
    <glyph glyph-name="a" unicode="a" horiz-adv-x="104" 
d="M79 133l-1 -5h3q3 0 9 1h6l2 -3q3 -7 -2 -10q-3 -2 -7 -6q-4 -3 -5 -3q-6 0 -6 -6v-7q-2 -3 -1 -12q0 -14 1 -14q0 -1 1 -5q2 -7 5 -10q2 -2 4 0q0 1 4 1q3 0 6 2q8 3 10 0q2 -4 -4 -8q-15 -8 -22 -7q-8 0 -11 10q-6 15 -6 17t-1 2q0 1 -3 -1v-3q0 -2 -1 -3q-2 -1 -2 -3
q0 -1 -4 -5q-4 -5 -4 -6q0 -2 -6 -11q-8 -6 -13 -9q-10 -5 -17 -1t-9 15l-1 5q-2 3 0 20q1 15 5 28q2 9 4 13q1 4 4 8q5 5 5 6q0 3 5 7q8 5 14 6q5 2 10 0q7 0 9 -3q0 -1 1 0v3q0 5 6 7t10 -2q1 -2 2 -3v-5v0zM31 120q-2 -2 -4 -6t-2 -5t-1 -3q-2 -1 -5 -12q-3 -10 -4 -13
v-8q0 -3 -1 -8q-1 -8 1 -18q3 -11 7 -11q5 0 14 10q9 8 11 13q2 4 3 7q3 3 8 12q5 12 6 17q0 5 -3 2q-4 -1 -5 -1q-2 1 -1 3t-1 4l-2 3l2 4q3 4 2 9q-1 6 -4 8q-4 1 -12 -1q-5 -2 -6 -3q-2 -1 -3 -3v0z" />
    <glyph glyph-name="b" unicode="b" horiz-adv-x="93" 
d="M19 181v-55q-1 -7 0 -9l2 1q8 7 22 9t21 -1q4 -2 9 -6q4 -4 6 -7t5 -7q6 -10 4 -22q-1 -12 -10 -20q-4 -5 -7 -8q-2 -3 -4 -4t-4 -4q-3 -2 -6 -2q-2 -1 -6 -5q-5 -4 -7 -5q-3 0 -3 -1q-1 -1 -3 -1q-3 -1 -10 -8q-6 -3 -9 0t1 8q2 2 14 7q3 1 7 3q1 1 4 3l6 3q2 2 3 2t8 7
q6 6 6 7t2 3l3 3q2 2 3 5q2 4 3 10q0 8 -2 12q-4 10 -12 17q-7 5 -12 5q-3 -1 -9 -2q-4 -1 -10 -2q-5 -4 -8 -5q-4 -2 -6 -7q-2 -4 -3 -36.5l-1 -32.5q-1 -2 -2 -3l-3 -1q-4 -2 -5 4q-2 6 0 34t2 35v13q2 11 2 38v30q-1 4 -3 10v6l2 3q4 3 8 -1q3 -4 2 -23v0zM58 81
q-5 -10 -6 -11q-3 -2 -8 -2q-4 1 -7 2q-2 1 -2 4t-3 7q-4 2 -4 6t2 5q4 1 10 -1q2 -3 3 -3t2 2q0 2 3 3q4 1 5 1q2 0 4 -2q3 0 4 -5q0 -3 -3 -6v0z" />
    <glyph glyph-name="c" unicode="c" horiz-adv-x="88" 
d="M45 144q-4 -9 -3 -12q1 -1 6 1q11 6 20 -1q10 -5 5 -14q-2 -4 -5 -3t-4 5q-1 7 -9 4q-7 -2 -15 -11q-6 -6 -6 -7t-3 -6q-2 -4 -3 -5t-1 -3q0 -1 -3 -7q-6 -14 -4 -30q3 -15 11 -15q7 0 21 8q16 7 23 13q6 5 8 1q1 -3 -3 -8q-4 -6 -10 -8q-6 -5 -9 -8q-2 -2 -8 -3
q-4 -2 -7 -4q-6 -3 -15 -5q-6 0 -9 4q-12 13 -14 29q-2 14 7 28q3 4 4 11q2 8 4 10q5 6 5 9q1 2 -2 2q-2 0 -2 2q0 1 -1 3l-4 8q-1 3 -4 5q-5 2 -9 6q-5 5 -5 8q0 8 7 9q9 2 12 -7q2 -4 4 -4q1 2 4 6q3 8 8 9q5 3 8 -1t3 -8t-2 -11v0z" />
    <glyph glyph-name="d" unicode="d" horiz-adv-x="87" 
d="M80 191v-13q-1 -3 0 -15q0 -27 1 -34q1 -3 0 -12q0 -10 1 -14v-15q-1 -22 1 -41v-12q1 -5 -1 -9q-4 -2 -8 0q-2 4 -2 7q-1 3 -1 14q1 28 0 37q-1 10 -4 3q-1 -3 -3 -5q-1 0 -1 -6q-2 -5 -3 -8t-4 -9q-8 -19 -20 -27t-21 -2q-7 6 -11 19q-2 14 0 25q1 6 4 13q4 13 7 17
q4 3 4 7q2 6 9 10q7 6 13 7q8 0 10 -1q4 -2 10 -9q6 -9 5 -4q0 1 3 10q1 8 0 19q-2 13 -2 23t1 18q-2 13 2 19q2 5 8 0q2 -2 2 -4v-8v0zM21 94q0 -1 -1 -5q-2 -4 -3 -7q-2 -7 -2 -21q0 -12 2 -17q1 -3 2 -4t5 0q3 0 8 3q5 2 5 3q0 2 3 6q3 5 7 11q3 5 3 6q-1 2 1 4q2 3 3 7
q1 3 3 4q1 3 1 6q1 2 -1 4q-4 2 -4 3t1 5q0 3 -1 7t-4 7q-1 1 -5 1q-5 0 -7 -2q-4 -2 -11 -10q-5 -8 -5 -11v0zM51 85q-3 -3 -3 -4q1 -2 -1 -2q0 -1 -1 -5q-2 -3 -4 -5q-3 -2 -4 -1q-5 3 -9 10t-3 10q0 2 3 2t4 -1q4 -4 6 3q3 5 9 6q1 0 2 -2q3 -1 4 -6q0 -4 -3 -5v0z" />
    <glyph glyph-name="e" unicode="e" horiz-adv-x="126" 
d="M72 121q-1 -4 0 -8q0 -3 -1 -6q-2 -2 -6 -8q-3 -4 -8 -8q-5 -5 -6 -5t-2 -2q-2 -2 -4 -2q-1 0 -3 -2q-3 -3 -4 -3h-3q-3 -4 -14 -4q-6 -1 -6 -2q-1 -1 -1 -10v-8t1 -3q2 -2 2 -3q0 -4 11 -8q10 -3 17 -3q3 0 10 2q6 3 9 4l3 2q3 1 6 3t9 5q5 2 7 4q1 2 1 5v16q0 5 5 9
q5 5 8 3q2 -2 4 -7q1 -4 0 -5q-2 -1 -2 -3q0 -3 1 -3t5 3q2 2 5 2t5 -3q3 -4 3 -8q0 -3 -4 -5q-2 0 -5 -2l-2 -2q-1 0 -6 -2q-4 -3 -6 -2q-1 0 -4 -2q-5 -2 -6 -2t-3 -3q-4 -5 -5 -5t-7 -3q-8 -1 -9 -3q-5 -3 -7 -4t-5 -3q-8 -2 -19 -2q-12 2 -20 8q-8 4 -8 10q0 3 -1 4
q-4 3 -3 23v12l4 8q5 12 14 23q9 10 20 16q11 7 13 7t2 1q1 1 5 0q5 0 5 -2q7 -4 5 -14v0zM53 125q-2 -2 -3 -2q-4 0 -12 -7q-8 -9 -13 -14q-3 -5 -4 -8q-1 -2 -1 -3t-2 -3q-3 -4 2 -5q3 0 10 2q7 3 12 7q5 3 7 4q4 1 9 9q6 7 6 10q0 2 1 6q1 2 0 5q-1 2 -3 2h-4
q-3 -1 -5 -3v0z" />
    <glyph glyph-name="f" unicode="f" horiz-adv-x="73" 
d="M60 184q-3 -1 -4 1q-1 1 -1 3q1 1 1 2t-1 3q-4 4 -7 3q-4 -1 -5 -6q0 -1 -1 -4t-2 -18q0 -24 -2 -35q-1 -7 0 -9t4 -2q4 2 14 3q10 0 12 -2q3 -3 -1 -6l-2 -2h-6q-19 0 -20 -1q-2 -1 -3 -9q-1 -7 -1 -13q0 -7 -1 -7q-1 -1 -1 -9q-1 -9 -1 -14v-18q-1 -14 -2 -18
q-1 -2 -5 -2q-2 0 -5 2q-4 4 -3 5q1 2 3 21q0 10 1 26q3 22 3 33l1 1l-9 1h-15t-4 1q-3 3 -1 4q1 2 5 2t5 1h10q7 0 9 1q3 2 4 36q0 20 2 28q1 11 4 14q4 3 11 5q1 0 5 -2q8 -1 11 -9q4 -8 -2 -10v0z" />
    <glyph glyph-name="g" unicode="g" horiz-adv-x="105" 
d="M88 141v-5q1 -1 2 -1q8 3 14 0t4 -7q-1 -3 -4 -6q-4 -4 -5 -4t-2 -1q0 -3 -2 -2q-2 0 -5 -2l-4 -3q-2 0 -3 -2t-4 -3q-4 0 -5 -1q0 -1 -1 -7q-1 -4 -2 -14q-2 -10 -3 -17q0 -7 -2 -13q-1 -5 0 -6q0 -1 -1 -4q-1 -4 -2 -14q-1 -9 1 -28q0 -3 -1 -7q-1 -3 -3 -17
q-8 -40 -20 -36q-4 1 -6 0q-2 -2 -12 6q-6 2 -10 6t-5 17q-3 13 -1 16q1 1 1 4q0 2 2 3t4 0q1 -1 1 -10q0 -10 1 -12q2 -4 3 -7q1 -11 16 -8q7 1 9 5q3 4 6 17q2 10 2 52q1 9 2 10v7q1 5 2 13q2 11 1 11q-2 1 -8 -5q-7 -6 -8 -6l-3 -2q-4 -3 -7 -3q-2 0 -2 -1q-1 -1 -7 -1
q-4 0 -7 1q-9 5 -9 15q-1 10 4 25q6 11 6 12q0 2 6 11q6 10 8 13l9 6q2 1 8 2h7l6 -5l6 -5v-5q0 -5 -2 -8q-3 -3 -7 -3q-4 1 -5 2q0 2 1 4q6 6 3 8q-3 3 -11 1q-10 -3 -15 -16q-2 -6 -5 -11q-7 -11 -7 -14v-4q-5 -13 1 -16q7 -4 18 4q4 3 7 4q15 10 17 23q2 16 6 20q3 3 4 5
t2 10q1 12 5 18q4 4 9 0q2 -2 2 -9v0z" />
    <glyph glyph-name="h" unicode="h" horiz-adv-x="82" 
d="M22 169q0 -28 -1 -36t-1 -9v-3q1 0 3 5q4 10 16 14q12 2 19 -8q5 -5 6 -12q1 -5 3 -34q1 -23 2 -31q1 -10 3 -13q2 -2 5 -2q7 0 8 -3q1 -1 -2 -4q-3 -4 -9 -5q-7 0 -11 3q-2 5 -4 17q-2 11 -3 36q0 17 -1 18q-1 2 -1 6q0 5 -3 11q-2 9 -4 10q-6 5 -14 -3q-8 -9 -12 -22
q-4 -22 -5 -43q-1 -17 -1 -24q0 -8 -3 -11t-7 0q-2 1 -2 3v7q0 20 1 21q1 0 1 4v15q0 10 1 17q0 5 1 16t1 15t1 11q2 8 2 24q0 15 -1 27t2 17t7 -2l2 -4l1 -28v0z" />
    <glyph glyph-name="i" unicode="i" horiz-adv-x="47" 
d="M20 183q0 -4 2 -4q1 -1 2 1q1 5 5 7t8 1q5 -1 6 -5q0 -6 -4 -9q-2 -2 -7 -8q-6 -6 -10 -5q-5 2 -11 11q-9 12 -4 15q1 2 6 2t6 -1q0 -1 1 -5v0zM28 81q-1 -12 -1 -24t1 -17q2 -8 -1 -14q-2 -3 -4 -3q-3 1 -3 5t-2 7q-1 3 -1 24q1 61 -1 63q-1 2 -1 6q-1 6 1 8q1 2 4 2
q4 -1 5 -4q2 -3 3 -19q1 -18 0 -34v0z" />
    <glyph glyph-name="j" unicode="j" horiz-adv-x="70" 
d="M60 173q-5 -7 -7 -8q-7 -8 -11 -8t-8 9q-4 7 -8 8q-8 3 -8 9q0 5 9 6l7 1l4 -4q3 -5 4 -5t3 4q1 2 1 3q0 3 5 6q6 3 9 2q8 -5 9 -10q-1 -4 -9 -13v0zM51 110q-1 -7 1 -10q1 -1 0 -8q0 -6 -1 -12q1 -13 -2 -63v-14q1 -7 0 -9q-1 -1 -1 -10t-1 -11t-1 -5q-4 -7 -44 -5
q-8 0 -12 7q-3 7 1 14q1 2 2 6q1 6 3 6q1 1 2 0q0 -2 -2 -10q-1 -11 2 -13t16 0q12 0 15 2q5 0 6 3q1 1 2 9q0 11 1 37q1 51 2 54t0 4v8q1 6 0 26q-2 17 -1 20t6 3h3q0 -1 1 -3q3 -4 2 -26v0z" />
    <glyph glyph-name="k" unicode="k" horiz-adv-x="70" 
d="M24 197q-1 -4 0 -8q1 -5 -3 -44.5t-3 -39.5l7 7l12 12q8 11 18 14l6 1l2 -2q5 -6 -3 -7q-3 -1 -12 -8q-10 -6 -10 -8q0 -1 -3 -6q-2 -2 -5 -3q-3 -3 -4 -5q-3 -5 -6 -7t-4 -7q0 -4 1 -6q3 -2 24 -6l16 -4q6 0 9 -4t0 -7q-1 -2 -10 -1l-20 6q-7 1 -9 2q-1 1 -4 1h-5
q-2 1 -4 -7v-15q0 -3 1 -4q1 0 2 3q2 4 3 0q0 -5 -2 -12q-2 -8 -7 -7q-6 1 -7 10q-1 5 -2 6v11q3 55 7.5 100t6.5 51t7 0q1 -3 1 -6v0z" />
    <glyph glyph-name="l" unicode="l" horiz-adv-x="37" 
d="M21 191q0 -7 1 -24q1 -13 1 -31q1 -18 0 -20q-1 0 -1 -17q-1 -16 -2 -17q-1 -3 -3 -44q17 0 16 -3q-1 -5 -5 -5q-19 -7 -22 -1q-3 7 -1 8q1 2 2 23q1 9 2 19q2 32 3 41v28q-1 27 -4 38q-3 9 2 15q3 6 9 1q1 -3 2 -5v-6v0z" />
    <glyph glyph-name="m" unicode="m" horiz-adv-x="136" 
d="M38 141q-7 -8 -7 -11q0 -2 -2 -3q-6 -4 -4 -18q0 -9 1 -10q1 -2 2 3q9 22 24 20l7 1l5 -8q6 -8 6 -11t2 -4q2 -3 2 -2t3 7q5 13 14 23q9 9 15 8q10 1 18 -21q8 -21 8 -44q0 -31 -1 -36q0 -8 -3 -9q-6 -1 -8 9q-4 11 0 17q2 3 1 17q0 13 -3 33q-6 21 -10 26q-4 3 -13 -7
q-3 -4 -8 -15q-5 -7 -5 -10t-1 -4q-1 -2 -3 -10q-2 -11 -3 -19q-1 -15 -4 -20q-4 -6 -9 0q0 3 -1 5q0 1 1 7v23q1 7 0 16t-3 13q-5 8 -14 4q-8 -5 -12 -17q-2 -8 -3 -10q-1 -1 -1 -3t-1 -10q-2 -7 -2 -22q1 -13 0 -17q-1 -5 -6 -6q-9 -5 -6 49q1 14 1 18q0 1 -1 12
q-2 12 -2 15q0 5 -2 11q-3 7 -5 10q-3 6 -3 7l-3 5q-5 10 -3 17q3 7 9 3q2 0 7 -6q4 -6 4 -8q0 -8 5 3q4 5 6 5q1 0 1 2q3 4 7 4q4 -2 8 -6q8 -10 -5 -26v0z" />
    <glyph glyph-name="n" unicode="n" horiz-adv-x="102" 
d="M33 141q-4 -3 -5 -3q0 -1 2 -5q2 -2 2 -13q0 -10 1 -10t2 2t1 4q0 3 7 9q6 6 11 7q4 -1 13 -2q8 -2 10 -4q3 -2 5 -3q3 -2 3 -7q1 -6 1 -32q1 -31 2 -35q1 -2 2 -8q1 -4 2 -5q1 0 3 -1q8 -1 6 -6q-2 -4 -10 -3q-11 2 -11 10q0 3 -1 8q-3 6 -3 54q0 13 -1 15q-1 3 -2 4
q-2 3 -12 4q-11 2 -13 -2l-4 -4q-3 -4 -6 -12q-1 -3 -2 -5q-4 -12 -6 -39q-1 -18 -2 -23q-1 -7 -3 -9q0 -2 -5 -2q-6 1 -4 16q5 35 6 51q1 15 -1 25q-2 8 -2 12q0 6 -2 8t-2 3q0 2 -3 4q-6 3 -10 11q-3 7 -1 10q1 3 4 3t6 -2q5 -5 9 -7q4 -1 4 2q0 4 6 6q6 4 10 1
q6 -5 4 -12q-3 -6 -11 -15v0z" />
    <glyph glyph-name="o" unicode="o" horiz-adv-x="85" 
d="M56 137q4 0 10 -2q5 -3 8 -7q2 -2 5 -16t3 -19v-7t-1 -7q-2 -8 -1 -9q0 -1 -2 -8q-3 -6 -6 -10q-3 -5 -3 -7t-1 -2t-4 -4q-6 -5 -17 -11q-12 -5 -14 -3h-3q-5 0 -10 3q-6 3 -8 8q-3 5 -6 16q-4 11 -2 14q1 2 0 5v3q1 3 3 11q2 9 1 9q0 1 2 9q2 6 3 12q2 5 4 7
q18 16 31 15h8v0zM23 105q-6 -18 -7 -19q-1 -4 -1 -15q-1 -11 0 -16q3 -15 9 -19q7 -3 19 0q8 3 18 12q9 11 8 15q0 1 1 4t2 7q2 5 2 6l1 5q1 4 0 8q-1 2 0 4q0 3 -3 15l-3 12l-3 3q-5 2 -12 2q-8 -1 -14 -2q-5 -2 -10 -10q-3 -2 -4 -5q-3 -4 -3 -7v0zM42 83l3 -1l3 3
q3 4 4 4q3 1 6 -1q2 -2 3 -5q0 -2 -2 -3l-3 -6q-3 -3 -8 -7q-4 -4 -7 -4q-2 1 -2 2q-1 1 -2 5t-4 7q-4 4 1 8l1 1h2q3 0 5 -3v0z" />
    <glyph glyph-name="p" unicode="p" horiz-adv-x="78" 
d="M70 115l3 -3q2 -4 1 -12q0 -8 -5 -18q-2 -4 -2 -5q1 -1 -3 -6q-2 -3 -5 -6l-20 -24q-6 -5 -8.5 -9.5t-9.5 -0.5q-5 5 -5 -1v-3q1 -61 -2 -65q-8 -5 -10 5l1 60q0 8 1 13q0 8 1 13q-1 7 -1 29.5t3 25.5q5 7 8 4q5 -3 4 -9l-3 -44q-1 -6 0 -12q-1 -7 -1 -8q1 0 31 27
q8 11 9 16q1 7 4 12q8 23 -25 32l-10 2l-10 -1q-10 -2 -12 -1q-4 2 0 6q1 4 10 5q10 2 16 1q10 -1 25 -10q14 -7 15 -13v0zM39 102q0 -4 2 -4q1 0 2 2q4 5 7 6q2 0 4 -1q4 -4 3 -12q-1 -9 -6 -10q0 -1 -1 -2q0 -2 -5 -2q-3 0 -6 -1q-5 0 -6 1q-2 1 -2 3q-1 4 -3 10l-2 5l2 3
q1 4 5 5h6q1 -2 0 -3v0z" />
    <glyph glyph-name="q" unicode="q" horiz-adv-x="80" 
d="M67 128q4 -9 6 -8q3 0 4 -4q2 -4 0 -8q-2 -3 -3 -10q-2 -7 -2 -8q0 -2 -1 -7q-3 -8 -6 -32q-2 -16 -2 -25q-3 -13 -4 -28q-1 -14 1 -15q1 -1 16 17q5 5 7 5q1 1 2 -3q0 -2 -8 -12q-3 -3 -4 -7t-9 -13l-9 -9q-10 -4 -8 18q1 9 1 22q1 12 3 19q0 6 1 15q1 8 4 24q4 24 2 24
q-1 0 -4 -2q-3 -5 -3 -7q-2 -3 -6 -7q-3 -6 -3 -7t-2 -1q-1 -1 -1 -4q0 -5 -8 -7q-7 -3 -14 -1q-9 1 -11 6q-1 5 -1 6q-2 2 -3 8q0 5 1 9l2 6q0 2 1 5t3 7q2 2 6 10q4 6 5 9q3 5 13 14q8 7 13 8q5 2 12 1q1 0 5 -3q3 -3 4 -5v0zM38 117q-5 -1 -5 -3q0 -1 -3 -2q-2 -3 -3 -5
t-2 -2q-2 0 -3 -3q-1 -5 -1 -7q0 -1 -3 -6q-5 -15 -4 -25q1 -9 7 -8q3 1 8 4q6 4 6 5q-1 1 6 11q8 10 10 16q7 5 7 9q2 3 1 4q-1 3 0 6q4 7 -2 12t-13 0q-2 -3 -6 -6v0z" />
    <glyph glyph-name="r" unicode="r" horiz-adv-x="114" 
d="M94 142q7 5 11 2q5 -3 6 -8q1 -7 -5 -12q-2 -4 -2 -6q1 -5 -5.5 -5t-6.5 2t-6 2h-7q-4 -2 -7 -2q-2 0 -8 -2q-5 -3 -7 -5q-3 -2 -5 -2t-9 -8q-8 -10 -9 -15q-4 -8 -5 -16t-1 -28q0 -9 -4 -14q-4 -3 -8 1q-2 2 -2 5q0 4 2 15q3 30 1 46q-3 17 -4 18q-1 3 0 4q0 2 -2 5
q-1 4 -3 6t-2 3q-1 0 0 2q3 6 7 6q7 -1 8 -8q0 -2 2 -4q1 -3 3 -22q1 -8 3 -9q1 -2 2 1q0 6 9 15q9 10 12 10q1 0 7 3q6 2 12 3t7 1q1 1 0 5q-3 13 0 18q3 3 9 -3l5 -6l2 2v0z" />
    <glyph glyph-name="s" unicode="s" horiz-adv-x="75" 
d="M61 115q-3 -1 -4 1q-3 2 -3 4t-2 4q-2 1 -6 1q-4 -1 -10 -4q-6 -4 -7 -5q-1 -2 -7 -8q-5 -6 -5 -9t4 -5q4 -4 6 -4q1 0 3 -2q2 -3 6 -4t14 -8q11 -8 16 -12q5 -5 5 -13t-4 -13q-3 -2 -9 -4q-5 -5 -7 -5q-1 0 -2 -1q-1 -2 -10 -3h-10q-1 1 -9 1h-7l-2 3q-1 6 1 7h15
q13 1 14 2t3 1q9 0 13 9q4 7 -3 12q-5 4 -12 10q-8 3 -9 3q-2 0 -13 7q-10 6 -14 14q-4 7 1 13q3 4 11 12t12 9l8 6t8 3q7 0 10 -3t6 -10q2 -8 -1 -9v0z" />
    <glyph glyph-name="t" unicode="t" horiz-adv-x="110" 
d="M91 197q0 -3 1 -3q0 1 3 4q3 7 10 4q5 -1 5 -10q0 -2 -4 -7q-2 -6 -5 -6q-2 -2 -3 -4q0 -2 -4 -9q-4 -4 -6 -4q-2 -2 -4 1t-3 12q0 6 -1 9q0 2 -2 6q-7 14 1 14q2 0 3 1q4 4 6 -3q3 -4 3 -5v0zM54 183q-2 -6 -3 -15t-3 -19q-3 -10 -1 -12h8q7 2 10 3q9 2 12 0q5 -3 1 -9
q-1 -2 -3 -2q-1 -1 -11 -1q-23 0 -23 -11v-3q-1 -2 -5 -19q-2 -8 -4 -15q-1 -8 -1 -18q1 -9 2 -13q2 -2 3 -7q4 -6 11 -7q8 -2 12 3q2 4 8 6q8 4 8 3q0 -3 -6 -10q-5 -5 -10 -7q-11 -7 -19 -5q-9 5 -14 18l-3 9v16q1 16 3 21q2 6 3 17q2 12 1 13q-1 2 -11 0q-13 -2 -15 -2
t-3 2q-2 3 -1 4q1 2 3 2q3 0 5 3q3 2 14 3q10 2 12 3t2 6q2 6 3 8q2 3 3 20q2 18 2 27q0 6 2 9q2 2 6 0q3 -1 3 -8q0 -8 -1 -13v0z" />
    <glyph glyph-name="u" unicode="u" horiz-adv-x="106" 
d="M40 156l2 -3l-1 -3q-2 -4 -6 -8q-4 -3 -8 -9l-5 -5l-1 -19q0 -32 1 -38q2 -4 1 -10q-2 -13 6 -19q10 -7 20 0q4 4 7 6q3 1 9 9q6 7 6 8q0 2 1 3q2 1 5 9q5 9 5 10t1 3q4 8 5 27q0 7 1 9t1 3q0 3 3 5q2 3 5 2q4 -2 5 -5q0 -3 -2 -12q-2 -7 -2 -11v-3q-1 -1 -1 -23v-25
q1 -4 2 -18t-2 -14l-3 3q-2 2 -7 30q-1 18 -4 10q0 -3 -3 -5q-2 -2 -2 -4q0 -1 -2 -2q-1 -1 -2 -5q-1 -3 -10 -11q-9 -10 -11 -11q-1 0 -2 -1q-3 -3 -11 -4q-8 0 -14 1q-3 0 -7 5q-2 4 -3 7q0 3 -2 4q-3 4 -6 63q-1 29 -3 33q-4 5 -3 12q0 5 3 7q5 2 10 -3l2 -3l2 5q4 7 8 7
q1 0 5 -2q5 -3 7 -5v0z" />
    <glyph glyph-name="v" unicode="v" horiz-adv-x="104" 
d="M98 120q-4 -1 -6 -5l-26 -59q-3 -2 -4 -8t-4 -10q-2 -2 -2 -5q0 -1 -4 -5q-5 -3 -7 -3q-5 1 -7 15q-1 11 -26 80q-8 5 -7 10q1 7 8 7q4 -1 7 -9q7 -5 25 -56q3 -3 3 -8q1 -6 3 -7q1 -2 2 4q0 2 19 40t27 28q3 -2 3 -4q0 -1 -4 -5v0z" />
    <glyph glyph-name="w" unicode="w" horiz-adv-x="128" 
d="M17 123l4 -52q0 -11 1 -21q2 -10 4 -11q1 0 4 3q1 3 3 6q3 4 3 6q2 2 5 8q2 7 4 10q2 4 2 6q2 4 4 10t3 7q2 3 1 4q0 1 1 2q2 1 2 4q1 3 6 17q1 4 1 6q0 1 1 4q2 2 4 2q3 0 6 -5q0 -5 2 -18q2 -17 4 -22q1 -5 2 -30q1 -5 3 -11q1 -5 3 -6q1 0 4 4t3 7q-1 4 13 46
q1 6 2 13q1 9 1 14q-1 2 1 2q1 1 1 5q1 5 4 5t3 -6q1 -4 1 -7t-1 -10q-2 -7 -3 -11t-2 -6q0 -2 -2 -10q-8 -29 -9 -30q-1 -2 0 -4q0 -3 -1 -8q-1 -6 -4 -9q-1 -2 -2 -5q-2 -5 -6 -6q-5 0 -7 4q-6 7 -10 18q-3 11 -7 53q0 4 -1 5q-1 0 -3 -1q-5 -19 -6 -19q-1 -1 -1 -3
q1 -1 -2 -8q-3 -6 -6 -13l-5 -10q-2 -3 -2 -4q1 -6 -6 -13q-6 -9 -11 -10h-5q-2 1 -2 4q0 1 -2 4q-3 3 -5 13q-2 9 -3 19l-4 56q1 11 3 14t4 3q1 0 4 -3l3 -3l-2 -9v0z" />
    <glyph glyph-name="x" unicode="x" horiz-adv-x="94" 
d="M81 125q-1 0 -3 -4t-5 -9q-1 -4 -6 -11q-6 -8 -8 -14q-4 -5 -4 -8q0 -2 4 -6q26 -27 26 -28q0 -2 3 -5q5 -5 1 -12q-5 -6 -10 5q-3 7 -4 7q-2 1 -3 5q-1 2 -5 5q-3 3 -6 3l-6 7t-7 7t-10 -12q-11 -13 -14 -19q-6 -8 -10 -9t-6 8q0 1 1 3t5 8q25 29 25 32q0 1 -23 30
q-11 15 -13 18q0 3 4 2q8 0 31 -29q6 -7 9 -6q2 1 8 12q1 3 4 7q2 3 3 7q6 13 11 18q6 3 9 -2q2 -2 1 -6q0 -2 -2 -4v0z" />
    <glyph glyph-name="y" unicode="y" horiz-adv-x="84" 
d="M19 151q2 -11 5 -4q6 8 10 10q4 1 10 -5q3 -2 3 -8q1 -4 -1 -6q-3 -2 -8 -9q-4 -6 -8 -8l-4 -1v-6v-16q1 -9 0 -9q-1 -1 0 -12q0 -11 1 -13q1 -1 4 3q3 3 3 4l6 8q6 7 10 12q3 6 7 11q3 5 7 14q4 7 4 10q0 2 3 4q4 3 7 3h3l2 -5v-7t-1 -3q-2 -1 -2 -5v-4q-2 -2 -2 -16
q-1 -14 -2 -19q-1 -3 -1 -6q0 -7 -6.5 -47t-7.5 -43q-2 -5 -2 -9q-2 -8 -20 -8q-10 0 -15 3t-11 13q-4 5 -10 10q-8 7 -4 10q1 1 7 -4q5 -3 10 -10q7 -8 8 -8t3 -2q3 -3 13 -1q6 2 8 6q2 3 3 14q12 71 12 89q0 9 -1 10q-1 2 -3 -2q-1 -5 -2 -5l-2 -3t-7 -9q-4 -3 -4 -4
t-5 -9t-7 -10q-7 -5 -9 -5t-5 5q-2 4 -2 9v36q0 23 -3 27q-2 3 -2 6q0 1 -3 7q-7 14 -4 22q4 7 13 0q2 -1 2 -5v0z" />
    <glyph glyph-name="z" unicode="z" horiz-adv-x="117" 
d="M89 164q0 -7 1 -10l1 -3l3 2q9 7 11 8t5 0q4 -1 6 -9q2 -9 -3 -13q-2 -5 -3 -5t-5 -4q-5 -3 -7 -3q-4 0 -13 -12q-11 -10 -11 -13q0 -4 -9 -15q-11 -11 -12 -11q-2 0 -5 -5q-1 -4 -6 -8q-3 -4 -5 -4q-1 0 -5 -5l-3 -6q1 -1 2 -1l9 1q23 4 30 6q8 1 11 -2q4 -4 1 -8t-8 -3
q-4 0 -7 -1q-2 -3 -6 -3q-1 0 -12 -2q-12 -4 -16 -5q-3 -1 -14 -4l-10 -1l-1 2q-5 4 -1 13q1 8 6 8q1 0 6 6q4 5 8 8q3 3 5 7q3 4 12 13q14 14 21 25q5 13 -2 13h-16t-25 -2q-9 -1 -11 -1t-3 3v5q0 3 1 5q7 5 22 4h15h18q11 1 12 2q1 3 -2 15q-3 10 -3 13q0 4 2 8q3 6 8 7
q4 1 7 -4q1 -3 1 -11v0z" />
    <glyph glyph-name="braceleft" unicode="{" horiz-adv-x="73" 
d="M41 12q-2 0 -5 2q-6 2 -7 9q-3 6 -5 71q0 4 -15 15q-11 9 3 16q11 6 9 36q5 26 6 29q2 2 3 7q0 4 2 6l2 4q5 10 7 11q1 1 2 4q1 2 8 6q4 1 10 1q6 1 9 -1q4 -1 4 -4q-1 -3 -5 -3q-2 0 -4 -1q-3 -3 -6 -3q-2 -1 -6 -5t-4 -5t-3 -5q-9 -16 -10 -26.5t0 -20.5t-2 -17
q-1 -8 -8 -18l-1 -4l4 -4q4 -5 6 -10q4 -15 5 -29q0 -47 4 -49q3 -4 12 -2q11 1 8 -7q-1 -4 -4 -4q-3 -1 -13 -1q-4 1 -6 2v0z" />
    <glyph glyph-name="bar" unicode="|" horiz-adv-x="37" 
d="M27 172v-25q0 -5 1 -16t2 -14q0 -3 1 -20v-61q-1 -15 -4 -15q-2 0 -4 8q-2 9 -3 21q0 10 -1 14t-1 21q0 18 -2 36q-1 19 -1 44q-1 26 -1 27q-3 3 2 7q5 3 7 0q3 -3 4 -8v-19v0z" />
    <glyph glyph-name="braceright" unicode="}" horiz-adv-x="103" 
d="M46 224q2 0 5 -2q6 -2 8 -8t5 -34q0 -4 15 -14q10 -8 -3 -15q-11 -6 -10 -35v-21q-1 -1 -1 -6q-1 -3 -2 -4v-6t-2 -13q-1 -8 -2 -11q-2 -2 -2 -7q-1 -4 -3 -6l-2 -4q-5 -9 -7 -10q-1 -1 -2 -4q-1 -2 -8 -5q-4 -1 -10 -1q-6 -1 -9 1q-4 1 -4 4q1 2 5 3q2 0 4 1q3 2 6 2
q2 1 7 5q3 3 3 4t3 5q9 16 11 58q1 12 1 21q-1 9 2 16q1 8 8 18l1 3l-4 4q-4 5 -6 10q-4 14 -4 27q-2 10 -5 13q-4 3 -12 2q-11 -2 -9 6q1 4 4 4q4 1 13 1q4 -1 6 -2v0z" />
    <glyph glyph-name="asciitilde" unicode="~" horiz-adv-x="133" 
d="M76 116q7 -10 11 -13q4 -2 11 1q15 6 18 9l3 3l3 -3l4 -3l-4 -3q-3 -4 -4 -4t-7 -4q-17 -12 -25 -10q-9 1 -18 17q-4 7 -13 15t-15 10l-5 1l-7 -5l-8 -5v-5q0 -5 -1 -6q-3 -3 -6 1t-2 9q1 3 2 5q1 10 12 15t21 1q7 -2 16 -11q10 -9 14 -15v0z" />
    <glyph glyph-name="emdash" unicode="&#x2014;" 
d="M163 110q17 0 24 -1q8 -1 12 -5q4 -3 1 -7q-4 -4 -9 -2q-3 2 -12 3q-8 0 -11 1q-2 1 -7 0t-48 -2h-47q-9 0 -9 7v5l4 1q5 1 36 0h38h28v0z" />
    <glyph glyph-name="quoteleft" unicode="&#x2018;" 
d="M241 220v-8q-1 -8 -5 -18t-8 -15q-5 -6 -7 -3q-1 1 0 2q2 4 4 13q2 10 2 16q-2 12 1 16q4 5 11 1q3 -2 2 -4v0z" />
    <glyph glyph-name="quoteright" unicode="&#x2019;" 
d="M85 161q-3 -29 -4 -34q-3 -12 -3 -29q-1 -8 -2 -11q-1 -2 -1 -3q1 -2 -1 -13q-1 -12 -2 -25q0 -10 -2 -14t-6 -4t-6 8q-2 7 0 15q1 5 2 14t2 12q1 4 3 21t4 31q4 34 5 71q0 5 3 6l3 2q1 0 3 -3q2 -2 3 -16q0 -14 -1 -28v0zM45 193q-1 -2 -2 -23q0 -20 -2 -28
q-3 -11 -3 -20q-1 -2 -1 -4q-1 -1 -1 -7q-1 -6 -3 -16q-3 -22 -3 -39q0 -11 -4 -15q-4 -3 -8 3q-2 2 -2 12t1 11q1 0 1 5t3 18q2 13 3 19q1 7 1 10q1 3 2 13q1 11 3 18q1 7 1 25q1 15 2 18q1 4 5 7q3 2 4 2t2 -2q3 -3 1 -7v0z" />
    <glyph glyph-name="quotedblleft" unicode="&#x201c;" 
d="M243 192q-1 -12 -5 -13q-5 -1 -5 11q0 9 -6 18q-2 4 -3 8t1 6q1 2 3 2l6 -6t7 -11q2 -5 2 -15v0zM214 176q1 -5 -4 -3q-6 2 -7 8q-1 5 -2 6q-1 0 -1 2q0 3 -2 6q-2 4 -4 9q-1 6 0 8q1 3 5 4t6 -1q2 -3 6 -17q3 -15 3 -22v0z" />
    <glyph glyph-name="quotedblright" unicode="&#x201d;" 
d="M33 197q-1 -2 -2 -8t-2 -9q-2 -3 -2 -6t-2 -4q-1 -1 -3 -1q-3 1 0 27q1 11 -1 15q-5 5 -2 11q3 7 8 4q5 -2 7 -12q2 -11 -1 -17v0zM67 188q-2 -2 -2 -5q-1 -3 -3 -6q-3 -3 -3 -5t-2 -2q-3 1 -3 5q-1 4 1 7q3 3 4 13q0 10 -2 14q-2 3 -2 6q1 3 3 4l3 1l3 -1q6 -3 7 -13
q1 -11 -4 -18v0z" />
    <glyph glyph-name="ellipsis" unicode="&#x2026;" 
d="M91 122q0 -1 4 -8q7 -9 6 -14q0 -5 -5 -2q-6 2 -13 11q-5 7 -2 13t9 2q1 -1 1 -2v0zM132 115q1 -3 5 -8q5 -8 1 -10q-7 -2 -9 2q-1 3 -2 3t-2 3q-2 3 -7 8t-5 7t4 3q6 1 10 -3q3 -2 5 -5v0zM185 94q-3 -2 -4 -1q-2 1 -10 8q-10 11 -9 16t12 -3q8 -5 11 -11q3 -7 0 -9v0z
" />
    <glyph glyph-name="uni300A" unicode="&#x300a;" 
d="M180 172q-4 -3 -4 -5q0 -1 -3 -5q-3 -5 -3 -7q0 -1 -4 -8l-5 -10q-2 -3 -5 -7q-3 -3 -3 -5t-2 -4t-3 -5t-5 -7t-5 -7q-1 -2 -5 -7q-4 -4 -5 -7t-3 -5q-3 -1 -3 -3q0 -1 -2 -5l-2 -4l2 -4q3 -4 10 -10q7 -5 16 -14q10 -9 11 -9t2 -1q1 -2 7 -7q6 -4 6 -6q1 -2 -2 -6
q-2 -4 -7 -1q-5 2 -17 14q-6 6 -10 9q-4 4 -12 11q-17 15 -21 15q-3 0 -3 6q-1 6 3 8q3 2 10 10t8 11q1 1 8 11q8 13 12 20q3 6 6 11q4 6 5 8q0 3 3 6q3 4 4 7q2 4 7 10q4 7 4 8t3 3q3 3 5 3q1 0 2 2q2 2 5 -1q1 -3 0 -7q-1 -3 -5 -6v0zM222 132q-2 -1 -2 -2q0 -2 -3 -7
q-2 -4 -4 -6t-6 -9q-4 -6 -7 -9q-3 -2 -3 -4t-4 -7q-7 -9 -7 -12q-1 -2 3 -3t5 -2q2 -2 6 -4q5 -2 9 -6l5 -3q1 0 5 -3q5 -3 11 -7q6 -5 8 -7t2 -5q0 -10 -9 -2q-6 5 -8 5t-4 3q-2 2 -6 4q-3 1 -7 5q-4 3 -6 3q-1 0 -5 3q-3 3 -7 4q-26 4 -15 18l6 8q2 5 6 9q4 5 4 6t6 9
q6 9 11 15q4 7 10 13q6 7 8 11q2 3 3 4q1 0 2 -2q1 -3 -2 -11t-5 -9v0z" />
    <glyph glyph-name="uni300B" unicode="&#x300b;" 
d="M47 172q3 -7 6 -10q2 -3 2 -4t2 -3q1 -2 13 -25q4 -6 8 -14q5 -7 5 -8t3 -3q4 -5 5 -7q0 -3 -4 -6q-8 -8 -28 -39q-7 -10 -14 -21q-7 -10 -9 -16q-5 -9 -10 -13q-5 -3 -8 2q-3 7 12 26q9 13 13 20t11 17q7 11 10 16q2 5 5 8q5 7 1 12q-2 3 -7 14q-7 12 -11 20l-3 6
q-3 5 -4 8q0 3 -3 6q-4 6 -6 11q-1 4 -5 8q-3 3 -3 4q-1 2 -1 4q2 7 5 7q4 0 8 -7q5 -6 7 -13v0zM83 176l2 -4q1 -1 2 -4q1 -2 5 -7q3 -3 8 -10q4 -6 4 -7t5 -7t8 -12q3 -7 6 -11q6 -9 8 -18q1 -9 -2 -13l-4 -6q-2 -2 -6 -8q-4 -5 -8 -11l-18 -24q-9 -12 -10 -14
q-7 -10 -9 -10q-1 0 -4 3t-3 4q0 3 2 6q2 4 4 6q3 2 9 10q7 8 8 10q0 2 5 6q4 5 7 10q2 5 6 9q3 4 5 10q3 5 3 7t1 3t0 3q-7 13 -7 16q0 1 -2 3q-2 3 -3 7t-7 11q-12 16 -16 23q-9 13 -15 24q-2 4 -3 5q-1 2 0 4q4 2 6 1q3 -1 7 -6q5 -6 6 -9v0z" />
    <glyph glyph-name="uni4E16" unicode="&#x4e16;" 
d="M98 183q0 -12 -1 -14q1 -5 5 -5q1 0 8 2q4 1 8 0q5 0 6 2t-1 10q-1 7 3 7q2 -1 5 -3q4 -3 4 -5v-4q1 -3 2 -4h5q2 0 14 2q7 0 8 1t1 5v11q1 6 2 7q3 3 7 -2q2 -3 2 -11q1 -9 2 -9q1 -1 6 -1q5 1 11 1h11q8 1 11 -2q4 -3 -1 -6q-1 -2 -4 -2t-4 1q-1 2 -14 2q-12 0 -14 -1
q-1 -1 -1 -4v-8q5 -26 5 -32q0 -3 1 -5t3 -7q1 -5 1 -7q0 -1 -4 -3q-3 -3 -5 -2q-3 1 -10 -2q-9 -2 -10 -4q-2 -5 -4 -6q-2 0 -3 -1q0 -3 -4 -3q-3 -1 -16 -2q-6 0 -8 1q-1 1 -2 11q1 5 2 30q2 24 1 28q1 8 0 9t-4 1q-4 -1 -9 -2q-5 0 -7 -1t-5 -1q-4 -1 -5 -3v-9t1 -8v-13
q-1 -30 -1 -36q2 -19 3 -21q3 -2 3 -3q-1 -3 3 -6q4 -5 7 -5t6 -2q3 -1 20 -2q15 0 17 1t7 0q9 0 36 4q14 3 21 3q8 0 9 1q2 1 3 0q3 -1 5 -2q3 -1 3 -4q0 -2 -4 -5l-4 -2l-3 2q-3 2 -9 1q-5 1 -10 -1q-10 -2 -16 -3q-5 0 -7 -1q0 -1 -4 -1q-3 0 -4 -1q-3 -2 -16 -2
q-7 2 -8 -1q-1 -1 -4 0q-3 0 -14 -1q-12 0 -22 2q-10 3 -20 10q-3 1 -2 3q0 4 -3 10q-3 7 -3 14q-1 5 -1 7q-1 3 0 22q1 30 1 42q-1 10 -6 8q-2 -1 -3 0q-2 0 -4 -1q-2 0 -7 -1h-9q-1 0 -3 2q-2 1 -1 3q0 5 16 5q7 0 13 1l5 1l-1 5q1 6 0 10q-1 2 0 4q0 2 1 11q1 8 3 11
q1 1 6 -3l3 -3l-1 -15v0zM136 153q2 -1 0 -29q-1 -20 -3 -26q2 -8 4 -9t8 2q3 1 4 1q2 -1 4 1q1 2 6 5t6 3q2 0 2 3q2 2 4 2q3 0 5 3q1 3 -2 6q-1 1 0 3q1 1 0 4q-4 16 -4 26q1 9 -1 12q-4 3 -11 2q-15 -1 -20 -3q-6 -1 -2 -6v0zM62 58q-3 -5 -4 -8q0 -3 -4 -5q-6 -3 -8 1
q-2 2 -3 2h-9q-12 1 -16 5t2 11q3 4 9 2q8 0 10 -4q0 -2 2 -2q3 0 3 -1q1 0 2 2q0 2 1 3q0 2 5 6q5 6 7 5q2 1 4 -2q4 -5 3 -7q0 -2 -4 -8v0z" />
    <glyph glyph-name="uni5F02" unicode="&#x5f02;" 
d="M153 204q-1 -2 -2 -3q-2 -1 -9 -4q-2 -1 -12 -7t-14 -8q-7 -4 -13 -9q-6 -4 -9 -7q-1 -2 3 -1q2 1 9 3q18 2 27 6q22 9 23 2q0 -6 -8 -7h-7q-2 -2 -8 -2q-5 -1 -11 -2q-22 -7 -32 -7q-8 -1 -9 -2t0 -4q0 -3 1 -8q1 -9 7 -12t19 -1q16 2 21 5q3 2 23 8q6 0 13 4q5 2 8 1
q2 0 5 -2q1 -3 -2 -8q-3 -3 -8 -3q-3 0 -6 -1q-2 -1 -11 -2q-16 0 -25 -6q-4 -2 -9 -3q-4 0 -8 -1q-5 -1 -12 -1q-6 -1 -8 0q-1 1 -4 1q-8 0 -13 13q-5 14 -1 32q1 15 4 19q1 5 5 1l2 -4q0 -2 -1 -13q0 -5 1 -4q2 0 11 6q11 8 20 14t15 9q7 4 10 5q6 3 3 5q-6 2 -17 2h-7
q0 1 -9 1q-11 0 -15 2q-3 1 -3 4l-1 1h22q21 0 27 -1q10 -3 13 -4q4 -3 2 -7v0zM169 109q1 -3 3 -8q-2 -4 1 -5q1 -1 7 0q7 1 10 -1q2 -2 -1 -5q0 -3 -4 -4h-7q-4 1 -5 1q-1 -1 -1 -12q-3 -13 -2 -19q0 -9 -1 -20t0 -13q3 -1 -2 -5q-3 -3 -6 -3t-4 6q-3 5 0 8q1 3 1 8
q-1 4 1 21q1 18 2 26q0 1 -4 1t-8 -1q-3 -1 -11 -1t-12 -2q-5 -2 -10 -3t-7 -3t-1 -4t1 -6q-1 -10 0 -14q1 -1 -2 -4q-2 -2 -6 -2q-4 1 -5 4q-2 3 -1 12q1 10 -6 6q-3 -2 -4 -2t-4 -1q-6 -3 -19 2q-11 7 -8 12q1 3 3 3t6 -2q4 -3 10 -5l4 -3l4 2q5 2 8 4l5 3l-1 5q0 5 -1 6
q-2 6 2 8q4 3 6 -2q5 -11 7 -13q1 -1 6 0q5 2 10 3q6 1 9 2q4 1 13 1q9 1 11 2q3 1 2 5q1 7 0 11q0 2 -6 7t-4 7q1 2 9 0q4 -2 8 -7q5 -3 4 -6v0z" />
    <glyph glyph-name="uni7834" unicode="&#x7834;" 
d="M173 202q0 -3 2 -6q4 -1 7 -1q5 2 15 0q10 -1 14 -4l2 -3v-6q0 -6 -3 -10q-3 -3 -3 -6q-4 -3 -8 -7q-5 -6 -6 -6q-2 -1 -6 -4t-5 -5h-3t-3 1q-1 3 12 16q8 9 8 10q0 2 1 2t3 5q1 4 1 5q0 4 -13 5h-10q-2 -1 -2 -7q0 -7 -1 -9q-1 -6 -1 -34q0 -9 -1 -16q-2 -7 -2 -8
q1 -2 7 -2q9 -1 11 -4q3 -5 0 -13q-2 -6 -2 -10q-1 -5 -4 -6q-2 -1 0 -6q3 -5 6 -5q2 0 9 -6l33 -26q6 -6 7 -6q3 0 4 -3q0 -2 -4 -4q-2 -4 -4 -4t-20.5 15t-20.5 19q-4 3 -5 3t-6 6l-5 4l-2 -3q-3 -1 -4 -5q-5 -8 -8 -10q-2 -2 -5 0q-3 1 -3 2q0 2 -5 7q-5 6 -6 6v-1
q0 -2 -1 -6q-1 -5 -1 -14v-9l-3 -3l-2 -3l-4 3l-2 3v11q0 12 1 14q1 4 1 12q0 9 1 13q3 4 4 60q1 5 3 8q2 5 5 5t4 -3v-5q-3 -6 -3 -23q0 -8 -1 -10q-1 0 0 -3v-7t1 -5q1 -1 5 2t6 6q2 2 4 16q1 15 2 34q0 9 1 16q1 8 0 9t-5 0q-5 -1 -6 -2q0 -1 -3 -3q-2 -1 -5 -1
q-2 0 -4 -1q-1 -2 -3 -2q-1 2 -1 3q0 3 5 7t8 5q11 2 11 6v4q1 2 0 5q-1 7 0 11q3 3 6 1q1 -2 3 -7q2 -4 2 -7v0zM171 99q0 -3 -5 -5q-4 -2 -6 0q-1 2 -3 2q-1 0 -3 -3q-4 -2 -5 -2q-5 1 -5 -10v-6t2 -1q3 0 3 -4q0 -1 4 -6q3 -4 5 -4q1 0 6 5t5 8q0 1 -2 4q-3 2 -5 2l-3 3
t-6 3q-2 -1 -3 0q0 1 1 2q5 5 18 -2q6 -1 6 0q2 0 3 3q0 4 2 6q3 8 -4 9q-4 0 -4 -1q-1 0 -1 -3v0zM111 179q-4 1 -7 0q-10 -2 -23 -2q-1 0 -1 -3q0 -2 -2 -4q-3 -3 -5 -10q-4 -7 -4 -12q-3 -6 -4 -9q-2 -2 -2 -6q0 -3 2 -3q7 1 19 0q12 0 19 -2l8 -2q9 -1 9 -7q0 -3 1 -4
t1 -7q-1 -6 -1 -20q-1 -21 -2 -26q0 -5 -3 -9q-4 -3 -5 -3q-3 0 -8 -5q-3 -1 -7 -2q-4 -2 -7 -2q-11 0 -14 1q-5 1 -7 4q-5 4 -5 6v22q0 26 1 32q0 8 4 10q3 4 6 2q2 -2 1 -7q-1 -3 -1 -11q1 -7 -1 -9q-1 -2 0 -3q1 -3 0 -14q-1 -15 1 -18q1 -3 9 -3q12 -1 17 3q7 3 9 14
t2 32q0 13 -5 16q-6 3 -24 3q-9 -1 -10 1q-3 3 -9 0q-4 -4 -7 -12q0 -5 -2 -7q-1 -3 -1 -4q0 -2 -2 -6q-2 -5 -2 -8q-1 -4 -2 -5q-2 -3 -2 -6q-1 -10 -4 -16q-2 -4 -2 -6q0 -4 -5 -6q-6 -1 -7 2t1 10t3 8q1 0 1 2t5 11q3 7 3 9q0 3 4 10q0 2 1 7q1 7 2 10q2 3 4 10q2 9 4 12
q1 2 3 12q2 9 4 12q4 9 2 11q-2 1 -14 -1q-15 -3 -25 -2q-9 3 -5 8q2 2 3 0h11h12q2 1 10 2q10 2 23 4q20 2 25 4q7 2 10 -2q4 -3 2 -5q-1 -3 -5 -1v0z" />
    <glyph glyph-name="uni7A7A" unicode="&#x7a7a;" 
d="M134 200q-4 -5 -4 -6l-4 -3t-5 -3q-2 0 -5 3q-5 5 -14 8q-9 2 -9 10t8 9q6 1 7 -2q1 -2 3 -2q1 0 5 -3q6 -5 6 0q0 1 3 6q3 4 5 5t5 -2q13 -5 -1 -20v0zM70 172q0 -16 1 -21l2 -6q-2 0 0 -5q0 -4 1 -8q0 -3 2 -9q1 -9 -3 -11t-7 5q-1 2 -1 10q-1 13 -2 23q-1 2 -2 9
q-1 6 -3 7t-3 4q0 3 2 3t3 3q1 2 1 5q0 5 3 9q3 3 4 0q2 -2 2 -18v0zM194 158q-1 -2 -2 -6q0 -3 -3 -7q-1 -5 -1 -6t-3 -4q-3 -1 -3 -3q0 -1 -1 -3q-3 -2 -3 -4q0 -1 -1 -1q-4 -1 -4 0q-2 0 -2 2q0 1 2 5q0 3 7 15q4 9 4 16q1 7 -3 7q-1 0 -3 1q-2 3 -9 3t-9 -2q-2 -1 -4 0
q-3 2 -6 1q-4 -1 -10 -1t-7 1t-2 0t-6 0q-6 1 -7 0l-6 -3h-5q-3 0 -6 -1q-4 -2 -11 -2q-8 0 -9 1q-1 2 3 5q3 2 10 4q6 1 7 1q6 4 29 4q19 0 24 2q11 4 25 1q9 -3 13 -11q5 -8 2 -15v0zM114 145q-3 -5 -6 -14q-4 -9 -4 -10q-1 -1 -3 -9q-2 -9 -3 -12q0 -2 -2 -4q-1 -1 -1 -3
q0 -1 -2 -6q-3 -8 -3 -18q0 -2 -3 -5q-3 -4 -4 -4t-3 4q-2 2 -2 3q1 2 3 10q2 5 4 12l6 16q2 9 4 12q0 5 3 10q1 6 2 9q1 4 3 7v5q0 4 5 6q4 2 6 -1q1 -2 1 -4q0 -1 -1 -4v0zM165 128q4 -5 6 -8q1 -2 5 -4q3 -3 5 -3q2 -1 0 -7q-2 -4 -4 -4q-3 0 -8 7q-6 6 -8 11q-4 6 -7 8
q-4 3 -5 6l-6 8q-5 3 -5 6q0 2 5 2q2 0 3 -1q3 -2 8 -7q7 -8 11 -14v0zM144 100q-6 0 -7 -1q-1 -3 -3 -14q0 -14 -3 -19q-1 -2 -1 -13t1 -12t18 1q16 1 20 2t7 0q1 -1 6 -1q7 0 11 -2q1 -1 1 -4t-2 -4q-2 -2 -3 -2q-2 0 -6 1q-3 1 -14 0q-11 0 -19 -1h-14q-3 -1 -5 0
q-1 1 -4 1q-4 -1 -5 -2q-2 -1 -14 -2q-15 0 -16 2q-2 1 -2 3t1 3q1 0 11 1q11 0 15 2l4 1v3q1 21 3 32q1 7 1 10q0 4 1 7v6q-1 1 -4 -1q-4 -2 -11 -2q-8 0 -8 2q-1 5 8 5q7 1 16 4q13 4 22 4q1 0 3 -1q3 -3 1 -7q-3 -3 -9 -2v0z" />
    <glyph glyph-name="uni7AD9" unicode="&#x7ad9;" 
d="M78 195q1 -5 3 -7q3 -1 4 2q2 6 7 8t8 0t2 -8q0 -3 -4 -8q-3 -5 -5 -5q-1 0 -2 -1q-3 -3 -3 -5q-1 -1 -3 -1q-3 0 -5 1t-6 1q-7 1 -12 6q-2 2 -4 3q-4 2 -1 7q2 6 5 8q2 0 3 2q2 0 6 1q4 0 5 -1q1 0 2 -3v0zM174 183q1 -6 2 -13t1 -17q0 -9 1 -9q1 -1 11 1q11 4 15 5
q1 1 4 0q3 0 3 -2t-4 -5q-3 -4 -9 -5q-13 -2 -16 -4q-4 -2 -6 -7q-1 -5 0 -17q0 -10 1 -11t10 -1q11 0 13 -2q2 -1 3 -1t2 -1q1 -2 3 -2t4 -3q2 -4 2 -9l2 -4q2 -2 2 -8q1 -6 -1 -8l-2 -3q0 -3 -7 -7q-8 -4 -17 -7q-7 -2 -9 -3q-2 -3 -9 -4t-11 -1q-5 1 -6 1q-2 -1 -2 0
t-2 1q-4 0 -10 6l-2 3l-1 17v22t2 7t4 3q5 0 9 2q4 1 7 1q1 0 2 2q0 1 1 12q2 10 3 31v19t-1 8q-1 16 -8 23q-3 4 5 4q3 0 4 -1q1 0 4 -3q3 -4 3 -10v0zM161 88q-4 0 -6 -2t-3 -1q-3 3 -4 -1q-1 -5 0 -10t2 -21q0 -4 13 -6q12 -1 18 3q4 3 14 5q3 0 5 2l4 3q1 0 3 2t2 4
q1 2 -2 8t-3 9q-1 3 -9 7q-8 2 -10 0q0 -1 -4 -1q-2 0 -4 -1t-4 0q-3 3 -8 2q-3 -2 -4 -2v0zM111 138q-2 1 -4 1q-1 -1 -5 -1q-20 -2 -23 -3q-1 -1 -2 -1q-2 2 -20 -3l-10 -2l-3 3q-5 6 4 6h9q5 1 7 2q1 2 5 3q5 0 6 1q2 0 8 1q16 3 21 5q6 1 12 0q5 -3 2 -7q-1 -6 -7 -5v0z
M109 114q1 -2 0 -14q-1 -10 -2 -11q0 -1 -1 -4q0 -6 -2 -11q-1 -5 -3 -11t-1 -6q0 -1 3 -1q2 1 8 2q13 3 15 5q2 4 4 1q3 -2 3 -7q-1 -3 -3 -4t-8 -3q-5 -1 -9 -2t-11 -1q-4 0 -5 -1q-2 0 -3 -1l-2 -2q-3 1 -9 -1q-6 -1 -8 -5q-2 -2 -3 -2h-2q-1 -2 -3 -2l-6 -3q-2 -2 -7 -2
q-4 0 -5 2t-1 4q0 1 1 2q3 1 3 3q1 1 5 2q4 0 9 4q6 3 7 3q2 1 2 4q1 3 -1 5q-1 3 -2 7t-3 7q-1 3 -1 5q1 2 0 5q-3 15 -3 20q-1 7 2 7q4 0 6 -4q2 -3 2 -8q0 -9 2 -17q2 -6 5 -5q2 0 2 -1q1 -2 1 -7v-5q0 -4 3 1t6 17q3 11 4 13q0 2 1 10q3 16 5 18q0 2 2 1t2 -2q1 -2 1 -5
v0z" />
    <glyph glyph-name="uni9752" unicode="&#x9752;" 
d="M136 211v-11q1 -1 3 -1q3 0 4 1h1q3 0 9 -1q4 0 5 -1q1 0 1 -2v-2l-10 -1q-9 -1 -12 -1q-1 -2 -1 -9q-1 -9 0 -9q0 -1 6 -1q11 0 8 -4q-1 -3 -14 -7v-3v-4v-5v-7l-1 -3h8q7 2 13 2q6 1 13 2q9 1 13 2h7q2 -1 2 -4q0 -5 -2 -5q-2 -1 -11 -2h-16q-22 -2 -39 -5
q-10 -1 -21 -1l-15 -3q-8 -1 -15 0q-7 2 -7 5q0 2 3 2q2 1 15 1q16 1 22 2q7 1 15 2q12 2 7 5q-1 1 -3 7q-3 5 -3 6q0 2 1 2h2q1 -1 2 -1q1 1 1 2q0 3 -2 3h-6q-6 -2 -11 -4h-5q-2 0 -2 2t2 2q2 1 3 1q2 0 7 3q6 2 10 3q3 1 4 2q1 3 0 11v8h-9q-9 0 -12 -1q-7 -2 -20 -2
q-8 0 -9 2q-1 3 6 3q21 4 32 5q9 0 11 2q2 1 2 9q0 9 -1 9q-2 1 -2 4q0 1 2 2q3 2 7 -2l2 -1v-9v0zM168 100q0 -3 1 -6t2 -15q1 -13 2 -19v-13q1 -7 1 -13v-5q-1 -2 0 -4q3 -6 0 -8q-4 -3 -8 2l-4 4q-6 6 -13 16t-6 11q1 0 4 -1q3 -2 3 -3l7 -7q6 -7 7 -7t0 15v15q-2 2 -6 0
q-2 0 -10 -3q-8 -1 -14 -4q-6 -2 -13 -3q-10 -1 -10 -3q0 -1 -3 -4l-3 -3q-2 0 -4 3l-2 2v31q0 20 1 25q0 5 1 6q2 0 2 1t1 2q1 0 2 -2q2 -1 2 -8q0 -11 3 -10q7 2 19 1q13 -2 13 -5q0 -1 -6 -9q-5 -9 -9 -14q-6 -7 1 -4q6 3 17 5q3 1 8 3q3 1 5 1q3 0 3 1q1 3 0 16
q-2 14 -4 17q-1 4 -1 6q0 7 -20 4q-7 -1 -8 -1q-1 -1 -1 -3q0 -4 -2 -6l-2 -1l-1 1q-1 4 -3 5q-2 2 -2 4q1 4 6 5q6 3 19 3q13 1 16 -1q4 -3 7 -8q2 -7 2 -12v0zM113 86q-3 0 -4 -3q-1 -1 0 -8t2 -11v-3q2 0 9 5q6 8 7 10q1 3 3 5q1 4 -2 6q-4 2 -9 0q-1 -1 -6 -1v0z" />
    <glyph glyph-name="uniFF01" unicode="&#xff01;" 
d="M58 204q-2 -3 -3 -9q0 -4 -5 -30q-2 -10 -3 -11t-3 -14t-3 -19t-1 -19q-1 -12 -1 -13q0 -2 -3 -3q-7 -4 -10 6t1 27q1 8 2 12t3 11q1 8 3 13q1 6 3 16t3 14t1 14t3 14q2 3 9 3h4v-6q1 -5 0 -6v0zM36 23q-5 0 -8 5q-3 4 -2 8q0 5 5 6q5 2 8 -1q2 -2 1 -10t-4 -8v0z" />
    <glyph glyph-name="uniFF02" unicode="&#xff02;" 
d="M53 215q0 -6 2 -13q1 -6 0 -8t-3 -2q-5 1 -9 15q-3 15 0 19q2 2 3 2t4 -3l3 -3v-7v0zM33 190q-2 -4 -5 -1t-4 9q-1 4 -3 7q-4 4 -4 9q0 4 3 5q2 1 6 -3t7 -13q2 -9 0 -13v0z" />
    <glyph glyph-name="uniFF03" unicode="&#xff03;" 
d="M152 178q0 -3 3 -3q2 -1 11 0q16 1 22 1q5 -1 6 -5q0 -2 -4 -5q-3 -4 -6 -4q-1 0 -4 -2q-4 -2 -7 -2q-3 1 -4 3q0 2 -1 3h-4q-6 0 -7 -2t0 -11q1 -26 0 -35q-1 -4 1 -5t11 2q11 2 12 4q4 4 12 1q8 -2 8 -8q0 -2 -3 -4q-2 -2 -4 -1t-20 -4t-18 -7l-1 -13q-1 -12 0 -20
q1 -9 -2 -12t-8 2q-3 2 -3 5v21v11q0 4 -3 3q-1 0 -12 -4t-13 -6q-1 -2 -1 -16q0 -13 -1 -16q-2 -3 -7 -3q-4 0 -5 2q-1 3 -1 14q-1 10 -2 12q-1 1 -6 -1q-4 -3 -8 -4t-7 -3t-4 -2t-2 3q-3 4 0 7t12 7q17 7 18 12q5 24 7 43q0 9 1 13q1 5 0 6t-5 1q-21 -3 -36 -3
q-16 0 -17 4q-2 5 2 6q5 2 21 3q18 0 27 1l10 2l1 4q1 7 2 8q2 2 5 2q7 0 6 -7q-1 -4 1 -6q1 -1 7 0q7 1 8 3q1 1 1 7q-1 9 2 11q2 2 6 -6q3 -5 3 -7v0zM122 154q0 -3 -2 -14t-3 -23q-1 -11 -2 -16q-1 -7 5 -4q3 1 13 5q10 3 10 4q2 1 2 24t-1 28q0 2 -3 3q-2 0 -10 -1
q-6 -1 -7 -2q-2 -1 -2 -4v0z" />
    <glyph glyph-name="uniFF05" unicode="&#xff05;" 
d="M141 198q-2 -2 -2 -8q-1 -5 -3 -7q-1 -3 -1 -4q0 -3 -6 -6t-9 -2q-7 2 -10 5q-4 3 -5 9t-3 7q-2 3 1 8q1 3 1 5q0 4 5 4q3 0 5 2q1 2 4 2t7 2q7 3 12 -1q3 -2 4 -8q2 -5 0 -8v0zM116 192q0 -8 5 -9q5 0 8 7q5 9 3 12q-1 3 -9 0q-5 -3 -6 -5q-1 -1 -1 -5v0zM174 173
q-3 -4 -8 -12q-6 -9 -7 -11q0 -1 -1 -3q-3 -3 -13 -23q-2 -4 -4 -7t-4 -7t-7 -12q-4 -7 -7 -13q-4 -6 -5 -9l-2 -4q-2 -3 -7 -15l-6 -12q-2 -1 -3 -5q-1 -3 -3 -5l-5 -10t-5 -11q-1 -6 -6 -3t-5 9q0 5 4 11q3 6 5 9q3 6 8 12q2 3 2 4t3 6t3 6q0 2 3 7q2 5 2 6t2 2q1 2 10 19
q1 3 5 8l6 10q2 6 5 9l4 8t3 5q1 2 5 8q3 7 5 10t5 9q7 11 12 15q6 4 9 0q2 -3 2 -5q-1 -2 -5 -6v0zM163 45q-1 -2 -1 -4q0 -3 -1 -4q-2 -1 -6 -9q-2 -4 -3 -4t-2 -2q-1 -4 -7 -8t-9 -3q-6 1 -9 7q-3 7 -1 15q4 23 12 30q8 8 21 2t6 -20v0zM141 51q0 -1 -2 -4q-3 -3 -3 -11
q-1 -8 1 -9q2 -2 9 6t8 15q2 6 -4 9t-8 -3q-1 -2 -1 -3v0z" />
    <glyph glyph-name="uniFF06" unicode="&#xff06;" 
d="M131 208q0 -2 2 -5q5 -5 5 -18q0 -14 -5 -23q-2 -4 -2 -5t-2 -5q-3 -3 -4 -8q-4 -8 -11 -17q-2 -3 -2 -5q1 -3 4 -8q3 -3 6 -9q2 -5 2 -7t3 -5q2 -2 6 -11q5 -10 8 -13q2 -2 4 2l2 8q2 5 3 9t6 9q4 6 6 5q1 -1 1 -4q0 -2 -1 -5q-2 -2 -2 -11q-1 -9 -4 -14q-3 -4 -5 -9
l-1 -4l4 -4q5 -4 11 -8t8 -4q1 0 5 -2q4 -3 5 -3q4 -2 10 -6q5 -4 7 -7q2 -4 -1 -6q-2 -2 -7 1q-4 2 -7 2q-4 0 -13 4q-9 5 -14 9q-4 3 -5 3t-3 3q-2 2 -4 2q-1 0 -2 2q-1 1 -3 1t-3 -2q-3 -5 -14 -12q-12 -7 -17 -7q-16 -1 -21 2q-6 2 -13 12q-10 13 -10 30q0 16 9 30
q13 17 19 23q6 8 3 11q-1 1 -2 6q-3 14 -4 19q-1 4 -1 8t-2 16q-3 16 -2 29q2 12 7 14q3 1 5 2q7 4 19 1q6 -2 12 -7q5 -5 5 -9v0zM92 203q1 -1 3 -2q1 -1 2 -7q1 -5 1 -11t2 -10q1 -3 1 -4q-1 -1 1 -14q3 -13 4 -13t5 4q3 5 4 8q1 4 2 5t2 5t2 6q5 11 2 21q-2 10 -9 15
q-8 6 -17 3q-4 -2 -6 -4q-1 -1 1 -2v0zM84 89q0 -1 -3 -7t-4 -7q-1 -2 0 -7q1 -4 2 -11q1 -6 3 -11q2 -4 2 -5t5 -3t11 -2q11 -2 22 6q12 9 9 15q-2 3 -2 4t-3 5q-3 5 -4 8q-1 4 -3 7q-3 3 -6 9q-3 7 -5 10q-1 3 -3 6q-2 4 -4 3q-1 -1 -8 -9q-9 -10 -9 -11v0z" />
    <glyph glyph-name="uniFF07" unicode="&#xff07;" 
d="M27 180q-3 0 -7 12q-3 14 -8 25q-3 6 1 11t10 2q4 -1 6 -26q2 -24 -2 -24v0z" />
    <glyph glyph-name="uniFF08" unicode="&#xff08;" 
d="M215 178q-2 0 -3 -1t-3 -4q-2 -4 -6 -9q-3 -4 -4 -8t-2 -7q-3 -5 -6 -21l-3 -12t-2 -14v-14q2 -21 5 -25q1 -3 1 -4q0 -8 15 -19q15 -12 31 -16q7 -2 8 -3q2 -1 0 -3q0 -1 -9 -1t-10 1t-4 1q-2 0 -5 2q-2 2 -5 2q-2 1 -7 4q-4 3 -6 4t-10 9t-9 10l-2 6l-2 6q-4 13 -4 33
q-1 20 4 34q3 9 3 12q0 2 3 12q4 9 6 13q3 5 5 8q4 10 11 13q7 4 13 1q5 -2 4 -6t-7 -4v0z" />
    <glyph glyph-name="uniFF09" unicode="&#xff09;" 
d="M47 172q1 -3 5 -8q7 -8 7 -13q0 -1 1 -4q5 -11 8 -28q2 -17 1 -26q-2 -14 -4 -20q-1 -3 -2 -7q-1 -5 -5 -12q-3 -7 -4 -7t-1 -2q0 -1 -3 -5l-4 -8t-7 -9t-6 -5q-2 1 -1 3q0 3 3 10q4 9 7 14l3 9q2 3 2 4q0 2 2 6q5 17 6 23q2 26 -4 45q-2 7 -3 11t-3 8q-1 4 -1 5t-10 14
q-9 11 -10 15t5 4q4 -1 5 -1q2 0 7 -7q6 -7 6 -9v0z" />
    <glyph glyph-name="uniFF0B" unicode="&#xff0b;" 
d="M147 141q0 -7 1 -8q2 -1 10 -2t11 -2q3 0 5 -2q4 -4 1 -6t-15 -2q-10 1 -12 -1q-1 -1 -2 -10t-1 -10q-1 -1 -1 -14q-1 -10 -1 -13q-1 -3 -4 -3q-3 1 -4 6t-2 22v16q-1 4 -3 4q-1 0 -10 -2q-8 -2 -13 -3q-7 -1 -21 -5q-7 -2 -8 4q0 5 5 7q6 3 22 7q9 2 12 3q4 1 9 2
q5 0 6 2q1 1 1 6q0 10 3 14t8 0q1 -2 2 -3q0 -2 1 -7v0z" />
    <glyph glyph-name="uniFF0C" unicode="&#xff0c;" 
d="M48 41q-6 -6 -6 -8t-3 -6q-4 -3 -6 -7t-5 -7q-2 -3 -2 -5q0 -1 -3 -5t-5 -8q-2 -5 -6 -7q-3 -2 -3 1q0 2 2 9l3 9l2 3q0 1 3 7q2 6 5 11q9 20 12 22q2 1 2 3q0 4 4 5q3 1 7 -1q4 -3 4 -7q0 -3 -5 -9v0z" />
    <glyph glyph-name="uniFF0D" unicode="&#xff0d;" 
d="M156 112q-7 0 -12 -1q-4 -1 -11 -1q-7 -1 -15 -2q-15 -2 -22 1q-8 2 -5 7q1 4 7 6q7 3 9 0q2 -1 12 0q33 3 42 -1q6 -2 4 -6q-2 -3 -9 -3v0z" />
    <glyph glyph-name="uniFF0E" unicode="&#xff0e;" 
d="M37 23q1 -1 5 -3q10 -5 14 -11q4 -5 1 -9q-1 -3 -3 -3q-3 0 -4 2t-6 5q-4 2 -7 5q-2 2 -8 4q-9 2 -11 8q-3 5 5 6q6 1 10 -1t4 -3v0z" />
    <glyph glyph-name="uniFF0F" unicode="&#xff0f;" 
d="M151 182q-1 -1 -3 -14q-6 -21 -9 -30q-2 -6 -5 -18q-2 -11 -5 -20q-2 -8 -2 -14q-1 -9 -3 -20q-3 -11 -5 -13q-1 -2 0 -2q0 -1 -2 -11q-1 -9 -2 -12q-2 -2 -3 -7q-1 -9 -5 -7q-4 1 -4 12v11q-1 3 1 9q3 7 3 8q0 3 2 6q1 5 1 8q0 7 8 37q4 11 6 24q1 5 2 7q1 3 1 5
q0 4 1 5q1 0 1 3q0 4 1 5q1 0 3 9q1 10 2 11t1 8q2 28 14 18q2 -3 3 -8q0 -7 -2 -10v0z" />
    <glyph glyph-name="uniFF10" unicode="&#xff10;" 
d="M173 161q0 -2 1 -4q4 -5 5 -15q0 -7 1 -19q2 -21 0 -29q-1 -3 0 -4q0 -1 -2 -6q-4 -7 -5 -14q-1 -3 -3 -7q-3 -4 -3 -5q0 -3 -2 -5q-3 -2 -3 -4q0 -1 -2 -5q-3 -3 -3 -5q0 -1 -4 -4q-4 -4 -6 -8q-8 -13 -22 -17q-16 -6 -30 1q-13 6 -16 17q-5 10 -5 37q0 19 1 29
q1 12 5 23v7q0 3 2 6q2 4 2 7q0 1 2 2q1 1 1 2q0 5 9 18q8 14 12 15q2 2 7 3q6 0 7 2q3 2 13 4q5 1 6 2q2 1 8 -1q6 -1 8 -3q3 -2 10 -10q5 -8 6 -10v0zM99 140q0 -1 -2 -6q-5 -10 -5 -16q0 -1 -1 -4q-4 -5 -5 -36q-1 -32 3 -39q1 -2 2 -6q6 -14 30 -10q8 2 20 13
q11 12 16 23q2 6 5 12q4 7 5 11l2 6t2 11q1 9 1 15q-1 8 -1 18q-1 18 -6 24q-2 3 -2 4l-3 4q-4 5 -6 6q-2 2 -7 2q-6 0 -10 -1q-16 -5 -27 -14t-11 -17v0zM128 112q1 -3 2 -3t6 2q7 4 11 0t0 -10q-2 -4 -4 -7q-5 -9 -6 -9q-2 0 -5 -1q-4 -2 -7 1q-4 5 -6 12q-1 3 -3 5t-2 8
q0 7 2 7q2 1 3 1t4 -1q3 0 5 -5v0z" />
    <glyph glyph-name="uniFF11" unicode="&#xff11;" 
d="M138 171q-1 -2 -1 -8q-1 -12 -2 -50q-1 -14 -2 -19q-1 -7 -3 -47q0 -27 -2 -34q-1 -6 -6 -6q-4 0 -5 4q-1 5 0 15q2 11 2 18q0 8 1 11q0 4 1 17q1 14 1 22q1 11 3 40q0 14 1 26q0 13 -1 14q-3 5 2 11q6 3 9 0q2 -3 2 -8q1 -3 0 -6v0z" />
    <glyph glyph-name="uniFF12" unicode="&#xff12;" 
d="M156 197q-3 -2 -3 -6t1 -5t8 2q5 4 9 2q4 -3 6 -10q1 -7 -2 -11t-14 -9q-7 -3 -7 -5v1q-4 0 -4 -3v-5q2 -17 1 -26q-2 -9 -8 -24q-3 -10 -3 -12q0 -1 -2 -4q-10 -14 -18 -27q-2 -5 -11 -14q-7 -9 -7 -13q2 -3 10 -3q27 3 28 2q2 -2 9 -2q5 2 6 3q1 2 6 0q4 -3 5 -9l1 -4
l-1 -2h-2q-2 -1 -11 0q-13 2 -20 0q-4 0 -10 1q-4 1 -8 0q-2 -1 -6 -1q-16 0 -19 -3q-4 -2 -7 1q-4 2 -2 7q1 4 7 12l8 9q3 0 5 6l6 6q4 4 4 6q0 1 1 2q2 3 10 18q9 15 9 16l5 12q6 17 6 35q0 19 -8 30q-3 2 -10 2q-8 2 -12 -2q-1 -1 -2 0q-3 0 -9 -6q-5 -5 -5 -11
q0 -2 -1 -2h-2q-6 8 1 18q6 9 18 14q13 4 22 -2q4 -3 6 0q2 1 1 9q-1 11 1 15q0 4 6 4q3 1 4 0q1 0 2 -3l2 -9v0z" />
    <glyph glyph-name="uniFF13" unicode="&#xff13;" 
d="M155 145q-2 -3 -2 -5q0 -1 -3 -6q-3 -6 -6 -8q-2 -1 -2 -2q0 -2 -3 -7q-6 -2 -13 -10l-11 -11q-5 -3 -3 -4q0 -1 11 -2q15 -1 24 -4q11 -4 22 -10q2 -1 6 -7q3 -6 3 -9q1 -2 1 -8q-1 -5 -2 -5t-1 -3q0 -4 -11 -15q-11 -10 -14 -9q-2 0 -4 -3q-3 -3 -4 -3h-2q-2 -2 -33 -6
q-5 -1 -8 2q-5 3 -5 8v3l12 -1q14 -2 25 1q11 4 22 14q8 5 9 8t4 9q1 5 0 9q-2 6 -5 8q-1 1 -5 2q-6 4 -18 7q-13 2 -21 2q-5 -1 -10 0q-4 -1 -6 -2q-6 -3 -13 -3q-6 -1 -7 2q-4 4 -2 6t13 10q5 3 15 11t10 10l7 6q6 6 8 9q1 3 6 10q8 12 6 22q-2 9 -12 12q-5 1 -12 0
t-10 -4q-10 -7 -13 -8q-4 -2 -5 -1q-4 3 -4 5q2 4 8 9q10 8 22 11q12 2 22 -2q10 -3 14 -16q5 -13 0 -22v0z" />
    <glyph glyph-name="uniFF14" unicode="&#xff14;" 
d="M127 174q-11 -2 -27 -28q-6 -6 -10 -15q-4 -5 -8 -14q-5 -7 -5 -8t-5 -8q-4 -10 -7 -22q-2 -13 2 -18q2 -1 5 -2h6q0 1 4 1q4 1 22 8q15 5 17 8q1 1 2 12q1 9 0 18q-1 11 0 20q1 8 3 12q2 6 4 1q3 -7 2 -20v-12v-13q1 -11 2 -12q1 -2 5 0q0 1 8 6q7 4 9 6q3 1 6 3
q7 4 4 8q-3 6 -3 13q0 8 2 10t8 0q3 -1 3 -5q0 -2 2 -3q2 -2 1 -6q-1 -11 5 -4q4 8 12 8q7 0 7 -7q0 -6 -3 -9q-3 -4 -10 -8q-5 -1 -9 -5q-3 -3 -5 -4h-5q-8 -1 -9 -2t-3 0q-2 0 -5 -2l-8 -8l-7 -2q-3 0 -6 -3q-2 -4 -2 -9v-25l-1 -21l-2 -3q-4 -5 -7 -1q-3 5 -3 18q0 8 1 9
q2 3 3 13q0 12 -2 11q-2 0 -15 -4q-12 -5 -15 -7q-18 -8 -27 -2q-10 6 -9 24q0 11 3 21q2 7 9 18q3 6 4 9q3 4 6 9q3 6 7 13q6 9 8 11q2 4 8 12t8 12q9 14 21 8q3 -2 3 -5q0 -4 -4 -5v0z" />
    <glyph glyph-name="uniFF15" unicode="&#xff15;" 
d="M103 172q-1 -6 0 -9t7 -1t14 4q9 1 14 3q9 3 14 0t-1 -9q-1 -3 -3 -4q-1 0 -10 -1q-10 0 -12 -2q-3 -1 -7 -1q-3 0 -4 -1q-1 0 -5 -1q-7 -3 -8 -6q-2 -4 -2 -23q1 -12 2 -15q0 -1 4 -2t9 -5q7 -3 11 -4q4 0 5 -1q3 -1 14 -5q11 -2 19 -6q9 -4 11 -8q4 -7 6 -21
q0 -14 -3 -18q-2 -1 -2 -5q-1 -2 -8 -8q-7 -7 -9 -8q-2 0 -5 -2q-2 -2 -4 -2q-1 0 -3 -2t-6 -1q-3 1 -36 -1q-7 0 -12 2q-4 2 -5 2q-2 0 -6 5q-4 6 -4 9q0 2 -1 3q-2 1 3 2q2 1 5 -2q2 -2 6 -5q2 -2 4 -2t4 -1q4 -2 12 -1q9 1 21 1q13 2 15 3t3 2q8 4 13 13q6 11 4 17
q-1 4 -1 8q0 7 -6 9q-1 1 -12 5q-11 3 -13 3q-1 0 -4 2l-4 1q-2 -1 -15 4q-7 2 -13 4q-7 2 -8 3q-2 0 -2 11q0 12 1 23q1 8 1 32v15q0 7 3 11q4 4 8 1q2 -3 1 -15v0z" />
    <glyph glyph-name="uniFF16" unicode="&#xff16;" 
d="M129 176q-2 -2 -3 -5t-2 -4q-1 -2 -15 -41q-2 -7 -5 -11q-2 -5 2 -6t12 2q4 1 10 1q17 0 27 -7q10 -6 15 -21q2 -5 3 -13t-1 -9q-1 -1 -1 -3q0 -6 -4 -11q-3 -4 -3 -5t-5 -7q-6 -4 -7 -8q-2 -4 -12 -12q-7 -4 -20 -7q-14 -3 -21 0l-8 4q-4 3 -4 4t-2 5q-2 3 -3 8
q-1 6 0 20q1 16 2 16q0 1 2 8l1 8v6v5t1 4q2 5 6 16t4 15q1 4 2 9q15 32 15 34t3 6q3 6 6 8q8 5 7 -2q0 -4 -2 -7v0zM118 101q-5 -1 -9 -2q-6 -1 -7 -3q-2 -1 -4 -14q0 -4 -1 -8q-3 -8 -4 -11q-1 -4 -1 -14q-1 -15 0 -18q1 -4 6 -7q3 -3 9 -5q4 -2 5 0q2 1 8 2q8 1 15 5
q5 4 8 5q1 1 4 5q4 3 4 4t4 5q11 15 10 28q-1 9 -7 18q-5 7 -11 7q-2 0 -2 1q-1 0 -5 2t-5 2l-7 -1t-10 -1v0zM123 67q1 -4 2 -4t5 1q7 5 12 5q3 0 5 -5q4 -4 -8 -16q-6 -5 -6 -6q0 -2 -2 -1q-1 1 -6 0q-9 -1 -10 11q-1 5 -2 7q-3 8 -2 12q2 3 9 0q2 -1 3 -4v0z" />
    <glyph glyph-name="uniFF17" unicode="&#xff17;" 
d="M101.5 183.5q13.5 2.5 29.5 2.5t24 -3l4 -2q1 0 5 -2q4 -1 5 -3q2 -1 2 -4q0 -4 -1 -7q-2 -5 -5 -14q-2 -6 -4 -8q-2 -3 -5 -15q-3 -10 -3 -14q-1 -7 -2 -10q-2 -3 -2 -4t-1 -6q-1 -6 -1 -10q-1 -2 -5 -13q-4 -16 -5 -23q-1 -6 -4 -15q-1 -3 0 -5q0 -2 -1 -5q-1 -4 -1 -8
q0 -3 -3 -6q-4 -3 -6 -2q-3 1 -4 7q-1 7 1 10q2 2 2 6q1 6 3 12q1 6 2 10q0 4 2 9q8 28 9 35q0 5 1 6q1 0 1 3q-1 2 0 3q1 0 4 11q4 9 4 12q0 1 1 4v5q0 5 4 16q4 8 3 9q0 3 -7 5q-20 9 -42 3t-20 1t15.5 9.5z" />
    <glyph glyph-name="uniFF18" unicode="&#xff18;" 
d="M165 184v-3t-2 -6q-1 -4 0 -4q1 -2 5 -2q7 -1 9 -4q1 -2 0 -5q-1 -5 -2 -5q-1 -1 -5 -4q-3 -1 -6 -3q-5 -2 -7 -2t-3 -2q0 -2 -1 -2t-2 1q-4 2 -4 1q-1 -1 -3 -9q-3 -9 -7 -13q-1 -3 -1 -4t-2 -2t-5 -7l-5 -5l3 -2q8 -8 13 -17q4 -9 8 -24.5t-3 -32.5q-1 -3 -8 -11
q-8 -7 -9 -7h-2q-1 -1 -5 -2q-4 0 -5 -1q-1 -3 -10 1q-8 3 -13 9q-7 7 -10 19q-4 14 -1 23q1 4 1 6q0 3 2 6q9 12 11 15q8 8 7 12q0 5 -8 10q-8 4 -12 13q-1 4 -2 7q0 1 2 9q0 3 1 8q1 6 2 8t1 3q0 3 4 8q5 7 9 10q5 2 5 4h2t2 1q5 7 19 7q12 0 16 -6t5 0t10 9q3 2 6 -2
q2 -2 0 -3v0zM119 175l-3 -1q-2 -3 -5 -3q-7 -4 -13 -15q-4 -10 -6 -25q0 -4 2 -8q2 -5 4 -5q1 0 6 -3q6 -6 9 -6q2 0 6 4q2 4 5 8l5 5q0 2 1 5q2 2 3 7q1 3 2 5t-1 4q-3 1 -3 4t2 5q2 3 4 7q0 3 1 4q4 4 -3 7q-6 4 -13 2q-2 -2 -3 -1v0zM110 87q0 -1 -2 -4l-9 -12
q-6 -9 -6 -22q-1 -11 5 -20q5 -9 14 -11q7 -1 15 5q7 4 10 11q5 6 -0.5 21.5t-5.5 19.5q-2 4 -2 5q0 2 -3 5q-4 2 -4 4q0 1 -2 2q-2 2 -4 2t-3 -3l-3 -3v0z" />
    <glyph glyph-name="uniFF19" unicode="&#xff19;" 
d="M149 158q-2 0 -3 3q-1 2 1 3q1 2 1 6q0 3 -2 4q-3 4 -9 3t-10 -5q-2 -2 -4 -2q-1 0 -5 -5q-4 -3 -4 -4t-3 -4q-4 -3 -6 -9q-3 -7 -3 -8h-1q0 -2 -1 -4q-5 -8 -3 -15q2 -5 9 -6q5 -1 7 0q1 1 3 1t4 1q3 1 5 2q4 1 12 10q10 10 10 11t1 4l4 6q2 1 3 4q3 6 6 9q5 2 7 -1
q3 -4 -1 -12q-5 -9 -7 -21q-1 -4 -2 -5q0 -1 -1 -6q-1 -3 -2 -9q-5 -15 -6 -22q-1 -5 -1 -13q-2 -8 -2 -11q0 -4 -1 -4q-2 -1 -2 -8q-1 -6 -4 -21q-2 -15 -2 -16t-2 -2q-3 -4 -4 -4q-2 0 -4 2l-2 3q0 1 -1 5q-3 6 1 8q3 4 5 16q1 7 4 17q2 12 3 16q0 7 5 25q6 21 5 23
q-1 1 -5 -2q-3 -3 -5 -4q-1 -6 -12 -10t-19 -3q-7 1 -12 3q-3 3 -6 10l-3 4l1 7q2 10 5 13q2 5 4 9q2 3 3 4q2 1 2 2q0 2 2 4q3 2 3 3q0 3 10 11t16 11q13 4 19 -3q7 -7 7 -16q-1 -8 -8 -8v0zM130 154q5 4 8 2q4 -2 3 -6t0 -5q0 -1 -4 -5q-4 -3 -6 -3t-3 -2q-6 -7 -9 5
q-1 4 -3 6t-1 5q1 5 2 6q2 0 6 -2l3 -3q1 0 4 2v0z" />
    <glyph glyph-name="uniFF1A" unicode="&#xff1a;" 
d="M60 140q7 -7 3 -10q-3 -3 -13 2q-6 4 -8 4t-3 2q-1 1 -4 1t-5 2q-2 1 -2 4q0 4 3 4q2 1 14 -2q7 -1 9 -2t6 -5v0zM46 83q1 -1 3 -1t4 -1l6 -3q6 -2 5 -6q-1 -3 -8 -2q-4 0 -8 1q-9 0 -17 4q-8 3 -8 7q0 9 17 4q4 -1 6 -3v0z" />
    <glyph glyph-name="uniFF1B" unicode="&#xff1b;" 
d="M54 145q-1 -3 -2 -3q-2 -1 -6 1q-4 1 -7 1t-7 3q-3 3 -3 5q0 7 4 5h7q6 -1 11 -5q5 -3 3 -7v0zM48 62q-3 -4 -3 -5q0 -4 -9 -13q-9 -10 -13 -10q-6 0 -1 6q7 7 12 19q2 6 3 7q4 8 -1 18q-3 5 -2 9q0 4 3 4l3 -1q9 -3 12 -14q2 -10 -4 -20v0z" />
    <glyph glyph-name="uniFF1D" unicode="&#xff1d;" 
d="M170 131q-1 -2 -4 -2t-6 2q-1 1 -10 0q-8 0 -20 -1q-25 -1 -36 0q-11 2 -11 8q0 1 1 2t8 1q4 0 24 1q31 0 31 1q1 1 8 0t10 -2q8 -4 5 -10v0zM170 96q3 -8 -7 -5q-8 3 -25 0q-16 -2 -34 -2l-16 -1l-3 2q-3 4 0 8t9 3q3 -1 23 1t25 2q6 0 7 1q3 2 13 -2q5 -3 7 -3
q1 -1 1 -4v0z" />
    <glyph glyph-name="uniFF1F" unicode="&#xff1f;" 
d="M84 176q4 -6 3 -13t-7 -22q-4 -10 -6 -14q-1 -4 -3 -6q-1 -2 -1 -3t-5 -8t-8 -12q-2 -4 -6 -9q-3 -5 -3 -6q0 -3 -4 -7q-5 -4 -8 -5q-8 -2 -9 3q-2 6 5 11q9 6 15 18q3 7 7 11q5 8 11 23t8 23q1 8 -4 17t-12 11q-2 1 -3 2q-2 1 -9 1q-8 -1 -10 -2q-1 -2 -6 -2
q-4 -1 -5 -2l-4 -4q-3 -5 -7 -6q-4 0 -4 5q0 2 5 7q5 6 7 7q3 0 6 3q3 2 4 2q2 0 3 2q3 3 12 3q8 -1 16 -5q12 -6 22 -23v0zM49 23q-2 0 -3 1q-1 0 -4 3q-4 4 -4 9q1 4 7 5l5 -4q6 -5 5 -9q0 -3 -6 -5v0z" />
    <glyph glyph-name="uniFF20" unicode="&#xff20;" 
d="M127 199q7 0 21 -3l10 -2q9 -1 17 -9q5 -4 10 -9q17 -15 8 -59q-3 -12 -2 -13q0 -2 -4 -12q-5 -11 -5 -14q-1 -3 -5 -7q-3 -4 -3 -6t-8 -12q-9 -9 -10 -9t-5 -3q-4 -2 -7 -2q-2 1 -5 0q-6 -4 -20 -6q-13 -2 -14 0q-1 1 -3 0q-3 0 -5 1t-9 2q-6 0 -11 3q-4 3 -6 4
q-3 1 -7 6q-5 6 -7 10q-3 5 -3 28q-1 24 1 28q1 2 1 4q0 3 1 4q1 0 1 4q0 3 1 8q1 6 2 7q2 2 3 6q1 5 3 8t2 5t5 10t9 12q9 9 22 15q12 5 15 2q1 0 7 -1v0zM115 185q-5 -1 -8 -3q-2 -2 -5 -2q-2 -1 -5 -3q-2 -3 -5 -3q-1 -1 -5 -6q-3 -5 -5 -9q-1 -3 -3 -8q-2 -4 -3 -8
q0 -3 -2 -6q-1 -3 -1 -5t-2 -8q-2 -5 -2 -17v-12l3 -5q3 -4 3 -6t-3 -4t-3 -9q0 -6 4 -11q3 -3 3 -4t7 -4t11 -3q15 -2 31 -1q16 2 21 6q2 2 6 4q6 3 9 9t-3 4q-7 -2 -9 15q-1 18 -7 10q-4 -7 -15 -16q-12 -10 -14 -9q-5 1 -11 5q-6 5 -6 7q0 1 -2 3q-1 2 -1 13q0 10 1 16
q2 5 3 9q0 4 4 9q3 5 3 6t8 8t12 9q8 5 16 4q7 -1 10 -8t2 -8q-1 -2 0 -2q1 -1 3 0q7 4 8 -2q2 -6 -1 -22q-2 -7 -1 -18t2 -13q2 -1 6 -1q4 -1 4 0q1 2 3 8q9 29 9 50q-1 21 -11 29q-5 4 -15 8q-11 4 -13 3q-1 -1 -4 1q-3 1 -11 1q-9 1 -9 0q-1 0 -7 -1v0zM105 99
q-1 -10 5 -10q6 -1 15 7q10 8 19 23q6 8 1 12l-3 3v6q2 13 -9 8q-12 -6 -20 -19q-8 -14 -8 -30v0z" />
    <glyph glyph-name="uniFF21" unicode="&#xff21;" 
d="M178 192q0 -3 5 -1q8 5 11 4q4 -1 6 -9q1 -4 -2 -7q-4 -3 -12 -5q-4 0 -8 -3q-3 -7 -7 -5q-4 3 -4 9q-1 5 -3 11q-3 8 -4 11q0 2 3 5q1 2 5 2q4 -1 6 -2q1 -1 2 -5q2 -4 2 -5v0zM111 196q0 -2 2 -2q5 0 17 -13q11 -12 12 -21q1 -4 2 -5t3 -7q1 -6 2 -8q1 -1 2 -9
q1 -6 3 -9t3 -4q0 -1 -1 -3q-2 -3 -1 -11q1 -9 2 -11t1 -12q1 -9 2 -11q1 -4 1 -13q0 -11 1 -11q3 -5 1 -13q-3 -8 -8 -8q-3 1 -4 5q-1 6 -1 18q-1 15 -2 23q-1 6 -1 7q1 2 0 9q-2 7 -3 10t-2 5h-3q-7 0 -3 4q2 3 1 4q-1 0 -6 -1q-16 -3 -36 -4h-11l-2 -6q-1 -4 -1 -7
q0 -4 -3 -10q-2 -6 -4 -18q-4 -17 -4 -24q-1 -8 -3 -11q-6 -6 -9 -1q-3 6 0 17q1 3 3 14q2 15 5 23q3 5 3 7t2 10q1 8 2 9q1 0 1 4q0 3 1 4q1 0 2 3q0 4 2 11l6 30l2 8l2 6q1 2 3 8q3 12 3 15t2 3q4 0 5 1q3 2 6 -1t3 -4v0zM102 173q-4 -12 -5 -13t-2 -7q0 -6 -2 -11
q-6 -22 -6 -24q1 -1 19 0q16 1 28 3l6 2l-1 4q0 11 -2 13q-1 2 -1 3t-3 9q-3 7 -3 8q0 2 -2 4l-4 8q-1 2 -6 7q-5 7 -6 7l-4 -1q-2 0 -3 -3q0 -2 -3 -9v0z" />
    <glyph glyph-name="uniFF22" unicode="&#xff22;" 
d="M110 194q10 -5 12 -7l6 -4q4 -2 7 -7q3 -3 4 -3q2 0 4 -8t2 -11t-2 -9t-4 -9q-3 -4 -7 -11q-5 -8 -8 -11q-3 -4 -2 -5q1 0 10 -1q9 0 13 -1q5 -2 13 -5q9 -5 10 -7q3 -1 4 -1q1 -2 3 -2l3 -3q1 -2 1 -4t3 -4q5 -3 1 -14q-5 -11 -11 -17l-4 -2q0 -1 -2 -3q-3 -1 -8 -5
l-3 -2q-1 0 -2 -2q-2 -1 -4 -1t-5 -3q-1 -3 -6 -4q-6 0 -7 -1t-15 -1q-7 1 -10 2q-3 2 -3 7q0 2 2 3t8 0q19 -3 31 4q23 17 27 25q4 9 -5 18q-3 3 -8 6q-3 3 -4 3t-6 2t-7 1q-3 -1 -7 0q-2 1 -8 0q-5 -1 -10 -3q-4 -2 -5 -2t-2 -2q-3 -1 -4 -3q-3 -3 -7 -2q-2 2 -4 8l-1 3
l2 2q3 2 5 4q7 3 12 15q3 3 6 7q9 13 13 24q4 9 1 14q-2 1 -3 4q-2 4 -4 6t-6 4q-5 4 -10 7q-6 3 -9 4q-9 5 -11 4q-1 -1 -3 -14v-17q1 -4 0 -10q-1 -11 -1 -48q-1 -22 -1 -31q-1 -11 0 -12q1 -2 2 -11v-10l-4 -2q-7 -8 -10 -1q-3 5 2 94q2 43 1 57q-2 9 5 15q8 7 14 1
q4 -3 16 -8v0z" />
    <glyph glyph-name="uniFF23" unicode="&#xff23;" 
d="M87 167l-3 -3l-5 4q-3 2 -8 5q-4 1 -7 5q-5 4 -5 6t6 3q4 1 8 -1h5q1 0 2 4q1 9 7 13q5 4 10 -3q4 -5 2 -17q-4 -11 -12 -16v0zM160 185q0 -6 -1 -7q-2 0 -3 2q-2 2 -2 5q0 2 -5 6q-4 4 -8 5q-7 1 -16 -9q-9 -8 -9 -14q0 -1 -3 -5q-2 -4 -2 -5q0 -2 -3 -8q-9 -18 -11 -38
q-3 -17 -4 -20q-1 0 0 -15q1 -14 3 -22q3 -7 7 -12q1 0 5 -3l3 -3q1 0 4 -2t7 -2q5 0 6 2q1 1 4 1q2 0 7 2q6 4 6 5h2t18 16q15 15 15 17q0 1 4 2q5 1 7 -1q5 -3 -5 -11q-6 -5 -6 -6t-2 -4q-2 -2 -4 -2q-2 -1 -2 -2t-4 -6q-4 -4 -7 -6l-7 -7q-5 -3 -6 -3t-3 -2q-1 -3 -3 -3
q-3 0 -8 -3q-3 -2 -11 -2q-7 0 -10 1q-2 2 -3 2q-2 0 -5 3l-4 3q-1 0 -6 5q-6 7 -7 9q-7 15 -5 49q2 35 12 55q3 5 4 11q1 5 5 11q3 8 6 12q1 2 1 3q1 2 7 6q5 4 11 7q5 3 9 3t9 -3q8 -4 10 -6q2 -3 3 -11v0z" />
    <glyph glyph-name="uniFF24" unicode="&#xff24;" 
d="M99 202l3 -3q3 -2 10 -4q8 -3 9 -3q3 0 10 -4q3 -2 4 -2q2 0 20 -14q15 -9 20 -21q1 -5 2 -8q3 -4 1 -15t-5 -17q-2 -3 -3 -6q1 -3 -5 -13q-3 -6 -3 -7t-2 -5q-3 -6 -5 -8q-3 -2 -3 -3q0 -2 -2 -3q-3 -1 -3 -2q0 -2 -4 -7q-4 -6 -6 -6t-4 -3t-11 -12q-7 -8 -9 -8t-3 -1
t-3 0q-14 -3 -19 1l-5 5v6q-2 9 -1 33v20q0 12 1 16v9v16t-1 14v6q-1 6 -3 20l-2 13l2 2q3 4 9 1l3 -3l2 -26q1 -28 1 -29v-10v-17v-42q0 -6 1 -10t0 -6t0 -7q0 -3 3 -3q2 0 8 2l4 2q2 0 15 13t14 16q1 2 5 7q11 15 15 28q0 1 4 8q1 5 2 7q4 8 2 18q-1 11 -5 14q-1 2 -4 6
t-8 8q-6 5 -8 5q-1 0 -2 2q-3 4 -8 4q-2 0 -3 2q-1 4 -17 8q-6 1 -11 3q-6 4 -11 6q-7 4 -7 8q1 2 5 3q3 0 6 -2q4 -3 5 -2v0z" />
    <glyph glyph-name="uniFF25" unicode="&#xff25;" 
d="M131 165q-2 -2 -2 -6q-1 -4 -4 -11q-3 -8 -3 -10q1 -3 -1 -6q-3 -6 0 -8q3 -1 21 3q7 2 9 1q2 0 3 -1q3 -3 2 -6q-2 -4 -5 -4q-2 1 -6 0q-3 -2 -9 -2h-10q-6 -1 -8 -2q-1 -2 -3 -2q-2 -1 -3 -4q-4 -10 -6 -13q-1 -1 -1 -3t-3 -4t-3 -4q0 -1 -1 -3q-5 -10 -5 -12
q0 -1 -2 -3q-1 -2 -3 -7q-2 -6 -3 -13q-2 -6 -2 -7q1 -1 4 0q14 2 21 2q1 1 2 0q1 1 5 2q4 0 7 1q5 2 15 3q11 2 14 2t12 1q6 2 7 2q2 0 1 2q-1 5 8 2q9 -4 10 -8q0 -5 -9 -4q-4 0 -8 -1t-11 -2q-15 0 -28 -4q-11 -4 -21 -5q-4 1 -9 -2q-5 -1 -8 -1q-4 0 -4 -1q-1 -1 -3 0
q-1 0 -4 -2q-5 -1 -10 1q-6 4 -6 9q0 4 6 15q3 7 4 9q0 3 4 9q3 7 5 12l5 10q5 10 7 18q1 3 2 4t1 3q-1 1 1 2q2 3 5 10q1 7 3 11t3 8q0 4 2 10q10 31 -2 32q-4 0 -6 3q-1 1 -3 0q-3 -1 -12 0q-10 0 -13 2t-4 4q-1 3 1 6q1 1 15 -1q15 -2 24 -4q13 -1 16 -11q4 -8 -1 -22v0z
" />
    <glyph glyph-name="uniFF26" unicode="&#xff26;" 
d="M128 197h18q4 0 5 -5q1 -3 0 -4q0 -1 -5 -2q-6 -1 -16 -22l-4 -8q-1 -1 -1 -3l-2 -2q-2 -4 -4 -13l-2 -8q0 -3 -1 -7q-4 -8 -3 -11q0 -2 5 -1t11 2q7 1 11 3q3 1 7 1q4 1 13 3q8 2 12 2q3 0 5 -2q3 -3 2 -5q-2 -2 -6 -4h-13q-8 -1 -8 -2q-1 0 -12 -3t-17 -4q-3 0 -6 -2
q-3 -1 -5 -1q-3 0 -4 -1q-1 -2 -3 -12q-4 -11 -4 -14v-7q-1 -5 -3 -6q-1 -1 -1 -5q0 -3 -1 -6q-2 -4 -2 -12q1 -7 -2 -11q-4 -3 -7 0q-2 2 -2 10q-1 7 0 9t2 6q1 5 4 10q2 7 1 11q0 2 1 2q1 1 1 5q1 4 2 9q1 7 2 10q2 10 5 18q2 3 3 6q0 4 2 8q1 5 3 11q1 5 1 6q1 2 5 11
q3 9 5 10q1 1 1 3q0 1 5 8l3 8l-11 1q-23 3 -24 2t-2 0t-5 1q-5 2 -8 6q-2 4 2 7q2 2 4 2t8 -3q16 -5 35 -5v0z" />
    <glyph glyph-name="uniFF27" unicode="&#xff27;" 
d="M134 175q-3 -5 -6 -3t-1 8v3l-2 4q-5 8 -10 7q-4 -2 -15 -14q-4 -3 -4 -4t-3 -6q-3 -4 -2 -6q0 -1 -1 -2q-2 -2 -4 -9q-1 -5 -3 -9q-2 -5 -6 -21q-4 -17 -4 -18q1 0 1 -4q-1 -3 0 -18q1 -13 2 -22q1 -4 3 -10t2 -7q1 -2 6 -5q4 -3 7 -3q8 -1 18 6q9 6 17 17q3 3 8 9
q4 5 5 9q3 5 9 12q7 8 6 11q-2 3 -13 2q-10 0 -11 4q0 3 4 4q2 1 12 2q11 1 13 2t10 6t15 2t7 -9q0 -1 -4 -3q-4 -4 -5 -4q-2 0 -7 -2q-5 -4 -6 -9t-1 -21v-12t2 -13v-17l-2 -3q-5 -4 -9 2q-3 6 -1 15q1 3 0 12q0 15 -1 22q0 8 -5 2q-1 -3 -7 -11q-5 -8 -5 -9q1 -2 -1 -3
q-3 0 -7 -7q-6 -7 -8 -8t-2 -4q-1 -2 -3 -3q-3 -1 -7 -5q-2 -3 -3 -3t-4 -3q-4 -1 -10 -1q-7 0 -10 1q-24 10 -25 57q-1 13 0 24q0 12 2 14q1 2 2 6l2 6v5t5 10q3 11 4 11q1 1 1 4q0 1 2 10q5 7 7 10q3 5 8 10q3 6 6 7t6 3q6 4 13 1q6 -1 11 -12t2 -17v0z" />
    <glyph glyph-name="uniFF28" unicode="&#xff28;" 
d="M169 207q0 -3 1 -3q1 -1 4 2q1 2 6 5q6 3 8 3q6 0 7 -5t-3 -11q-25 -24 -25 -28q-1 -13 1 -24q0 -6 -1 -7q-1 -2 -3 -15v-53q0 -26 -1 -33q0 -10 -1 -12q-1 -1 -4 -1q-5 0 -11 4q-5 6 -5 8q0 9 4 2q3 -3 4 -2q1 0 1 7q1 4 1 18q0 26 1 43q1 16 0 19q0 3 -2 1
q-5 -3 -28 -2q-10 0 -11 -1q-2 -1 -8 -1q-4 0 -9 -1q-8 -2 -15 -2q-3 0 -4 -15q-4 -15 -1 -54q1 -15 -1 -19q-4 -4 -8 -3q-5 2 -5 7q-1 10 1 54q4 30 0 32q-1 0 0 2q2 6 2 35v33q0 8 2 10q1 3 5 3q5 0 6 -6q1 -8 0 -34v-23v-13q1 0 6 1q4 1 9 1q7 0 12 2q5 1 25 2q21 2 23 0
q3 0 3 26q0 18 -3 25q0 2 1 5q2 2 1 3q0 1 -1 5q-7 10 -1 18t14 3q2 -1 3 -5t0 -6v0z" />
    <glyph glyph-name="uniFF29" unicode="&#xff29;" 
d="M136 186q0 -24 1 -35q0 -6 -4 -97q-1 -4 1 -13l2 -10l-2 -3q-3 -3 -6 -1q-2 2 -7 12q-1 2 -1 13l5 96q0 36 -1 38q-1 0 0 2t1 7q0 6 2 8q3 3 7 -1q2 -2 2 -5v-11v0z" />
    <glyph glyph-name="uniFF2A" unicode="&#xff2a;" 
d="M167 191q-6 -1 -5 -2q-1 -1 -3 0q-4 3 -4 -8q3 -43 3 -51q-1 -3 0 -15q1 -17 -1 -32q-2 -11 -2 -17q-1 -10 -3 -17q-2 -1 -2 -4t-5 -9q-4 -8 -25 -11q-17 2 -29 20q-7 13 7 3q25 -15 34 -8q9 8 9 13q1 4 2 6q1 4 3 20q0 5 1 12q2 28 -3 91q-1 9 -3 12q-1 1 -6 0h-12
q-10 0 -17 -2q-5 -2 -13 0q-6 1 -8 4q0 2 2 2q2 3 4 2q4 0 13 2q7 1 13 2q24 1 32 0q9 -2 13 -2q4 1 7 0q1 -1 1 -2q2 -3 1 -6q-1 -1 -4 -3v0z" />
    <glyph glyph-name="uniFF2B" unicode="&#xff2b;" 
d="M100 198v-4v-6v-16q1 -21 1 -43q0 -3 1 -3q1 -1 3 2q3 5 7 12q5 3 10 11q4 7 6 11q1 2 8 10q9 6 12 9q10 4 11 0q2 -5 -7 -10q-7 -5 -13 -11q-5 -8 -7 -10t-2 -5q-1 -2 -5 -6q-3 -4 -7 -9q-3 -5 -8 -13l-7 -7q0 -1 -2 -5q-2 -5 -2 -7q1 -2 3 -3t5 -3l12 -6q7 -3 8 -4
l3.5 -2t4.5 -2l3 -1q2 -2 12 -5q10 -2 13 -3q4 0 7 -4q2 -3 0 -6q-1 0 -4 -1q-3 0 -5 1q-2 2 -3 2q-2 -1 -8 2q-6 2 -7 2q-2 0 -7 2q-4 2 -8 3l-9 5q-5 2 -9 3q-10 4 -11 4q-2 0 -2 -9q-2 -13 0 -15q0 -3 1 1q2 4 3 0q3 -1 1 -6q-2 -3 -1 -5q1 -1 -1 -4q-1 -3 0 -8
q-1 -5 -4 -9l-4 -4l-3 2l-3 1l-2 8q-1 8 2 30q0 7 1 18v13q-2 2 0 5q1 2 2 15t1 20q0 6 -1 22v39q1 6 6 8q1 2 2 2l3 -2v-6v0z" />
    <glyph glyph-name="uniFF2C" unicode="&#xff2c;" 
d="M92 193q-2 -4 -2 -15t-2 -21q-1 -10 -1 -40q0 -10 -1 -19q-3 -34 -2 -44q1 -11 6 -13q8 -3 21 -4q13 0 16 3q2 2 3 1q1 0 8 3q8 3 10 4t2 11v12q1 3 5 3q2 0 4 -3q3 -5 3 -8q0 -5 4 -2q3 2 7 3q5 1 7 0q3 -3 2 -6q0 -5 -4 -9q-5 -3 -7 -7q-4 -8 -10 -11q-3 -2 -6 3
q-2 2 -4 2h-5q-4 -2 -5 -3q-2 -2 -4 -2q-1 0 -4 -1q-1 -2 -8 -3t-12 -2h-13q-8 1 -14 3t-8 3q-3 1 -4 9t0 31q1 17 2 44q2 46 2 48q1 4 1 17v14q1 3 4 6t5 4t4 -1q2 -3 0 -10v0z" />
    <glyph glyph-name="uniFF2D" unicode="&#xff2d;" 
d="M82 198q0 -1 2 -6t4 -13q15 -42 15 -48q2 -4 3 -10q1 -5 2 -7q1 -1 3 -11q2 -9 4 -13t2 -9q0 -8 3 -11l2 1v3q0 2 24.5 60t26.5 60q2 3 3 4q0 2 3 3q2 0 4 -1q3 -2 4 -10q2 -6 4 -23q0 -5 1 -6q0 -1 3 -30l8 -71q-1 -10 2 -15q6 -13 -1 -18l-3 -2l-3 4l-3 4l-2 17
q-2 18 -3 29l-6 48q-2 24 -5 39q-2 14 -7 1q1 -7 -18 -50t-24 -51q1 -3 -2 -10q-5 -8 -8 -8t-6 8q-4 6 -6 15q-1 10 -5 23q-4 12 -7 25q-4 14 -5 19q-2 4 -7 22q-6 18 -8 19l-2 -12q-1 -12 -4 -23q-2 -22 -4 -30q-2 -6 -2 -12t-2 -12v-10t-1 -4q-1 -2 -1 -21q-1 -18 -3 -22
q-2 -3 -2 -4q1 -4 -3 -4q-3 0 -5 1q-3 3 -3 7q1 4 4 17v9q0 1 2 16q1 15 2 21q1 9 5 32q4 17 4 34q0 5 1 6t1 8q4 34 15 26q4 -2 4 -4v0z" />
    <glyph glyph-name="uniFF2E" unicode="&#xff2e;" 
d="M97 198q-2 -6 -2 -9t-1 -3q-3 0 -4 -1t-1 -3q1 -3 2 -2q1 0 34 -56.5t36 -58.5q2 -2 2 3q1 2 3 7l2 7l10 47.5t12 51.5q1 2 0 7q-2 9 4 9q9 1 5 -16q-1 -10 -18 -98q-2 -3 -1 -4t0 -4q-4 -9 -5 -18q-4 -15 -12 -11q-9 2 -75 121l-6 5l-1 -3q-1 -3 -1 -9t-1 -104
q2 -16 2 -20q0 -7 -2 -9q-1 -1 -5 -2q-3 0 -6 2q-1 3 -2 12q-1 10 -2 29q4 89 4 104q1 12 -1 14q0 2 -7 9q-6 4 -5 10q1 4 5 5q6 2 11 -1l4 -4l6 8q5 7 8 8q2 1 6 -1q9 -6 2 -22v0z" />
    <glyph glyph-name="uniFF2F" unicode="&#xff2f;" 
d="M182 184q0 -2 2 -5q6 -6 3 -27q-2 -15 -3 -18q-2 -3 -4 -12q-1 -5 -2 -5q-1 -1 -1 -7q0 -5 -1 -6t-2 -6t-3 -9t-8.5 -13.5t-6.5 -10.5l-5 -5q-4 -4 -7 -6q-2 -1 -10 -9q-14 -13 -18 -13l-3 -1q-3 -2 -7 -2q-2 -1 -12 -3l-8 -1l-6 3q-12 5 -17 19q-5 12 -8 30
q-2 19 -1 27.5t3 19.5q1 10 2 12q6 16 13 33q21 30 67 35q14 2 21 -1q4 -2 13 -9q9 -8 9 -10v0zM143 197q-8 -1 -10 -2q-3 0 -5 -2t-16 -9t-20 -14q-7 -7 -10 -7l-5 -8.5t-5 -12.5q-1 -2 -2 -7q-2 -4 -3 -14t-2 -24q0 -10 1 -14q2 -4 2 -7q1 -7 2 -16q2 -7 3 -8l1 -2
q0 -2 3 -5q4 -3 6 -4q8 -4 22 1q13 4 24 12q9 8 19 20t13 17l4 8q6 20 7 24q2 5 2 6v3q5 8 6 23q2 17 -1 19q-2 2 -5 7q-2 5 -10 11q-5 5 -6 5h-2h-13v0zM184 64q1 -6 5 -2q3 4 6 4q2 -1 5 -3l4 -4q0 -4 -4 -10q-5 -5 -9 -7t-6 -5q0 -1 -4 -3q-3 -3 -5 -3q-3 -1 -7 9
q-2 9 -2 18q1 6 7 10l8 1q2 -1 2 -5v0z" />
    <glyph glyph-name="uniFF30" unicode="&#xff30;" 
d="M171 146l-3 -6q1 -1 -2 -2q-1 -3 -1 -4q0 -4 -13 -17t-18 -15q-6 -2 -11 -8l-6 -3t-9 -4q-8 -5 -11 -5t-3 -1q-1 -2 2 -43q-1 -13 -6 -13q-2 -1 -6 1t-3 5q0 2 -1 29t1 39q1 27 -1 63v22q0 4 2 6q8 18 45 14q15 -1 28 -10q12 -9 17 -22q5 -14 -1 -26v0zM96 185q1 -4 0 -8
q-2 -13 -2 -32q2 -30 0 -33q-1 -1 -1 -7q0 -3 1 -4t2 -4v-3q1 0 9 3q7 3 10 6q3 2 8 4q6 3 8 6q4 4 7 4q8 7 21 33q4 8 2 17q-2 8 -8 14q-5 3 -5 5l-3 2q-4 3 -5 3h-4q-2 2 -15 4q-13 1 -15 -1q-8 -3 -9 -5q-1 -1 -1 -4v0zM141 140q-6 -6 -9 -6l-6 -4t-7 -1q-2 2 -4 10
q-1 7 -3 8q-1 1 -1 4q1 6 5 5q5 1 8 -4q1 -3 2 -3t2 2q3 5 7 7q4 3 7 2q7 -3 6 -7q-1 -3 -7 -13v0z" />
    <glyph glyph-name="uniFF31" unicode="&#xff31;" 
d="M178 165q1 -8 0 -20t-2 -13v-4v-6q0 -3 -1 -8q0 -5 -3 -11q-2 -7 -4 -16q-2 -10 -3 -13q-1 -2 3 -6q8 -2 13 -5t7 -4q1 -7 -3 -9q-6 -1 -19 6q-6 3 -9 3q-1 0 -9 -11q-9 -12 -12 -12q-4 -1 -6 -3q-4 -6 -16 -7q-13 -1 -23 0q-11 4 -12 10l-3 2q-3 3 -7 17q-2 13 -2 28v14
q0 8 2 15q2 8 3 16q0 7 4 20q4 15 7 26.5t11.5 17t13.5 6t15 3.5t16 3q4 1 9 0q12 -4 21 -14q8 -10 9 -25v0zM113 185q-6 -4 -11 -7l-6 -4q1 -1 -1 -6q-4 -5 -3 -6q0 -1 -3 -17q-4 -14 -4 -19q-1 -5 -1 -8q-1 -8 -2 -22v-25q1 -11 1 -14q-1 -2 1 -2q0 -1 1 -4q0 -3 3 -4
q3 -3 3 -4q1 -3 5 -5q6 -2 11 -2t15 6q10 4 13 7q2 2 7 8q5 5 5 7q1 2 -3 5q-5 4 -14 17q-2 6 -5 8q-12 7 -10 11q3 4 15 -2t12 -11q1 -1 6 -8l5 -6q1 0 5 7q3 7 3 8q-1 2 2 9q3 9 4 24q0 4 1 10q3 16 0 30q-3 9 -4 14q-3 2 -10 7l-10 8l-7 -2q-7 -1 -12 -3q-5 -3 -12 -5v0z
" />
    <glyph glyph-name="uniFF32" unicode="&#xff32;" 
d="M96 199q8 4 26 6q18 1 27 -2q11 -2 21 -9q10 -8 12 -15q0 -5 1 -6q1 0 2 -12t0 -15q-2 -3 -2 -6q0 -2 -3 -9q-3 -5 -5 -8q-2 -1 -2 -2q0 -2 -2 -5q-3 -3 -3 -4t-4 -7t-6 -7t-4 -4q-3 -1 -9 -7q-3 -5 -5 -5t-4 -1q-1 -3 -4 -4q-1 0 -8 -4q-4 -4 -7 -4q-9 -3 -4 -7
q2 -2 7 -3q5 -3 9 -3q2 -1 24 -9q10 -4 21 -5q7 0 10 -4q4 -2 -1 -7q-3 -2 -8 -2q-7 0 -9 2q-4 2 -5 2t-3 1q-1 1 -14 5.5t-24 7.5q-4 1 -9 2q-14 6 -24 4l-4 -1v-11q1 -10 -1 -13q-1 -3 -7 -5q-4 -2 -5 5q-2 8 0 26q3 30 4 64v29q2 15 2 20q0 6 1 7t1 8q-1 11 3 16q4 7 9 2
q2 -1 3 -2q1 0 3 1v0zM111 193q-6 -1 -8 -2q-2 -2 -6 -2q-5 -1 -6 -2q-1 -2 -2 -12q-2 -42 -3 -60q-1 -11 0 -14q0 -2 -1 -6q-1 -8 -1 -20q1 -4 4 -6q6 -2 10 1q5 1 13 6q7 4 8 5q0 1 6 4q7 5 17 13t14 15q10 15 10 17t2 4q2 3 2 5t1 3t3 9v12q-1 5 -4 13q-4 10 -5 10
q-1 -1 -6 3q-7 5 -26 6q-13 0 -13 -1q-1 0 -9 -1v0zM147 134l-2 -6q0 -1 -5 -8q-7 -6 -7 -7q0 -2 -2 -4q-1 -2 -3 -2q-4 0 -10 5t-7 7q0 1 -1 4q-5 8 -4 16q-1 5 3 4q5 0 11 -8q4 -5 6 -5q1 0 3 6q2 4 6 8q3 2 6 2q1 1 3 -1q3 -2 5 -5q0 -2 -2 -6v0z" />
    <glyph glyph-name="uniFF33" unicode="&#xff33;" 
d="M124 199q-3 -4 -2 -5q2 -1 8 0q21 2 31 -12q9 -14 5 -20q-3 -5 -7 -4q-2 1 -2 6q0 4 -3 10q-4 7 -8 10q-2 2 -11 2q-8 -1 -10 -2q-2 -2 -9 -5q-6 -3 -12 -9q-6 -7 -8 -11q0 -3 -1 -3q-1 -1 -1 -3t-1 -5q-5 -12 18 -28q14 -8 26 -14q12 -4 21 -12t11 -13q1 -3 2 -4
q1 0 2 -5q1 -10 -12 -24q-12 -16 -23 -19q-4 0 -5 -2q-3 -2 -10 -2q-6 0 -8 2l-3 2q-1 0 -6 3q-6 4 -8 5q-4 0 -7 3q-4 3 -5 4q-4 2 -4 4h6q6 -2 10 -2q2 -1 9 -4q7 -5 14 -5q6 0 14 4q5 1 9 5q5 2 6 4l2 2q2 0 4 3q1 3 0 4q0 1 3 4q3 8 -3 19q-8 11 -17 14q-3 1 -5 2
q-1 1 -5 0q-3 1 -17 9q-14 9 -14 10t-5 4q-9 7 -11 21q-1 13 6 25q3 3 2 4q0 1 6 6q4 5 3 6q0 2 -6 4q-8 4 -9 7q-2 3 0 4q2 3 6 5q5 2 7 2q2 -1 3 0q0 1 3 5q2 7 3 8q1 2 4 2h8q4 0 6 -7t0 -14v0z" />
    <glyph glyph-name="uniFF34" unicode="&#xff34;" 
d="M172 191q-6 0 -11 1q-13 2 -18 2q-6 0 -7 -1q-2 -2 -2 -39q1 -19 0 -30q0 -49 -2 -52v-22l-1 -20l-2 -3q-11 -8 -9 15q1 11 2 24q0 13 1 19v49q1 13 0 37v16l1 6l-10 -1q-9 0 -23 -1l-16 -1l-3 3q-4 3 -2 5q1 3 5 4q5 2 10 0q3 -1 4 0q1 0 19 1q21 1 39 0.5t19 0.5
q0 1 9 0q7 -2 9 -4q4 -3 -1 -7q-4 -3 -11 -2v0z" />
    <glyph glyph-name="uniFF35" unicode="&#xff35;" 
d="M170 211q1 -2 2 -5q0 -1 5 3q3 5 7 5q5 2 8 -3q3 -2 3 -5q1 -3 0 -3v-4q0 -1 -3 -8q-5 -9 -9 -14q-5 -6 -7 -13q0 -6 4 -16q1 -4 -11 -61q0 -3 -7 -23q-1 -5 -4 -7q-1 -1 -6 -7q-6 -6 -7 -6t-5 -5l-5 -4q-1 0 -5 -2q-7 -5 -19 -7q-12 -1 -18 0q-5 3 -13 12q-8 10 -9 15
q0 3 -1 6q-3 4 -4 12q-2 7 -4 10q-1 3 -1 18q-1 15 -1 25q1 11 1 19q-1 10 0 20q0 16 1 19q-1 21 6 21q8 1 7 -21q-3 -28 -2 -51v-15q-1 -16 3 -36q4 -21 11 -29q2 -3 2 -5q3 -7 19 -6q15 1 24 8l7 7q5 2 9 9q6 7 7 12q2 6 3 8q1 4 12 64q-1 8 -1 15q0 6 -3 11q-1 5 -3 7
q-1 0 -1 3t-2 6q-4 5 -6 11q-3 6 -1 8q1 0 1 3q1 6 4 8q4 0 8 -2q3 -2 4 -7v0z" />
    <glyph glyph-name="uniFF36" unicode="&#xff36;" 
d="M195 190q-1 -4 -4 -14q-1 -8 -4 -10q-3 10 -6 10q-1 0 -24 -59q-1 -5 -1 -7q0 -1 -1 -2q-2 -1 -3 -5q-1 -6 -2 -9q-2 -2 -5 -14l-3 -9q-1 -1 -1 -4q0 -2 -1 -6q-2 -3 -3 -11q-2 -5 -2 -7q-1 -2 -2 -7q-2 -7 -3 -9t-5 -2q-3 0 -5 3q-3 2 -3 8q-1 4 -2 6q-1 3 -2 7
q-2 5 -3 10t-2 8q-1 4 -4 9l-2 12q-3 22 -6 27q-2 4 -18 59q0 2 -5 11q-5 8 -8 11q0 1 -3 1q-3 3 -2 5q1 1 3 2q2 0 4 -1q1 0 6 -2q1 -2 4 -4q2 -3 2 -4l1 -1q2 -2 4 -5q2 -2 3 -5q0 -1 1 -5q3 -2 10.5 -32.5t9.5 -33.5q1 -1 1 -4q1 -2 2 -8q1 -3 1 -5q0 -6 6 -21q1 -2 1 -4
q0 -1 1 -3q1 -1 2 -5q0 -6 3 -6q1 0 1 6l1 3q2 2 4 10q7 23 9 24q1 2 1 7q0 1 3 7q1 5 2 5t2 3q0 2 4 12q22 50 26 54q5 8 5 9q0 3 6 5q4 3 6 1q1 -2 1 -4q0 -3 -1 -7v0z" />
    <glyph glyph-name="uniFF37" unicode="&#xff37;" 
d="M208 163q-3 -9 -5 -21q-2 -8 -3 -9q0 -1 -1 -9q-1 -7 -2 -9q-2 -2 -1 -5q0 -2 -1 -3q-2 -1 -2 -6l-3 -9q-4 -13 -5 -21q0 -2 -1 -4q-2 -1 -2 -3q-11 -32 -11 -33t-4 -3q-2 -3 -4 -2q-3 1 -6 6l-7 26q-2 4 -3 7q-2 6 -4 16q0 5 -1 6q-1 2 -1 7q-1 4 -1 7q-2 2 -2 4
q1 1 0 3q-3 7 -3 8t-2 6q-1 6 -2 7q-1 5 -2 4q-2 -1 -2 -5q-1 -6 -2 -9q-2 -2 -3 -9q-2 -7 -1 -8q0 -2 -1 -4t0 -4q-1 -3 -1 -4q-1 -3 -4 -18q-5 -19 -8 -26q-3 -13 -6 -17l-2 -4l-3 1q-6 0 -7 3q-1 2 -1 7v7q-2 1 -4 7q0 5 -1 8q0 4 -2 6q-1 4 -1 7q0 6 -1 9q-1 2 -3 12
q-2 14 -3 19q-1 3 -1 5q0 1 -1 3q-1 4 -2 9t-2 7q-2 2 -3 7q-1 7 -2 8l-1 2q1 2 0 3t0 4q-1 4 -2 7q-2 4 -2 6q1 2 0 3q-1 0 -3 6q-5 13 -7 15q-3 1 -2 2q0 2 1 5q2 4 5 2q4 -4 8 -11q1 -2 2 -2q0 -1 3 -8q4 -9 4 -13q1 -5 1 -6q1 -1 3 -4v-5q0 -2 1 -3v-5q0 -5 4 -12l2 -5
q0 -1 1 -4q3 -3 3 -8q1 -2 1 -7q3 -8 2 -18l2 -2v-5q1 -2 1 -5q1 -2 2 -8q2 -14 5 -18q2 -3 3 3q1 5 2 7q2 3 3 10q0 6 2 8l3 12q2 10 3 11q2 5 4 16q0 6 1 9q2 3 2 6q0 6 6 10q5 4 9 1q1 0 5 -9q3 -8 3 -10q0 -1 1 -2q2 -5 2 -8t3 -9q4 -7 6 -29q1 -5 2 -7q2 -3 3 -10
q3 -8 6 -9l4 8q5 10 7 18q5 18 7 23q1 1 2 6q2 5 2 6q1 0 1 1q0 2 1 5q0 5 1 6q3 7 2 9q1 1 2 3q2 2 3 10t2 10t2 13q3 12 4 13q1 2 2 9q1 8 2 10q1 1 3 -1q1 -2 0 -19q-1 -15 -4 -23v0z" />
    <glyph glyph-name="uniFF38" unicode="&#xff38;" 
d="M166 206q0 -9 4 -5q2 4 7 7q3 1 8 1q6 1 8 -4q4 -5 0 -9q-10 -10 -12 -10q-1 0 -8 -7q-5 -6 -7 -7q-1 0 -2 -2q-1 -3 -1 -7q0 -1 -2 -1q-1 0 -4 2l-4 3l-2 -3q-1 -2 -9 -20q-4 -6 -9 -16q-8 -8 -10 -11q0 -3 1 -6q5 -7 7 -16q3 -8 11 -21q3 -5 3 -6q0 -3 16 -19
q10 -10 10 -11l2 -2q1 0 1 -1q-1 -1 -4 -5l-3 -5l-4 5q-3 4 -12 10q-7 8 -7 9t-5 8q-5 5 -6 7q0 2 -3 8q-10 17 -10 21q0 1 -1 1q-2 1 -3 3q0 6 -5 1q-5 -4 -11 -15q-5 -6 -9 -11q-6 -8 -13 -24q-2 -7 -9 -14t-13 -8q-3 0 -5 3q-3 5 0 7q3 3 18 26q13 19 21 31q10 12 13 16
l4 6l-1 5q-3 5 -5 8q-3 4 -22 40q-2 7 -6 11q-8 7 -10 15q-3 7 2 8q2 0 12 -9q8 -9 11 -16q24 -48 28 -49q1 0 5 6q4 5 6 10q11 24 13 29q2 4 6 7q6 6 2 14q-4 10 -1 17q4 9 11 6q7 -4 8 -11v0z" />
    <glyph glyph-name="uniFF39" unicode="&#xff39;" 
d="M173 176q-6 -5 -8 -9q-6 -10 -13 -14q-4 -2 -4 -3q0 -3 -6 -9q-5 -5 -8 -5q-3 -1 -4 -6q-4 -3 -5 -3t-5 -4q-3 -3 -3 -4q0 -2 -1 -2q-1 -1 -1 -38q0 -36 1 -43q0 -6 -4 -9q-5 -2 -8 1l-3 3v26q0 46 -2 52q-1 3 -2 9q-1 7 -2 10q-7 14 -9 23q0 3 -3 11q-4 8 -5 12
q-2 3 -4 4q-1 2 -1 4q0 3 -1 5q-1 4 -3 6q-2 4 -1 8q2 3 6 3q7 0 13 -22q1 -6 3 -8q1 -1 1 -4q0 -4 3 -6q2 -1 3 -8l3 -9l4 -8q2 -6 3 -10l3 -1l2 1l9 9q9 6 15 14q7 9 14 12q4 5 4 7q1 3 19 25q3 3 3 5q0 3 5 5q4 2 6 0q2 -3 -1 -12q-5 -8 -13 -18v0z" />
    <glyph glyph-name="uniFF3A" unicode="&#xff3a;" 
d="M169 213q0 -7 4 -7q4 -1 10 4l2 1q2 -1 4 0t5 -1q3 -1 5 -5l1 -5l-3 -4q-5 -5 -9 -6q-6 -1 -9 -4q-1 -1 -2 -1q-3 0 -8 -5q-4 -5 -2 -8q1 -5 1 -8q-1 -4 -6 -13q-11 -23 -18 -27q-8 -7 -17 -23q-3 -4 -9 -11t-8 -11q-1 -3 -9 -12q-7 -8 -10 -10q-2 -2 -5 -6q-2 -4 -2 -6
t24 1q10 1 16 2h9q1 1 13 3t16 3q3 0 5 -4q4 -2 4 -3q0 -2 -3 -4q-2 -2 -5 -2q-6 1 -26 -4q-11 -1 -17 -1q-5 0 -15 -2q-9 -3 -16 -4l-16 -2q-10 -2 -12 -2t-3 5q-2 5 6 14q24 21 29 29l4 4q3 2 3 3t6 9q7 8 13 17q6 10 9 14q4 6 10 13q11 16 15 23q4 9 1 13t-13 6
q-9 3 -11 5q-2 1 -4 1q-1 -1 -21 2q-9 1 -22 1q-11 1 -14 1q-3 2 -3 7q1 4 7 4q10 0 35 -3q26 -5 34 -6q6 -2 7 -2q4 -1 3 24v6l3 3q9 4 11 0q2 -1 4 -7z" />
    <glyph glyph-name="uniFF3B" unicode="&#xff3b;" 
d="M234 214h10l3 -3q2 -2 2 -3t-1 -3q-3 -5 -13 -7t-14 1q-2 2 -7 3t-5 -1q0 -1 2 -4q4 -8 0 -32q-2 -8 -3 -23t-2 -17q-1 -3 -1 -53v-21q0 -6 2 -7q1 -1 5 0q11 2 18 1q6 -2 4 -5q-3 -4 -13 -7q-17 -5 -18 -7q-2 -1 -4 -1q-3 1 -5 3l-2 2l-1 36q0 36 2 50q1 13 2 23
q0 11 1 13t0 4q0 3 2 8q1 5 2 18v12q1 2 3 4l2 3l-2 1q-3 1 -10 1q-5 0 -7 1q-1 0 -1 3q-1 3 1 3q1 0 4 2q2 2 3 2h7q8 -1 16 -1q9 0 18 1v0z" />
    <glyph glyph-name="uniFF3C" unicode="&#xff3c;" 
d="M110 163q0 -1 5 -8q6 -8 19 -38q3 -5 5 -10q2 -4 5 -13q2 -8 3 -9t1 -3q0 -1 1 -4q2 -3 5 -12q2 -8 6 -15q3 -5 3 -8t-3 -5q-8 -8 -12 6q-4 11 -6 12q-1 1 -1 5q-3 12 -5 15q-1 0 -1 4q0 3 -2 8q-3 6 -4 12q-1 5 -9 22q-8 16 -11 19q-2 3 -7 13q-1 3 -5 7q-5 7 -3 12
q1 4 7 1q2 0 5 -5q4 -5 4 -6v0z" />
    <glyph glyph-name="uniFF3D" unicode="&#xff3d;" 
d="M54 200q5 0 7 -2q1 -1 4 -1q5 0 8 -4q3 -6 0 -9q-1 -1 -4 -27q-2 -11 -3 -16t-2 -13q-1 -7 -2 -16q-1 -8 -2 -19q0 -12 -1 -13v-10q0 -5 -1 -18q-2 -13 -2 -15q-1 -3 0 -5q2 -3 -4 -7q-6 -5 -9 -2q-1 1 -2 1q-1 -1 -13 -1q-11 -1 -12 0q-1 3 6 6q19 10 20 11q2 5 3 25
q1 13 2 21q1 9 2 17q0 18 3 33q5 21 5 37q1 12 0 13q-1 2 -10 4q-7 0 -8 1q0 1 -5 1q-3 0 -8 3q-5 2 -5 4q0 5 3 5q3 1 15 -2q11 -1 15 -2v0z" />
    <glyph glyph-name="uniFF40" unicode="&#xff40;" 
d="M119 206q2 0 8 -5q5 -4 6 -4t3 -3q3 -2 5 -4q3 -1 6 -5q2 -3 1 -4q-1 -2 -5 -2q-3 0 -5 3q-2 2 -4 2t-3 2q0 1 -4 3q-3 1 -6 3q-2 1 -5 3q-8 3 -9 9q0 5 1 7q2 1 5 -2q3 -2 6 -3v0z" />
    <glyph glyph-name="uniFF41" unicode="&#xff41;" 
d="M151 133l-1 -5h3q3 0 9 1h7l2 -3q2 -7 -4 -10l-6 -6q-3 -3 -5 -3q-6 0 -6 -6q0 -5 -1 -7v-12v-14q1 -1 2 -5q2 -7 5 -10q3 -2 4 0q0 1 4 1q3 0 7 2q7 3 10 0q2 -4 -5 -8q-15 -8 -22 -7q-7 0 -11 10q-6 15 -6 17v2q0 1 -3 -1q-1 -2 -1 -3q0 -2 -1 -3q-2 -1 -2 -3
q0 -1 -4 -5q-3 -5 -3 -6q0 -2 -7 -11q-8 -6 -13 -9q-10 -5 -17 -1q-6 4 -8 15q-1 5 -2 5q-2 3 0 20q2 15 5 28q2 9 4 13q1 4 5 8q4 5 4 6q0 3 6 7q7 5 14 6q4 2 10 0q6 0 8 -3q0 -1 1 0v3q0 5 6 7t10 -2q1 -2 2 -3v-5v0zM103 120q-1 -2 -4 -6q-2 -4 -2 -5t-1 -3
q-2 -1 -5 -12q-2 -10 -3 -13q-1 -4 -1 -8q0 -3 -1 -8q-1 -8 2 -18q3 -11 6 -11q5 0 14 10q9 8 11 13q2 4 4 7q3 3 7 12q6 12 7 17q0 5 -4 2q-4 -1 -5 -1q-2 1 -1 3t-1 4l-1 3l1 4q3 4 2 9q-1 6 -3 8q-5 1 -12 -1q-6 -2 -7 -3q-2 -1 -3 -3v0z" />
    <glyph glyph-name="uniFF42" unicode="&#xff42;" 
d="M101 181q-1 -43 -1 -55q-1 -7 0 -9l2 1q8 7 23 9q13 2 20 -1l9 -6q5 -4 6 -7q2 -3 5 -7q6 -10 5 -22q-2 -12 -10 -20q-6 -5 -8 -8l-4 -4t-5 -4q-2 -2 -5 -2q-1 -1 -7 -5q-4 -4 -6 -5q-3 0 -3 -1q-1 -1 -3 -1q-3 -1 -11 -8q-5 -3 -7 0q-5 3 1 8q1 2 12 7q4 1 8 3q2 1 3 3
q3 1 6 3q4 2 5 2t7 7q5 6 5 7t3 3l3 3q1 2 3 5q3 4 3 10q0 8 -1 12q-5 10 -12 17q-8 5 -13 5q-3 -1 -9 -2q-5 -1 -11 -2q-4 -4 -7 -5q-5 -2 -5 -7q-3 -4 -4 -36.5l-1 -32.5q-1 -2 -2 -3q-1 0 -3 -1q-4 -2 -5 4q-2 6 0.5 34t2.5 35v13q1 11 1 38v30t-2 10l-1 6l3 3q3 3 6 -1
q5 -4 4 -23v0zM139 81q-5 -10 -7 -11q-2 -2 -7 -2q-5 1 -7 2t-2 4t-2 7q-6 2 -6 6t4 5q3 1 8 -1q4 -3 5 -3v2t4 3q3 1 6 1q2 0 3 -2q3 0 4 -5q0 -3 -3 -6v0z" />
    <glyph glyph-name="uniFF43" unicode="&#xff43;" 
d="M131 144q-4 -9 -3 -12q1 -1 6 1q11 6 20 -1q10 -5 5 -14q-2 -4 -5 -3t-4 5q-1 7 -9 4q-7 -2 -15 -11q-6 -6 -6 -7t-3 -6q-1 -4 -3 -5q-1 -1 -1 -3q0 -1 -3 -7q-6 -14 -4 -30q3 -15 11 -15q7 0 22 8q15 7 22 13q6 5 8 1q1 -3 -3 -8q-4 -6 -10 -8q-6 -5 -9 -8q-2 -2 -8 -3
q-4 -2 -7 -4q-6 -3 -15 -5q-6 0 -9 4q-12 13 -14 29q-1 14 7 28q3 4 4 11q2 8 4 10q5 6 5 9q1 2 -2 2q-2 0 -2 2q0 1 -1 3l-4 8q-1 3 -4 5q-5 2 -9 6q-5 5 -5 8q0 8 7 9q9 2 12 -7q2 -4 4 -4q1 2 4 6q3 8 8 9q5 3 8 -1t3 -8t-2 -11v0z" />
    <glyph glyph-name="uniFF44" unicode="&#xff44;" 
d="M165 191v-13v-15q0 -27 1 -34q2 -3 0 -12q0 -10 1 -14v-15q-1 -22 1 -41v-12q2 -5 -1 -9q-4 -2 -6 0q-3 4 -4 7t-1 14q1 28 0 37q-1 10 -4 3q0 -3 -2 -5l-1 -6q-1 -5 -3 -8t-5 -9q-7 -19 -20 -27q-11 -8 -21 -2q-7 6 -9 19q-4 14 -1 25q2 6 3 13q4 13 8 17q3 3 4 7
q1 6 9 10q6 6 13 7q7 0 10 -1q3 -2 9 -9q6 -9 6 -4q0 1 2 10q1 8 0 19q-1 13 -1 23v18q-1 13 2 19q3 5 8 0q2 -2 2 -4q1 -2 0 -8v0zM106 94q1 -1 -1 -5q-1 -4 -2 -7q-2 -7 -2 -21q-1 -12 2 -17q1 -3 2 -4t4 0q4 0 8 3q5 2 5 3q0 2 4 6q3 5 6 11q4 5 4 6q0 2 2 4q1 3 1 7
q1 3 3 4q2 3 1 6q1 2 -1 4q-3 2 -3 3v5q1 3 0 7t-5 7q-1 1 -5 1q-3 0 -7 -2t-9 -10q-7 -8 -7 -11v0zM137 85q-4 -3 -3 -4q0 -2 -1 -2q-1 -1 -2 -5q-2 -3 -4 -5t-4 -1q-4 3 -7 10q-5 7 -5 10q1 2 4 2t4 -1q3 -4 6 3q3 5 8 6q1 0 3 -2q3 -1 3 -6q1 -4 -2 -5v0z" />
    <glyph glyph-name="uniFF45" unicode="&#xff45;" 
d="M137 121q-1 -4 0 -8q0 -3 -1 -6q-2 -2 -6 -8q-3 -4 -8 -8q-5 -5 -6 -5t-2 -2q-2 -2 -4 -2q-1 0 -3 -2q-3 -3 -5 -3h-2q-3 -4 -14 -4q-6 -1 -7 -2v-10v-8t1 -3q2 -2 2 -3q0 -4 11 -8q10 -3 16 -3q4 0 11 2q6 3 9 4q2 2 3 2q3 1 6 3t9 5q5 2 7 4v5q1 3 0 16q0 5 6 9
q5 5 8 3q2 -2 4 -7q1 -4 0 -5q-2 -1 -2 -3q0 -3 1 -3t5 3q2 2 5 2t5 -3q3 -4 3 -8q0 -3 -4 -5q-2 0 -5 -2l-3 -2l-5 -2q-4 -3 -6 -2q-1 0 -4 -2q-5 -2 -6 -2t-3 -3q-4 -5 -5 -5t-8 -3q-7 -1 -9 -3q-4 -3 -7 -4q-1 -1 -4 -3q-8 -2 -19 -2q-12 2 -20 8q-9 4 -9 10v4
q-4 3 -3 23v12l4 8q5 12 13 23q10 10 21 16q10 7 13 7q2 0 2 1q1 1 5 0q4 0 5 -2q7 -4 5 -14v0zM117 125q-1 -2 -2 -2q-4 0 -13 -7q-7 -9 -12 -14q-3 -5 -4 -8q-1 -2 -1 -3t-2 -3q-3 -4 2 -5q3 0 10 2q7 3 12 7q5 3 7 4q3 1 9 9q6 7 6 10q0 2 1 6q1 2 0 5q-1 2 -3 2h-4
q-3 -1 -6 -3v0z" />
    <glyph glyph-name="uniFF46" unicode="&#xff46;" 
d="M156 184q-3 -1 -3 1q-2 1 -1 3q1 1 1 2t-2 3q-4 4 -7 3t-4 -6q-1 -1 -2 -4t-2 -18q0 -24 -2 -35q-1 -7 0 -9t4 -2q4 2 15 3q9 0 12 -2q2 -3 -1 -6q-2 -1 -3 -2h-6q-19 0 -20 -1q-2 -1 -3 -9q-1 -7 -1 -13q0 -7 -1 -7v-9q-1 -9 -2 -14v-18q-1 -14 -2 -18q-1 -2 -5 -2
q-2 0 -5 2q-4 4 -3 5q1 2 3 21q1 10 2 26q2 22 2 33l1 1l-9 1h-15q-2 0 -4 1q-3 3 -1 4q2 2 5 2q4 0 5 1h10q7 0 9 1q3 2 4 36q0 20 2 28q1 11 4 14q4 3 11 5q1 0 5 -2q8 -1 11 -9q4 -8 -2 -10v0z" />
    <glyph glyph-name="uniFF47" unicode="&#xff47;" 
d="M160 141v-5q1 -1 2 -1q9 3 14 0q7 -3 4 -7q-1 -3 -4 -6l-4 -4q-1 0 -2 -1q-1 -3 -3 -2q-2 0 -5 -2q-3 -3 -4 -3q-2 0 -3 -2t-4 -3q-3 0 -4 -1t-2 -7q-1 -4 -2 -14q-2 -10 -3 -17q0 -7 -2 -13q-1 -5 0 -6q0 -1 -1 -4q0 -4 -2 -14q-1 -9 -1 -13q0 -3 -1 -7q-1 -3 -3 -17
q-5 -36 -23 -31q-4 1 -5 0q-3 -2 -10 1q-6 2 -10 6q-3 4 -5 17q-3 13 -1 16q2 1 2 4q0 2 2 3q1 1 3 0q1 -1 1 -10q0 -10 1 -12q2 -4 3 -7q2 -11 16 -8q7 1 10 5q2 4 5 17q2 10 5 37q1 9 2 10v7q0 5 1 13q2 11 1 11q-2 1 -8 -5t-7 -6t-4 -2q-4 -3 -6 -3q-3 0 -3 -1
q-1 -1 -7 -1q-4 0 -7 1q-8 5 -9 15t4 25q6 11 6 12q0 2 6 11q6 10 9 13q5 4 8 6q3 1 8 2h8l5 -5l6 -5v-5q0 -5 -2 -8q-3 -3 -7 -3q-3 1 -4 2q-1 2 1 4q5 6 2 8q-2 3 -11 1q-10 -3 -14 -16q-3 -6 -6 -11q-7 -11 -7 -14q1 -1 0 -4q-5 -13 2 -16q6 -4 17 4q5 3 7 4q15 10 17 23
q2 16 6 20q3 3 4 5t2 10q1 12 5 18q4 4 10 0q1 -2 1 -9v0z" />
    <glyph glyph-name="uniFF48" unicode="&#xff48;" 
d="M105 169q0 -28 -1 -36t-1 -9v-3q1 0 3 5q4 10 16 14q12 2 19 -8q6 -5 7 -12q1 -5 2 -34q1 -23 2 -31q1 -10 3 -13q2 -2 6 -2q6 0 7 -3q2 -1 -2 -4q-3 -4 -9 -5q-7 0 -10 3q-3 5 -5 17q-2 11 -3 36q0 17 -1 18v6q0 5 -3 11q-3 9 -5 10q-5 5 -14 -3q-8 -9 -12 -22
q-4 -22 -5 -43q-1 -17 -1 -24q0 -8 -3 -11t-7 0q-2 1 -2 3v7q0 20 1 21q1 0 1 4v15q1 10 2 17q0 5 1 16t1 15v11q2 8 2 24q0 15 -1 27t2 17t8 -2l1 -4l1 -28v0z" />
    <glyph glyph-name="uniFF49" unicode="&#xff49;" 
d="M125 183q0 -4 2 -4q1 -1 2 1q2 5 6 7q3 2 8 1t5 -5q0 -6 -3 -9l-8 -8q-5 -6 -10 -5q-4 2 -11 11q-8 12 -3 15q1 2 5 2q6 0 7 -1v-5v0zM134 81q-1 -12 -1 -24t1 -17q2 -8 -1 -14q-2 -3 -5 -3q-3 1 -3 5t-1 7t-1 24q1 61 -1 63q-1 2 -1 6q-1 6 1 8q1 2 3 2q4 -1 6 -4t3 -19
q1 -18 0 -34v0z" />
    <glyph glyph-name="uniFF4A" unicode="&#xff4a;" 
d="M161 173q-6 -7 -8 -8q-6 -8 -10 -8t-9 9q-3 7 -7 8q-9 3 -9 9q0 5 9 6l7 1l5 -4q2 -5 3 -5t3 4q2 2 2 3q-1 3 4 6q6 3 9 2q8 -5 9 -10q-1 -4 -8 -13v0zM151 110q0 -7 1 -10q1 -1 0 -8q0 -6 -1 -12q1 -13 -1 -63v-14v-9q-1 -1 -1 -10t-2 -11q-1 -2 -1 -5q-4 -7 -43 -5
q-9 0 -13 7q-3 7 2 14q1 2 1 6q1 6 3 6q2 1 2 0q0 -2 -2 -10q-1 -11 2 -13t16 0q13 0 15 2q5 0 6 3q1 1 2 9q1 11 2 37q1 51 1 54q1 3 0 4q0 2 1 8q0 6 -1 26q-1 17 -1 20q1 3 6 3h4q0 -1 1 -3q2 -4 1 -26v0z" />
    <glyph glyph-name="uniFF4B" unicode="&#xff4b;" 
d="M116 197q-1 -4 0 -8q2 -5 -2 -44.5t-3 -39.5l6 7l12 12q8 11 18 14l7 1l2 -2q4 -6 -4 -7q-3 -1 -12 -8q-9 -6 -9 -8q0 -1 -4 -6q-2 -2 -4 -3q-3 -3 -4 -5q-4 -5 -7 -7q-2 -2 -3 -7q0 -4 1 -6q2 -2 24 -6l15 -4q7 0 9 -4q3 -4 0 -7q-1 -2 -10 -1l-20 6q-6 1 -8 2
q-1 1 -5 1h-4q-2 1 -4 -7q-1 -8 0 -15q0 -3 1 -4q1 0 2 3q1 4 2 0q0 -5 -1 -12q-2 -8 -8 -7q-5 1 -6 10q-1 5 -2 6q-1 0 0 11q3 55 7.5 100t6.5 51t6 0q1 -3 1 -6v0z" />
    <glyph glyph-name="uniFF4C" unicode="&#xff4c;" 
d="M130 191q0 -7 1 -24q2 -13 2 -31q1 -18 0 -20q-1 0 -2 -17q-1 -16 -1 -17q-1 -3 -3 -44q16 0 15 -3q0 -5 -4 -5q-19 -7 -22 -1q-3 7 -1 8q1 2 2 23q1 9 2 19q2 32 3 41v28q-1 27 -4 38q-3 9 1 15t10 1q1 -3 1 -5v-6v0z" />
    <glyph glyph-name="uniFF4D" unicode="&#xff4d;" 
d="M103 141q-7 -8 -7 -11q0 -2 -2 -3q-6 -4 -5 -18q0 -9 1 -10q1 -2 3 3q9 22 25 20l5 1l7 -8q4 -8 4 -11t2 -4q2 -3 2 -2q1 1 5 7q4 13 13 23q9 9 14 8q10 1 20 -21q7 -21 7 -44q0 -31 -1 -36q0 -8 -3 -9q-5 -1 -9 9q-4 11 0 17q4 3 3 17q0 13 -5 33q-4 21 -9 26
q-5 3 -13 -7q-3 -4 -8 -15q-5 -7 -5 -10t-1 -4q-1 -2 -2 -10q-3 -11 -4 -19q-1 -15 -5 -20q-2 -6 -7 0q-1 3 -3 5q0 1 2 7q1 13 1 23q1 7 -1 16t-4 13q-4 8 -13 4q-8 -5 -11 -17q-3 -8 -4 -10q-1 -1 -1 -3t-2 -10q-2 -7 -2 -22q1 -13 0 -17q-1 -5 -4 -6q-10 -5 -8 49
q1 14 1 18q0 1 -1 12q-2 12 -2 15q0 5 -1 11q-2 7 -5 10q-3 6 -3 7l-3 5q-5 10 -3 17q3 7 9 3q3 0 6 -6q6 -6 6 -8q0 -8 5 3q2 5 4 5q1 0 2 2q3 4 7 4q4 -2 8 -6q9 -10 -5 -26v0z" />
    <glyph glyph-name="uniFF4E" unicode="&#xff4e;" 
d="M110 141q-4 -3 -5 -3q0 -1 2 -5q2 -2 2 -13q0 -10 1 -10t2 2q2 2 2 4q0 3 6 9q7 6 11 7q4 -1 13 -2q8 -2 10 -4q3 -2 5 -3q3 -2 3 -7q1 -6 1 -32q1 -31 2 -35q1 -2 2 -8q1 -4 2 -5q1 0 4 -1q7 -1 5 -6q-2 -4 -10 -3q-11 2 -11 10q0 3 -1 8q-3 6 -3 54q0 13 -1 15
q-1 3 -1 4q-2 3 -12 4q-11 2 -14 -2l-4 -4q-3 -4 -5 -12q-1 -3 -2 -5q-5 -12 -7 -39q-1 -18 -2 -23q0 -7 -2 -9q-1 -2 -6 -2q-5 1 -4 16q5 35 6 51q1 15 -1 25q-2 8 -2 12q0 6 -2 8q-1 2 -1 3q0 2 -4 4q-6 3 -9 11q-4 7 -2 10q1 3 4 3t6 -2q5 -5 9 -7q4 -1 4 2q0 4 6 6
q7 4 10 1q6 -5 4 -12q-3 -6 -11 -15v0z" />
    <glyph glyph-name="uniFF4F" unicode="&#xff4f;" 
d="M141 137q5 0 10 -2q6 -3 8 -7q3 -2 5 -16q3 -14 4 -19q-1 -6 -1 -7q1 -1 -1 -7q-2 -8 -2 -9q1 -1 -1 -8q-2 -6 -5 -10q-4 -5 -4 -7q-1 -2 -2 -2t-2 -4q-6 -5 -18 -11q-12 -5 -15 -3h-2q-5 0 -10 3q-6 3 -9 8q-2 5 -4 16q-4 11 -3 14q1 2 1 5v3q1 3 3 11l1 9v9q2 6 5 12
q2 5 4 7q17 16 31 15h7v0zM108 105q-5 -18 -6 -19q-2 -4 -2 -15q-1 -11 1 -16q3 -15 8 -19q7 -3 19 0q9 3 19 12q9 11 7 15q0 1 1 4q2 3 3 7q2 5 1 6l2 5v8q-1 2 0 4q0 3 -3 15l-3 12l-4 3q-4 2 -11 2q-8 -1 -14 -2q-5 -2 -10 -10q-3 -2 -5 -5q-3 -4 -3 -7v0zM128 83l2 -1
l4 3q2 4 4 4q2 1 5 -1t3 -5q1 -2 -1 -3q-2 -2 -5 -6q-1 -3 -6 -7q-6 -4 -8 -4l-2 2t-2 5t-4 7q-4 4 1 8q1 1 2 1h2q3 0 5 -3v0z" />
    <glyph glyph-name="uniFF50" unicode="&#xff50;" 
d="M161 115l3 -3q2 -4 2 -12t-6 -18q-2 -4 -2 -5t-3 -6q-1 -3 -5 -6l-20 -24q-6 -5 -8.5 -9.5t-9.5 -0.5q-5 5 -4 -1q0 -3 -1 -3q1 -61 -2 -65q-8 -5 -10 5l2 60v13q0 8 1 13q-1 7 -1 29.5t3 25.5q5 7 8 4q5 -3 4 -9l-3 -44q-1 -6 0 -12q-1 -7 -1 -8q1 0 31 27q8 11 9 16
q1 7 4 12q8 23 -25 32l-10 2l-10 -1q-10 -2 -12 -1q-4 2 0 6q2 4 10 5q10 2 16 1q10 -1 25 -10q14 -7 15 -13v0zM131 102q-1 -4 1 -4q1 0 2 2q4 5 7 6q2 0 4 -1q4 -4 3 -12q-1 -9 -5 -10l-2 -2q0 -2 -5 -2q-3 0 -6 -1q-5 0 -6 1q-2 1 -2 3q-1 4 -3 10l-2 5l2 3q1 4 5 5h6
q1 -2 1 -3v0z" />
    <glyph glyph-name="uniFF51" unicode="&#xff51;" 
d="M151 128q5 -9 7 -8q4 0 4 -4q2 -4 0 -8q-1 -3 -3 -10q-3 -7 -2 -8q0 -2 -1 -7q-3 -8 -6 -32q-1 -16 -3 -25q-2 -13 -3 -28q-1 -14 1 -15q1 -1 17 17q4 5 6 5q1 1 2 -3q0 -2 -8 -12q-2 -3 -4 -7q-1 -4 -8 -13q-7 -6 -11 -9q-10 -4 -7 18q0 9 1 22q1 12 3 19q0 6 2 15
q1 8 2 24q5 24 3 24q-1 0 -4 -2q-2 -5 -3 -7q-2 -3 -6 -7q-3 -6 -3 -7t-2 -1q-2 -1 -1 -4q0 -5 -8 -7q-7 -3 -14 -1q-9 1 -10 6q-2 5 -3 6q-2 2 -2 8q0 5 1 9l2 6q0 2 2 5q0 3 1 7q2 2 7 10q4 6 5 9q3 5 12 14q9 7 14 8q5 2 12 1q1 0 5 -3q2 -3 3 -5v0zM123 117q-5 -1 -5 -3
q0 -1 -2 -2q-3 -3 -4 -5t-2 -2q-2 0 -3 -3q-2 -5 -2 -7q0 -1 -1 -6q-6 -15 -6 -25q2 -9 7 -8q3 1 9 4q5 4 5 5t8 11q7 10 9 16q6 5 7 9q2 3 1 4q-1 3 0 6q4 7 -2 12q-7 5 -13 0q-2 -3 -6 -6v0z" />
    <glyph glyph-name="uniFF52" unicode="&#xff52;" 
d="M164 142q7 5 11 2q5 -3 6 -8q1 -7 -5 -12q-2 -4 -2 -6q1 -5 -5.5 -5t-6.5 2q-1 2 -6 2h-7q-4 -2 -6 -2q-3 0 -9 -2q-5 -3 -7 -5q-3 -2 -5 -2t-9 -8q-8 -10 -9 -15q-4 -8 -5 -16t-1 -28q0 -9 -4 -14q-3 -3 -8 1q-2 2 -2 5q0 4 2 15q3 30 1 46q-3 17 -4 18q-1 3 0 4
q0 2 -2 5q0 4 -3 6q-2 2 -2 3q-1 0 0 2q3 6 7 6q7 -1 8 -8q0 -2 1 -4q2 -3 4 -22q1 -8 3 -9q1 -2 2 1q1 6 9 15q9 10 12 10q1 0 7 3q6 2 12 3t7 1q1 1 0 5q-3 13 0 18q3 3 9 -3l4 -6l3 2v0z" />
    <glyph glyph-name="uniFF53" unicode="&#xff53;" 
d="M152 115q-2 -1 -5 1q-2 2 -2 4t-2 4q-2 1 -5 1q-5 -1 -11 -4q-6 -4 -7 -5q-1 -2 -7 -8q-5 -6 -5 -9t4 -5q4 -4 6 -4q1 0 3 -2q1 -3 6 -4q4 -1 14 -8q11 -8 15 -12q7 -5 7 -13t-6 -13q-2 -2 -7 -4q-6 -5 -8 -5q-1 0 -2 -1q-1 -2 -10 -3h-10q-1 1 -10 1h-6l-2 3q-1 6 1 7
h15q13 1 14 2t2 1q10 0 13 9q5 7 -2 12q-5 4 -12 10q-8 3 -10 3q-1 0 -13 7q-9 6 -13 14q-4 7 1 13q3 4 11 12t12 9q5 3 8 6q4 3 9 3q6 0 8 -3q5 -3 7 -10q2 -8 -1 -9v0z" />
    <glyph glyph-name="uniFF54" unicode="&#xff54;" 
d="M164 197q0 -3 1 -3l4 4q3 7 9 4q5 -1 5 -10q0 -2 -3 -7q-3 -6 -5 -6q-2 -2 -3 -4t-4 -9q-4 -4 -6 -4q-3 -2 -4 1q-2 3 -3 12q0 6 -1 9q0 2 -3 6q-6 14 1 14q3 0 4 1q3 4 6 -3q2 -4 2 -5v0zM127 183q-2 -6 -2 -15q-1 -9 -3 -19q-3 -10 -1 -12h7q8 2 11 3q9 2 12 0
q5 -3 1 -9q-1 -2 -3 -2q-1 -1 -12 -1q-22 0 -22 -11q0 -3 -2 -3q0 -2 -3 -19q-2 -8 -4 -15q-1 -8 -1 -18q1 -9 2 -13q2 -2 3 -7q3 -6 11 -7q7 -2 12 3q2 4 8 6q7 4 8 3q0 -3 -6 -10q-6 -5 -10 -7q-11 -7 -20 -5q-8 5 -13 18l-4 9v16q1 16 4 21q2 6 3 17q2 12 1 13
q-1 2 -11 0q-14 -2 -15 -2q-2 0 -3 2q-2 3 -1 4q1 2 3 2t5 3q3 2 13 3q11 2 13 3t2 6q1 6 2 8q1 3 4 20q2 18 2 27q0 6 2 9q2 2 5 0q3 -1 3 -8q0 -8 -1 -13v0z" />
    <glyph glyph-name="uniFF55" unicode="&#xff55;" 
d="M116 156l1 -3l-1 -3q-1 -4 -5 -8q-4 -3 -8 -9l-5 -5l-1 -19q0 -32 1 -38q2 -4 1 -10q-2 -13 7 -19q9 -7 18 0q5 4 7 6q3 1 9 9q6 7 6 8q0 2 1 3q2 1 5 9q5 9 5 10t1 3q5 8 5 27q0 7 1 9t1 3q0 3 3 5q3 3 6 2q4 -2 5 -5q0 -3 -2 -12q-2 -7 -2 -11v-3v-23v-25q0 -4 1 -18
t-1 -14q-1 0 -4 3q-2 2 -8 30q-1 18 -4 10q0 -3 -3 -5q-2 -2 -2 -4q0 -1 -2 -2q0 -1 -2 -5q-1 -3 -10 -11q-9 -10 -11 -11l-2 -1q-3 -3 -10 -4q-8 0 -14 1q-3 0 -7 5q-3 4 -4 7q0 3 -2 4q-3 4 -6 63q-1 29 -3 33q-4 5 -3 12q0 5 4 7t9 -3l3 -3l2 5q4 7 8 7q1 0 5 -2
q5 -3 7 -5v0z" />
    <glyph glyph-name="uniFF56" unicode="&#xff56;" 
d="M174 120q-5 -1 -7 -5l-25 -59q-2 -2 -5 -8q-1 -6 -4 -10q-2 -2 -2 -5q0 -1 -3 -5q-6 -3 -8 -3q-5 1 -7 15q-1 11 -25 80q-9 5 -8 10q2 7 8 7q4 -1 8 -9q6 -5 24 -56q3 -3 3 -8q1 -6 3 -7q3 -2 3 4q0 2 18.5 40t27.5 28q2 -2 2 -4q0 -1 -3 -5v0z" />
    <glyph glyph-name="uniFF57" unicode="&#xff57;" 
d="M80 123l5 -52q-1 -11 0 -21q2 -10 4 -11q1 0 3 3q3 3 5 6q1 4 2 6q2 2 5 8q2 7 4 10q2 4 2 6q2 4 4 10t4 7q1 3 1 4t1 2t0 4q2 3 7 17q1 4 1 6q0 1 1 4q2 2 4 2q3 0 5 -5t4 -18q1 -17 3 -22q0 -5 2 -30q1 -5 2 -11q3 -5 4 -6q1 0 3 4q4 4 3 7q0 4 14 46q2 6 2 13
q2 9 1 14q0 2 1 2q1 1 1 5q0 5 3 5q4 0 5 -6q0 -4 1 -7q0 -3 -2 -10q-3 -7 -4 -11q0 -4 -1 -6t-2 -10q-9 -29 -9 -30q-1 -2 -1 -4q1 -3 0 -8l-3 -9q-2 -2 -3 -5q-2 -5 -7 -6q-4 0 -7 4q-5 7 -9 18q-3 11 -7 53q-1 4 -1 5q-1 0 -2 -1q-6 -19 -7 -19q-1 -1 -1 -3q0 -1 -2 -8
q-2 -6 -6 -13l-5 -10q-2 -3 -2 -4q1 -6 -6 -13q-6 -9 -11 -10h-5q-2 1 -2 4q0 1 -3 4t-4 13q-1 9 -2 19l-5 56q0 11 4 14q2 3 3 3t3 -3l3 -3l-1 -9v0z" />
    <glyph glyph-name="uniFF58" unicode="&#xff58;" 
d="M161 125q-1 0 -3 -4q-1 -4 -4 -9q-2 -4 -7 -11l-7 -14q-5 -5 -5 -8q0 -2 5 -6q26 -27 26 -28q0 -2 3 -5q4 -5 0 -12q-5 -6 -10 5q-2 7 -3 7q-2 1 -4 5q-1 2 -5 5q-2 3 -4 3l-8 7q-6 7 -7 7t-10 -12q-10 -13 -13 -19q-6 -8 -11 -9q-4 -1 -5 8v3q1 2 5 8q26 29 26 32
q0 1 -23 30q-11 15 -13 18q-1 3 4 2q7 0 30 -29q6 -7 9 -6t8 12q1 3 5 7q2 3 4 7q4 13 10 18q5 3 8 -2q2 -2 1 -6q0 -2 -2 -4v0z" />
    <glyph glyph-name="uniFF59" unicode="&#xff59;" 
d="M108 151q2 -11 5 -4q6 8 11 10q3 1 9 -5q3 -2 3 -8q1 -4 -1 -6q-3 -2 -8 -9q-4 -6 -8 -8l-4 -1v-6v-16q1 -9 0 -9q-1 -1 0 -12q0 -11 1 -13q1 -1 4 3q4 3 4 4l5 8q7 7 10 12q3 6 8 11q2 5 6 14q4 7 4 10q0 2 3 4q4 3 7 3h3l2 -5v-7t-1 -3q-1 -1 -1 -5q0 -2 -1 -4
q-2 -2 -2 -16q-1 -14 -2 -19q-1 -3 -1 -6q0 -7 -6.5 -47t-7.5 -43q-2 -5 -2 -9q-1 -8 -20 -8q-10 0 -15 3t-11 13q-4 5 -10 10q-8 7 -4 10q1 1 7 -4q6 -3 10 -10l8 -8q1 0 3 -2q3 -3 13 -1q7 2 8 6q2 3 3 14q12 71 12 89q0 9 -1 10q-1 2 -3 -2l-1 -5q-1 0 -3 -3t-7 -9
q-4 -3 -4 -4t-5 -9t-7 -10q-7 -5 -8 -5q-3 0 -6 5q-2 4 -2 9v36q0 23 -3 27q-1 3 -1 6q0 1 -4 7q-7 14 -4 22q4 7 13 0q2 -1 2 -5v0z" />
    <glyph glyph-name="uniFF5A" unicode="&#xff5a;" 
d="M157 164q0 -7 1 -10l1 -3l3 2q8 7 10 8q3 1 6 0q4 -1 6 -9q1 -9 -3 -13q-2 -5 -3 -5t-6 -4q-4 -3 -6 -3q-4 0 -14 -12q-10 -10 -10 -13q0 -4 -10 -15q-9 -11 -11 -11t-6 -5q-1 -4 -4 -8q-4 -4 -6 -4q-1 0 -5 -5l-4 -6q1 -1 2 -1q2 0 10 1q22 4 30 6q8 1 10 -2q4 -4 1 -8
q-2 -4 -7 -3q-4 0 -8 -1q-2 -3 -5 -3q-1 0 -13 -2q-11 -4 -15 -5t-14 -4l-10 -1l-2 2q-4 4 -1 13q2 8 7 8q1 0 6 6q4 5 7 8t6 7t11 13q15 14 21 25q6 13 -2 13h-16q-11 0 -24 -2q-9 -1 -12 -1q-1 0 -2 3q-1 1 -1 5q1 3 2 5q7 5 21 4h15h18q12 1 13 2q2 3 -2 15q-3 10 -3 13
q0 4 2 8q3 6 7 7t8 -4q1 -3 1 -11v0z" />
    <glyph glyph-name="uniFF5B" unicode="&#xff5b;" 
d="M205 9q-2 0 -5 2q-7 2 -8 9q-2 6 -5 71q0 4 -15 15q-10 9 3 16q11 6 10 36q5 26 5 29q2 2 3 7q1 4 2 6q1 3 2 5q6 9 7 10t2 4q1 2 9 6q4 1 10 2q6 0 9 -2q3 -1 3 -4q-1 -3 -5 -3q-2 0 -4 -1q-2 -2 -5 -3q-2 -1 -7 -5q-4 -3 -4 -4t-2 -6q-9 -16 -10 -26.5t-1 -20.5
q1 -10 -2 -17q-1 -8 -7 -18l-2 -3l4 -5q5 -5 6 -10q4 -15 5 -28q1 -47 4 -50q3 -4 12 -2q11 1 9 -7q-1 -4 -4 -4q-4 -1 -13 -1q-4 1 -6 2v0z" />
    <glyph glyph-name="uniFF5C" unicode="&#xff5c;" 
d="M134 172v-25q0 -5 1 -16t2 -14q0 -3 1 -20v-61q-1 -15 -4 -15q-2 0 -4 8q-2 9 -3 21q0 10 -1 14t-1 21q0 18 -2 36q-1 19 -1 44q-1 26 -1 27q-3 3 2 7q5 3 7 0q3 -3 4 -8v-19v0z" />
    <glyph glyph-name="uniFF5D" unicode="&#xff5d;" 
d="M51 222q2 -1 5 -3q6 -1 8 -8q2 -5 5 -34q0 -4 15 -14q10 -8 -3 -15q-11 -6 -10 -34q0 -19 -1 -21v-6q-1 -4 -2 -5v-6t-2 -12q-1 -9 -2 -12q-2 -2 -2 -7q-1 -3 -3 -5l-2 -4q-5 -9 -7 -10q-1 -1 -2 -4q-1 -2 -9 -6q-3 -1 -9 -1t-10 1q-3 1 -3 4q1 3 5 3q2 0 4 1q3 2 6 2
l6 6q4 3 4 4t3 5q9 15 11 57q1 12 1 21q-1 10 2 17q1 7 7 17l2 3l-4 5q-4 4 -6 9q-4 14 -5 27q-1 11 -4 13q-4 4 -13 2q-11 -1 -8 6q1 4 4 5q4 1 13 0q4 0 6 -1v0z" />
    <glyph glyph-name="uniFF5E" unicode="&#xff5e;" 
d="M136 116q7 -10 11 -13q4 -2 11 1q15 6 18 9l3 3l3 -3l4 -3l-4 -3q-3 -4 -4 -4t-7 -4q-17 -12 -25 -10q-9 1 -18 17q-4 7 -13 15t-15 10l-5 1l-7 -5l-8 -5v-5q0 -5 -1 -6q-3 -3 -6 1t-2 9q1 3 2 5q1 10 12 15t21 1q7 -2 16 -11q10 -9 14 -15v0z" />
    <glyph glyph-name="multiply" unicode="&#xd7;" 
d="M176 34v-3q0 -4 -5 -8q-2 -1 -4 -1q-4 0 -6 4l-14 28l-4 6l-2 3l-1 2v0q-2 4 -8 12q-1 1 -1 3q-3 -2 -3 -4l-15 -24l-7 -13l-3 -7l-2 -2v-2q0 -2 -3 -5q-2 -2 -6 -2q-2 0 -4 1.5t-3 4.5q0 3 2 6.5t3 4.5l4 8q10 19 28 45l-7 9q-9 12 -23 26q-8 8 -15 16v1q0 2 1.5 3
t2.5 0q8 -5 14 -9l13 -11q8 -6 23 -24q7 10 20 25l11 12q4 4 7 6l3 3t5 0q1 0 1 -2q0 -3 -3 -7t-4 -4q-2 -4 -5 -6.5t-5 -6.5l-18 -23l-4 -6q20 -27 37 -59z" />
    <glyph glyph-name="uniFFE5" unicode="&#xffe5;" 
d="M114 205q2 -7 4 -12q1 -5 2 -8q0 -2 2 -5q1 -3 3 -11q2 -7 4 -7q2 1 10 9q9 10 13 15q5 4 5 5t1 3q2 2 11 22q2 5 5 6t5 -4q1 -4 -1 -13q-2 -8 -6 -12q-3 -2 -4 -5q-1 -2 -6 -8q-19 -18 -22 -21q-6 -7 -7 -13q0 -3 -1 -21q0 -22 1 -23q1 -2 11 -2q10 1 21 2q14 2 14 -2
q0 -2 -4 -4q-3 -2 -8 -2q-6 -1 -7 -2q-3 -2 -20 -4h-7l-1 -11q-1 -11 -2 -14v-15q-1 -11 -1 -13q-1 -2 -6 -2q-3 1 -4 9q-2 8 -1 29v9v7h-15h-16l-2 4q-9 11 17 10q14 -1 15 0q3 3 2 18q-1 14 -4 15q-2 0 -2 3q0 4 3 8q3 5 2 6t-1 4q0 2 -1 5q-2 3 -3 9q-2 6 -4 10t-3 8
q0 5 -1 8q-2 3 -2 6q-1 4 -2 5q-1 0 -1 3t-1 3q-1 1 -1 5q-1 4 0 5t4 1t4 -2q5 -5 8 -16v0z" />
  </font>
</defs>
</svg>
